<svg version="1.1" xmlns="http://www.w3.org/2000/svg" xmlns:xlink="http://www.w3.org/1999/xlink" width="714" height="614"><defs/><g><g transform="translate(2,10) scale(1,1)"><path fill="none" stroke="#000000" d="M 8 0 L 702 0 L 702 594 L 8 594 L 8 0" stroke-miterlimit="10"/></g><g transform="translate(2,10) scale(1,1)"><path fill="#ffffff" stroke="none" d="M 8 0 L 8 22 L 230.64794921875 22 L 241.64794921875 11 L 241.64794921875 0 L 8 0"/></g><g transform="translate(2,10) scale(1,1)"><path fill="none" stroke="#000000" d="M 8 0 L 8 22 L 230.64794921875 22 L 241.64794921875 11 L 241.64794921875 0 L 8 0 L 8 0" stroke-miterlimit="10"/></g><g transform="translate(2,10) scale(1,1)"><g><path fill="none" stroke="none"/><text fill="#000000" stroke="none" font-family="Arial" font-size="13px" font-style="normal" font-weight="normal" text-decoration="none" x="78.97900390625" y="17.5">CommunicationDiagram1</text></g></g><g transform="translate(2,10) scale(1,1)"><g><path fill="none" stroke="none"/><text fill="#000000" stroke="none" font-family="Arial" font-size="13px" font-style="normal" font-weight="bold" text-decoration="none" x="13" y="17.5">interaction</text></g></g><g transform="translate(2,10) scale(1,1)"><rect fill="#C0C0C0" stroke="none" x="103" y="263" width="99" height="29" opacity="0.2"/></g><g transform="translate(2,10) scale(1,1)"><rect fill="#ffffff" stroke="none" x="96" y="256" width="99" height="29"/></g><g transform="translate(2,10) scale(1,1)"><path fill="none" stroke="#000000" d="M 96 256 L 195 256 L 195 285 L 96 285 L 96 256 Z Z" stroke-miterlimit="10"/></g><g transform="translate(2,10) scale(1,1)"><rect fill="#ffffff" stroke="none" x="96" y="256" width="99" height="29"/></g><g transform="translate(2,10) scale(1,1)"><path fill="none" stroke="#000000" d="M 96 256 L 195 256 L 195 285 L 96 285 L 96 256 Z Z" stroke-miterlimit="10"/></g><g transform="translate(2,10) scale(1,1)"><g><path fill="none" stroke="none"/><text fill="#000000" stroke="none" font-family="Arial" font-size="13px" font-style="normal" font-weight="bold" text-decoration="none" x="125.2763671875" y="275.5">memer</text></g></g><g transform="translate(2,10) scale(1,1)"><rect fill="#C0C0C0" stroke="none" x="455" y="263" width="99" height="29" opacity="0.2"/></g><g transform="translate(2,10) scale(1,1)"><rect fill="#ffffff" stroke="none" x="448" y="256" width="99" height="29"/></g><g transform="translate(2,10) scale(1,1)"><path fill="none" stroke="#000000" d="M 448 256 L 547 256 L 547 285 L 448 285 L 448 256 Z Z" stroke-miterlimit="10"/></g><g transform="translate(2,10) scale(1,1)"><rect fill="#ffffff" stroke="none" x="448" y="256" width="99" height="29"/></g><g transform="translate(2,10) scale(1,1)"><path fill="none" stroke="#000000" d="M 448 256 L 547 256 L 547 285 L 448 285 L 448 256 Z Z" stroke-miterlimit="10"/></g><g transform="translate(2,10) scale(1,1)"><g><path fill="none" stroke="none"/><text fill="#000000" stroke="none" font-family="Arial" font-size="13px" font-style="normal" font-weight="bold" text-decoration="none" x="475.4609375" y="275.5">website</text></g></g><g transform="translate(2,10) scale(1,1)"><path fill="none" stroke="#000000" d="M 145 255 L 144 192 L 496 192 L 497 255" stroke-miterlimit="10"/></g><g transform="translate(2,10) scale(1,1)"><path fill="none" stroke="#000000" d="M 340 182 L 300 182" stroke-miterlimit="10"/></g><g transform="translate(2,10) scale(1,1)"><path fill="#000000" stroke="none" d="M 328 186 L 340 182 L 328 177"/></g><g transform="translate(2,10) scale(1,1)"><g><path fill="none" stroke="none"/><text fill="#000000" stroke="none" font-family="Arial" font-size="13px" font-style="normal" font-weight="normal" text-decoration="none" x="278.88916015625" y="177.5">1 : Connexion</text></g></g><g transform="translate(2,10) scale(1,1)"><path fill="none" stroke="#000000" d="M 497 286 L 496 352 L 144 352 L 145 286" stroke-miterlimit="10"/></g><g transform="translate(2,10) scale(1,1)"><path fill="none" stroke="#000000" d="M 299 362 L 339 362" stroke-miterlimit="10"/></g><g transform="translate(2,10) scale(1,1)"><path fill="#000000" stroke="none" d="M 310 357 L 299 362 L 310 366"/></g><g transform="translate(2,10) scale(1,1)"><g><path fill="none" stroke="none"/><text fill="#000000" stroke="none" font-family="Arial" font-size="13px" font-style="normal" font-weight="normal" text-decoration="none" x="266.69189453125" y="379.5">2 : Connexion OK</text></g></g><g transform="translate(2,10) scale(1,1)"><path fill="none" stroke="#000000" d="M 145 255 L 144 192 L 496 192 L 497 255" stroke-miterlimit="10"/></g><g transform="translate(2,10) scale(1,1)"><path fill="none" stroke="#000000" d="M 340 182 L 300 182" stroke-miterlimit="10"/></g><g transform="translate(2,10) scale(1,1)"><path fill="#000000" stroke="none" d="M 328 186 L 340 182 L 328 177"/></g><g transform="translate(2,10) scale(1,1)"><g><path fill="none" stroke="none"/><text fill="#000000" stroke="none" font-family="Arial" font-size="13px" font-style="normal" font-weight="normal" text-decoration="none" x="278.662353515625" y="162.5">3 : searching an item</text></g></g><g transform="translate(2,10) scale(1,1)"><path fill="none" stroke="#000000" d="M 497 286 L 496 352 L 144 352 L 145 286" stroke-miterlimit="10"/></g><g transform="translate(2,10) scale(1,1)"><path fill="none" stroke="#000000" d="M 299 362 L 339 362" stroke-miterlimit="10"/></g><g transform="translate(2,10) scale(1,1)"><path fill="#000000" stroke="none" d="M 310 357 L 299 362 L 310 366"/></g><g transform="translate(2,10) scale(1,1)"><g><path fill="none" stroke="none"/><text fill="#000000" stroke="none" font-family="Arial" font-size="13px" font-style="normal" font-weight="normal" text-decoration="none" x="266.707763671875" y="396.5">4 : show item</text></g></g><g transform="translate(2,10) scale(1,1)"><path fill="none" stroke="#000000" d="M 145 255 L 144 192 L 496 192 L 497 255" stroke-miterlimit="10"/></g><g transform="translate(2,10) scale(1,1)"><path fill="none" stroke="#000000" d="M 340 182 L 300 182" stroke-miterlimit="10"/></g><g transform="translate(2,10) scale(1,1)"><path fill="#000000" stroke="none" d="M 328 186 L 340 182 L 328 177"/></g><g transform="translate(2,10) scale(1,1)"><g><path fill="none" stroke="none"/><text fill="#000000" stroke="none" font-family="Arial" font-size="13px" font-style="normal" font-weight="normal" text-decoration="none" x="278.8037109375" y="148.5">5 : look description</text></g></g><g transform="translate(2,10) scale(1,1)"><path fill="none" stroke="#000000" d="M 145 255 L 144 192 L 496 192 L 497 255" stroke-miterlimit="10"/></g><g transform="translate(2,10) scale(1,1)"><path fill="none" stroke="#000000" d="M 340 182 L 300 182" stroke-miterlimit="10"/></g><g transform="translate(2,10) scale(1,1)"><path fill="#000000" stroke="none" d="M 328 186 L 340 182 L 328 177"/></g><g transform="translate(2,10) scale(1,1)"><g><path fill="none" stroke="none"/><text fill="#000000" stroke="none" font-family="Arial" font-size="13px" font-style="normal" font-weight="normal" text-decoration="none" x="278.945068359375" y="132.5">6 : book the item</text></g></g><g transform="translate(2,10) scale(1,1)"><path fill="none" stroke="#000000" d="M 497 286 L 496 352 L 144 352 L 145 286" stroke-miterlimit="10"/></g><g transform="translate(2,10) scale(1,1)"><path fill="none" stroke="#000000" d="M 299 362 L 339 362" stroke-miterlimit="10"/></g><g transform="translate(2,10) scale(1,1)"><path fill="#000000" stroke="none" d="M 310 357 L 299 362 L 310 366"/></g><g transform="translate(2,10) scale(1,1)"><g><path fill="none" stroke="none"/><text fill="#000000" stroke="none" font-family="Arial" font-size="13px" font-style="normal" font-weight="normal" text-decoration="none" x="267.675048828125" y="412.5">7 : book OK</text></g></g></g></svg>