<svg version="1.1" xmlns="http://www.w3.org/2000/svg" xmlns:xlink="http://www.w3.org/1999/xlink" width="772.43896484375" height="876"><defs/><g><g transform="translate(-70,-6) scale(1,1)"><rect fill="#ffffff" stroke="none" x="80" y="16" width="392" height="21"/></g><g transform="translate(-70,-6) scale(1,1)"><path fill="none" stroke="#000000" d="M 80 16 L 472 16 L 472 37 L 80 37 L 80 16 Z Z" stroke-miterlimit="10" stroke-width="2"/></g><g transform="translate(-70,-6) scale(1,1)"><path fill="none" stroke="#000000" d="M 80 872 L 80 16 L 472 16 L 472 872" stroke-miterlimit="10" stroke-width="2"/></g><g transform="translate(-70,-6) scale(1,1)"><g><path fill="none" stroke="none"/><text fill="#000000" stroke="none" font-family="Arial" font-size="13px" font-style="normal" font-weight="normal" text-decoration="none" x="252.161376953125" y="33">member</text></g></g><g transform="translate(-70,-6) scale(1,1)"><rect fill="#ffffff" stroke="none" x="472" y="16" width="360" height="21"/></g><g transform="translate(-70,-6) scale(1,1)"><path fill="none" stroke="#000000" d="M 472 16 L 832 16 L 832 37 L 472 37 L 472 16 Z Z" stroke-miterlimit="10" stroke-width="2"/></g><g transform="translate(-70,-6) scale(1,1)"><path fill="none" stroke="#000000" d="M 472 872 L 472 16 L 832 16 L 832 872" stroke-miterlimit="10" stroke-width="2"/></g><g transform="translate(-70,-6) scale(1,1)"><g><path fill="none" stroke="none"/><text fill="#000000" stroke="none" font-family="Arial" font-size="13px" font-style="normal" font-weight="normal" text-decoration="none" x="610.457763671875" y="33">library website</text></g></g><g transform="translate(-70,-6) scale(1,1)"><path fill="#C0C0C0" stroke="none" d="M 201 159 L 300.5380859375 159 Q 310.5380859375 159 310.5380859375 169 L 310.5380859375 189 Q 310.5380859375 199 300.5380859375 199 L 201 199 Q 191 199 191 189 L 191 169 Q 191 159 201 159 Z" opacity="0.2"/></g><g transform="translate(-70,-6) scale(1,1)"><path fill="#ffffff" stroke="none" d="M 194 152 L 293.5380859375 152 Q 303.5380859375 152 303.5380859375 162 L 303.5380859375 182 Q 303.5380859375 192 293.5380859375 192 L 194 192 Q 184 192 184 182 L 184 162 Q 184 152 194 152 Z"/></g><g transform="translate(-70,-6) scale(1,1)"><path fill="none" stroke="#000000" d="M 194 152 L 293.5380859375 152 Q 303.5380859375 152 303.5380859375 162 L 303.5380859375 182 Q 303.5380859375 192 293.5380859375 192 L 194 192 Q 184 192 184 182 L 184 162 Q 184 152 194 152 Z" stroke-miterlimit="10"/></g><g transform="translate(-70,-6) scale(1,1)"><g><path fill="none" stroke="none"/><text fill="#000000" stroke="none" font-family="Arial" font-size="13px" font-style="normal" font-weight="bold" text-decoration="none" x="192.464111328125" y="171.5">searching an item</text></g></g><g transform="translate(-70,-6) scale(1,1)"><path fill="#C0C0C0" stroke="none" d="M 545 263 L 597.5654296875 263 Q 607.5654296875 263 607.5654296875 273 L 607.5654296875 293 Q 607.5654296875 303 597.5654296875 303 L 545 303 Q 535 303 535 293 L 535 273 Q 535 263 545 263 Z" opacity="0.2"/></g><g transform="translate(-70,-6) scale(1,1)"><path fill="#ffffff" stroke="none" d="M 538 256 L 590.5654296875 256 Q 600.5654296875 256 600.5654296875 266 L 600.5654296875 286 Q 600.5654296875 296 590.5654296875 296 L 538 296 Q 528 296 528 286 L 528 266 Q 528 256 538 256 Z"/></g><g transform="translate(-70,-6) scale(1,1)"><path fill="none" stroke="#000000" d="M 538 256 L 590.5654296875 256 Q 600.5654296875 256 600.5654296875 266 L 600.5654296875 286 Q 600.5654296875 296 590.5654296875 296 L 538 296 Q 528 296 528 286 L 528 266 Q 528 256 538 256 Z" stroke-miterlimit="10"/></g><g transform="translate(-70,-6) scale(1,1)"><g><path fill="none" stroke="none"/><text fill="#000000" stroke="none" font-family="Arial" font-size="13px" font-style="normal" font-weight="bold" text-decoration="none" x="535.023193359375" y="275.5">show item</text></g></g><g transform="translate(-70,-6) scale(1,1)"><path fill="#C0C0C0" stroke="none" d="M 665 263 L 743.60986328125 263 Q 753.60986328125 263 753.60986328125 273 L 753.60986328125 293 Q 753.60986328125 303 743.60986328125 303 L 665 303 Q 655 303 655 293 L 655 273 Q 655 263 665 263 Z" opacity="0.2"/></g><g transform="translate(-70,-6) scale(1,1)"><path fill="#ffffff" stroke="none" d="M 658 256 L 736.60986328125 256 Q 746.60986328125 256 746.60986328125 266 L 746.60986328125 286 Q 746.60986328125 296 736.60986328125 296 L 658 296 Q 648 296 648 286 L 648 266 Q 648 256 658 256 Z"/></g><g transform="translate(-70,-6) scale(1,1)"><path fill="none" stroke="#000000" d="M 658 256 L 736.60986328125 256 Q 746.60986328125 256 746.60986328125 266 L 746.60986328125 286 Q 746.60986328125 296 736.60986328125 296 L 658 296 Q 648 296 648 286 L 648 266 Q 648 256 658 256 Z" stroke-miterlimit="10"/></g><g transform="translate(-70,-6) scale(1,1)"><g><path fill="none" stroke="none"/><text fill="#000000" stroke="none" font-family="Arial" font-size="13px" font-style="normal" font-weight="bold" text-decoration="none" x="655.40087890625" y="275.5">error message</text></g></g><g transform="translate(-70,-6) scale(1,1)"><path fill="#C0C0C0" stroke="none" d="M 623 224.5 L 634.5 215 L 645 224.5 L 634.5 233 L 623 224.5" opacity="0.2"/></g><g transform="translate(-70,-6) scale(1,1)"><path fill="#ffffff" stroke="none" d="M 616 217 L 627 208 L 638 217 L 627 226 L 616 217"/></g><g transform="translate(-70,-6) scale(1,1)"><path fill="none" stroke="#000000" d="M 616 217 L 627 208 L 638 217 L 627 226 L 616 217 L 616 217" stroke-miterlimit="10"/></g><g transform="translate(-70,-6) scale(1,1)"><path fill="#C0C0C0" stroke="none" d="M 265 263 L 325.51904296875 263 Q 335.51904296875 263 335.51904296875 273 L 335.51904296875 293 Q 335.51904296875 303 325.51904296875 303 L 265 303 Q 255 303 255 293 L 255 273 Q 255 263 265 263 Z" opacity="0.2"/></g><g transform="translate(-70,-6) scale(1,1)"><path fill="#ffffff" stroke="none" d="M 258 256 L 318.51904296875 256 Q 328.51904296875 256 328.51904296875 266 L 328.51904296875 286 Q 328.51904296875 296 318.51904296875 296 L 258 296 Q 248 296 248 286 L 248 266 Q 248 256 258 256 Z"/></g><g transform="translate(-70,-6) scale(1,1)"><path fill="none" stroke="#000000" d="M 258 256 L 318.51904296875 256 Q 328.51904296875 256 328.51904296875 266 L 328.51904296875 286 Q 328.51904296875 296 318.51904296875 296 L 258 296 Q 248 296 248 286 L 248 266 Q 248 256 258 256 Z" stroke-miterlimit="10"/></g><g transform="translate(-70,-6) scale(1,1)"><g><path fill="none" stroke="none"/><text fill="#000000" stroke="none" font-family="Arial" font-size="13px" font-style="normal" font-weight="bold" text-decoration="none" x="255.740478515625" y="275.5">look details</text></g></g><g transform="translate(-70,-6) scale(1,1)"><path fill="#C0C0C0" stroke="none" d="M 287 352.5 L 298.5 343 L 309 352.5 L 298.5 361 L 287 352.5" opacity="0.2"/></g><g transform="translate(-70,-6) scale(1,1)"><path fill="#ffffff" stroke="none" d="M 280 345 L 291 336 L 302 345 L 291 354 L 280 345"/></g><g transform="translate(-70,-6) scale(1,1)"><path fill="none" stroke="#000000" d="M 280 345 L 291 336 L 302 345 L 291 354 L 280 345 L 280 345" stroke-miterlimit="10"/></g><g transform="translate(-70,-6) scale(1,1)"><path fill="#C0C0C0" stroke="none" d="M 153 423 L 253 423 Q 263 423 263 433 L 263 466 Q 263 476 253 476 L 153 476 Q 143 476 143 466 L 143 433 Q 143 423 153 423 Z" opacity="0.2"/></g><g transform="translate(-70,-6) scale(1,1)"><path fill="#ffffff" stroke="none" d="M 146 416 L 246 416 Q 256 416 256 426 L 256 459 Q 256 469 246 469 L 146 469 Q 136 469 136 459 L 136 426 Q 136 416 146 416 Z"/></g><g transform="translate(-70,-6) scale(1,1)"><path fill="none" stroke="#000000" d="M 146 416 L 246 416 Q 256 416 256 426 L 256 459 Q 256 469 246 469 L 146 469 Q 136 469 136 459 L 136 426 Q 136 416 146 416 Z" stroke-miterlimit="10"/></g><g transform="translate(-70,-6) scale(1,1)"><g><path fill="none" stroke="none"/><text fill="#000000" stroke="none" font-family="Arial" font-size="13px" font-style="normal" font-weight="bold" text-decoration="none" x="147.221435546875" y="435.5">leave description</text><text fill="#000000" stroke="none" font-family="Arial" font-size="13px" font-style="normal" font-weight="bold" text-decoration="none" x="181.5400390625" y="448.5">page</text></g></g><g transform="translate(-70,-6) scale(1,1)"><path fill="#C0C0C0" stroke="none" d="M 689 495 L 813 495 Q 823 495 823 505 L 823 538 Q 823 548 813 548 L 689 548 Q 679 548 679 538 L 679 505 Q 679 495 689 495 Z" opacity="0.2"/></g><g transform="translate(-70,-6) scale(1,1)"><path fill="#ffffff" stroke="none" d="M 682 488 L 806 488 Q 816 488 816 498 L 816 531 Q 816 541 806 541 L 682 541 Q 672 541 672 531 L 672 498 Q 672 488 682 488 Z"/></g><g transform="translate(-70,-6) scale(1,1)"><path fill="none" stroke="#000000" d="M 682 488 L 806 488 Q 816 488 816 498 L 816 531 Q 816 541 806 541 L 682 541 Q 672 541 672 531 L 672 498 Q 672 488 682 488 Z" stroke-miterlimit="10"/></g><g transform="translate(-70,-6) scale(1,1)"><g><path fill="none" stroke="none"/><text fill="#000000" stroke="none" font-family="Arial" font-size="13px" font-style="normal" font-weight="bold" text-decoration="none" x="686.042724609375" y="507.5">check user's current</text><text fill="#000000" stroke="none" font-family="Arial" font-size="13px" font-style="normal" font-weight="bold" text-decoration="none" x="689.81005859375" y="520.5">number of borrows</text></g></g><g transform="translate(-70,-6) scale(1,1)"><path fill="#C0C0C0" stroke="none" d="M 497 495 L 581 495 Q 591 495 591 505 L 591 538 Q 591 548 581 548 L 497 548 Q 487 548 487 538 L 487 505 Q 487 495 497 495 Z" opacity="0.2"/></g><g transform="translate(-70,-6) scale(1,1)"><path fill="#ffffff" stroke="none" d="M 490 488 L 574 488 Q 584 488 584 498 L 584 531 Q 584 541 574 541 L 490 541 Q 480 541 480 531 L 480 498 Q 480 488 490 488 Z"/></g><g transform="translate(-70,-6) scale(1,1)"><path fill="none" stroke="#000000" d="M 490 488 L 574 488 Q 584 488 584 498 L 584 531 Q 584 541 574 541 L 490 541 Q 480 541 480 531 L 480 498 Q 480 488 490 488 Z" stroke-miterlimit="10"/></g><g transform="translate(-70,-6) scale(1,1)"><g><path fill="none" stroke="none"/><text fill="#000000" stroke="none" font-family="Arial" font-size="13px" font-style="normal" font-weight="bold" text-decoration="none" x="490.0927734375" y="507.5">checks if there</text><text fill="#000000" stroke="none" font-family="Arial" font-size="13px" font-style="normal" font-weight="bold" text-decoration="none" x="499.135009765625" y="520.5">is still stock</text></g></g><g transform="translate(-70,-6) scale(1,1)"><path fill="#C0C0C0" stroke="none" d="M 618 447 L 681 447 Q 684 447 684 450 L 684 449 Q 684 452 681 452 L 618 452 Q 615 452 615 449 L 615 450 Q 615 447 618 447 Z" opacity="0.2"/></g><g transform="translate(-70,-6) scale(1,1)"><path fill="#000000" stroke="none" d="M 611 440 L 674 440 Q 677 440 677 443 L 677 443 Q 677 446 674 446 L 611 446 Q 608 446 608 443 L 608 443 Q 608 440 611 440 Z"/></g><g transform="translate(-70,-6) scale(1,1)"><path fill="#C0C0C0" stroke="none" d="M 687 600.5 L 698.5 591 L 709 600.5 L 698.5 609 L 687 600.5" opacity="0.2"/></g><g transform="translate(-70,-6) scale(1,1)"><path fill="#ffffff" stroke="none" d="M 680 593 L 691 584 L 702 593 L 691 602 L 680 593"/></g><g transform="translate(-70,-6) scale(1,1)"><path fill="none" stroke="#000000" d="M 680 593 L 691 584 L 702 593 L 691 602 L 680 593 L 680 593" stroke-miterlimit="10"/></g><g transform="translate(-70,-6) scale(1,1)"><path fill="#C0C0C0" stroke="none" d="M 626 687 L 689 687 Q 692 687 692 690 L 692 689 Q 692 692 689 692 L 626 692 Q 623 692 623 689 L 623 690 Q 623 687 626 687 Z" opacity="0.2"/></g><g transform="translate(-70,-6) scale(1,1)"><path fill="#000000" stroke="none" d="M 619 680 L 682 680 Q 685 680 685 683 L 685 683 Q 685 686 682 686 L 619 686 Q 616 686 616 683 L 616 683 Q 616 680 619 680 Z"/></g><g transform="translate(-70,-6) scale(1,1)"><path fill="none" stroke="#000000" d="M 245 113 L 244 151" stroke-miterlimit="10"/></g><g transform="translate(-70,-6) scale(1,1)"><path fill="none" stroke="#000000" d="M 240.0592853332588 140.73010380211508 L 244 151 L 248.4754071800324 140.95158069281965" stroke-miterlimit="10"/></g><g transform="translate(-70,-6) scale(1,1)"><path fill="none" stroke="#000000" d="M 305 173 L 624 176 L 626 207" stroke-miterlimit="10"/></g><g transform="translate(-70,-6) scale(1,1)"><path fill="none" stroke="#000000" d="M 621.1449195348331 197.1294278951646 L 626 207 L 629.546488149394 196.58739121035424" stroke-miterlimit="10"/></g><g transform="translate(-70,-6) scale(1,1)"><path fill="none" stroke="#000000" d="M 639 217 L 704 216 L 699 255" stroke-miterlimit="10"/></g><g transform="translate(-70,-6) scale(1,1)"><path fill="none" stroke="#000000" d="M 696.1169861174897 244.3845286984867 L 699 255 L 704.4676730762133 245.45512959063075" stroke-miterlimit="10"/></g><g transform="translate(-70,-6) scale(1,1)"><g><path fill="none" stroke="none"/><text fill="#000000" stroke="none" font-family="Arial" font-size="13px" font-style="normal" font-weight="normal" text-decoration="none" x="666.75" y="212.5">item doesn't exist</text></g></g><g transform="translate(-70,-6) scale(1,1)"><path fill="none" stroke="#000000" d="M 615 217 L 560 216 L 563 255" stroke-miterlimit="10"/></g><g transform="translate(-70,-6) scale(1,1)"><path fill="none" stroke="#000000" d="M 558.023439858682 245.19011472239126 L 563 255 L 566.4176769795506 244.54440417463212" stroke-miterlimit="10"/></g><g transform="translate(-70,-6) scale(1,1)"><g><path fill="none" stroke="none"/><text fill="#000000" stroke="none" font-family="Arial" font-size="13px" font-style="normal" font-weight="normal" text-decoration="none" x="495.5" y="219.5">item exists</text></g></g><g transform="translate(-70,-6) scale(1,1)"><path fill="none" stroke="#000000" d="M 527 276 L 330 276" stroke-miterlimit="10"/></g><g transform="translate(-70,-6) scale(1,1)"><path fill="none" stroke="#000000" d="M 340.16267485762415 271.790482243984 L 330 276 L 340.16267485762415 280.209517756016" stroke-miterlimit="10"/></g><g transform="translate(-70,-6) scale(1,1)"><path fill="none" stroke="#000000" d="M 289 297 L 291 335" stroke-miterlimit="10"/></g><g transform="translate(-70,-6) scale(1,1)"><path fill="none" stroke="#000000" d="M 286.2621621840279 325.07261903473307 L 291 335 L 294.66956115212656 324.63012435220156" stroke-miterlimit="10"/></g><g transform="translate(-70,-6) scale(1,1)"><path fill="none" stroke="#000000" d="M 303 345 L 392 344 L 393 375" stroke-miterlimit="10"/></g><g transform="translate(-70,-6) scale(1,1)"><path fill="none" stroke="#000000" d="M 388.4650129238797 364.9783288709207 L 393 375 L 396.8796715000754 364.70688827168857" stroke-miterlimit="10"/></g><g transform="translate(-70,-6) scale(1,1)"><g><path fill="none" stroke="none"/><text fill="#000000" stroke="none" font-family="Arial" font-size="13px" font-style="normal" font-weight="normal" text-decoration="none" x="362.5" y="338.5">wants to book</text></g></g><g transform="translate(-70,-6) scale(1,1)"><path fill="none" stroke="#000000" d="M 279 345 L 192 344 L 195 415" stroke-miterlimit="10"/></g><g transform="translate(-70,-6) scale(1,1)"><path fill="none" stroke="#000000" d="M 190.36520898750038 405.0240934111003 L 195 415 L 198.77673904317362 404.6686766481845" stroke-miterlimit="10"/></g><g transform="translate(-70,-6) scale(1,1)"><g><path fill="none" stroke="none"/><text fill="#000000" stroke="none" font-family="Arial" font-size="13px" font-style="normal" font-weight="normal" text-decoration="none" x="134.5" y="340.5">doesn't want to book</text></g></g><g transform="translate(-70,-6) scale(1,1)"><path fill="none" stroke="#000000" d="M 135 441 L 96 440 L 96 168 L 183 170" stroke-miterlimit="10"/></g><g transform="translate(-70,-6) scale(1,1)"><path fill="none" stroke="#000000" d="M 172.7432644569563 173.97484288998498 L 183 170 L 172.9367543830172 165.55803110633624" stroke-miterlimit="10"/></g><g transform="translate(-70,-6) scale(1,1)"><path fill="none" stroke="#000000" d="M 446 397 L 640 400 L 642 439" stroke-miterlimit="10"/></g><g transform="translate(-70,-6) scale(1,1)"><path fill="none" stroke="#000000" d="M 637.2755276756641 429.06625139956805 L 642 439 L 645.6835145799017 428.6350725839661" stroke-miterlimit="10"/></g><g transform="translate(-70,-6) scale(1,1)"><path fill="none" stroke="#000000" d="M 656 446 L 744 472 L 744 487" stroke-miterlimit="10"/></g><g transform="translate(-70,-6) scale(1,1)"><path fill="none" stroke="#000000" d="M 739.790482243984 476.83732514237585 L 744 487 L 748.209517756016 476.83732514237585" stroke-miterlimit="10"/></g><g transform="translate(-70,-6) scale(1,1)"><path fill="none" stroke="#000000" d="M 628 446 L 536 472 L 535 487" stroke-miterlimit="10"/></g><g transform="translate(-70,-6) scale(1,1)"><path fill="none" stroke="#000000" d="M 531.4758167371174 476.5798209070276 L 535 487 L 539.8762054144906 477.13984681885256" stroke-miterlimit="10"/></g><g transform="translate(-70,-6) scale(1,1)"><path fill="none" stroke="#000000" d="M 710 542 L 688 560 L 690 583" stroke-miterlimit="10"/></g><g transform="translate(-70,-6) scale(1,1)"><path fill="none" stroke="#000000" d="M 684.9259189305699 573.2401997304837 L 690 583 L 693.313303821117 572.5108619139144" stroke-miterlimit="10"/></g><g transform="translate(-70,-6) scale(1,1)"><path fill="none" stroke="#000000" d="M 569 542 L 592 560 L 594 583" stroke-miterlimit="10"/></g><g transform="translate(-70,-6) scale(1,1)"><path fill="none" stroke="#000000" d="M 588.9259189305699 573.2401997304837 L 594 583 L 597.313303821117 572.5108619139144" stroke-miterlimit="10"/></g><g transform="translate(-70,-6) scale(1,1)"><path fill="none" stroke="#000000" d="M 607 593 L 624 592 L 649 679" stroke-miterlimit="10"/></g><g transform="translate(-70,-6) scale(1,1)"><path fill="none" stroke="#000000" d="M 642.1474811007236 670.3951766586955 L 649 679 L 650.2390663536613 668.0700084825639" stroke-miterlimit="10"/></g><g transform="translate(-70,-6) scale(1,1)"><g><path fill="none" stroke="none"/><text fill="#000000" stroke="none" font-family="Arial" font-size="13px" font-style="normal" font-weight="normal" text-decoration="none" x="582.5" y="628.5">in stock</text></g></g><g transform="translate(-70,-6) scale(1,1)"><path fill="none" stroke="#000000" d="M 679 593 L 664 592 L 650 679" stroke-miterlimit="10"/></g><g transform="translate(-70,-6) scale(1,1)"><path fill="none" stroke="#000000" d="M 647.4585504439915 668.2976154921315 L 650 679 L 655.7706524452825 669.6351951245232" stroke-miterlimit="10"/></g><g transform="translate(-70,-6) scale(1,1)"><g><path fill="none" stroke="none"/><text fill="#000000" stroke="none" font-family="Arial" font-size="13px" font-style="normal" font-weight="normal" text-decoration="none" x="655.5" y="627.5">borrowNumb ok</text></g></g><g transform="translate(-70,-6) scale(1,1)"><path fill="#C0C0C0" stroke="none" d="M 737 663 L 815.60986328125 663 Q 825.60986328125 663 825.60986328125 673 L 825.60986328125 693 Q 825.60986328125 703 815.60986328125 703 L 737 703 Q 727 703 727 693 L 727 673 Q 727 663 737 663 Z" opacity="0.2"/></g><g transform="translate(-70,-6) scale(1,1)"><path fill="#ffffff" stroke="none" d="M 730 656 L 808.60986328125 656 Q 818.60986328125 656 818.60986328125 666 L 818.60986328125 686 Q 818.60986328125 696 808.60986328125 696 L 730 696 Q 720 696 720 686 L 720 666 Q 720 656 730 656 Z"/></g><g transform="translate(-70,-6) scale(1,1)"><path fill="none" stroke="#000000" d="M 730 656 L 808.60986328125 656 Q 818.60986328125 656 818.60986328125 666 L 818.60986328125 686 Q 818.60986328125 696 808.60986328125 696 L 730 696 Q 720 696 720 686 L 720 666 Q 720 656 730 656 Z" stroke-miterlimit="10"/></g><g transform="translate(-70,-6) scale(1,1)"><g><path fill="none" stroke="none"/><text fill="#000000" stroke="none" font-family="Arial" font-size="13px" font-style="normal" font-weight="bold" text-decoration="none" x="727.40087890625" y="675.5">error message</text></g></g><g transform="translate(-70,-6) scale(1,1)"><path fill="#C0C0C0" stroke="none" d="M 609 759 L 708.58251953125 759 Q 718.58251953125 759 718.58251953125 769 L 718.58251953125 789 Q 718.58251953125 799 708.58251953125 799 L 609 799 Q 599 799 599 789 L 599 769 Q 599 759 609 759 Z" opacity="0.2"/></g><g transform="translate(-70,-6) scale(1,1)"><path fill="#ffffff" stroke="none" d="M 602 752 L 701.58251953125 752 Q 711.58251953125 752 711.58251953125 762 L 711.58251953125 782 Q 711.58251953125 792 701.58251953125 792 L 602 792 Q 592 792 592 782 L 592 762 Q 592 752 602 752 Z"/></g><g transform="translate(-70,-6) scale(1,1)"><path fill="none" stroke="#000000" d="M 602 752 L 701.58251953125 752 Q 711.58251953125 752 711.58251953125 762 L 711.58251953125 782 Q 711.58251953125 792 701.58251953125 792 L 602 792 Q 592 792 592 782 L 592 762 Q 592 752 602 752 Z" stroke-miterlimit="10"/></g><g transform="translate(-70,-6) scale(1,1)"><g><path fill="none" stroke="none"/><text fill="#000000" stroke="none" font-family="Arial" font-size="13px" font-style="normal" font-weight="bold" text-decoration="none" x="600.130859375" y="771.5">success message</text></g></g><g transform="translate(-70,-6) scale(1,1)"><path fill="none" stroke="#000000" d="M 583 593 L 528 592 L 529 655" stroke-miterlimit="10"/></g><g transform="translate(-70,-6) scale(1,1)"><path fill="none" stroke="#000000" d="M 524.6297204617009 644.9054144831438 L 529 655 L 533.0476955750245 644.7717958305514" stroke-miterlimit="10"/></g><g transform="translate(-70,-6) scale(1,1)"><g><path fill="none" stroke="none"/><text fill="#000000" stroke="none" font-family="Arial" font-size="13px" font-style="normal" font-weight="normal" text-decoration="none" x="503.5" y="588.5">not in stock</text></g></g><g transform="translate(-70,-6) scale(1,1)"><path fill="none" stroke="#000000" d="M 703 593 L 768 592 L 769 655" stroke-miterlimit="10"/></g><g transform="translate(-70,-6) scale(1,1)"><path fill="none" stroke="#000000" d="M 764.6297204617009 644.9054144831438 L 769 655 L 773.0476955750245 644.7717958305514" stroke-miterlimit="10"/></g><g transform="translate(-70,-6) scale(1,1)"><g><path fill="none" stroke="none"/><text fill="#000000" stroke="none" font-family="Arial" font-size="13px" font-style="normal" font-weight="normal" text-decoration="none" x="719.5" y="588.5">borrowNumb not ok</text></g></g><g transform="translate(-70,-6) scale(1,1)"><path fill="none" stroke="#000000" d="M 650 686 L 651 751" stroke-miterlimit="10"/></g><g transform="translate(-70,-6) scale(1,1)"><path fill="none" stroke="#000000" d="M 646.6346499789255 740.9032817612105 L 651 751 L 655.0526893322234 740.7737734634675" stroke-miterlimit="10"/></g><g transform="translate(-70,-6) scale(1,1)"><path fill="#C0C0C0" stroke="none" d="M 361 383 L 441.736328125 383 Q 451.736328125 383 451.736328125 393 L 451.736328125 413 Q 451.736328125 423 441.736328125 423 L 361 423 Q 351 423 351 413 L 351 393 Q 351 383 361 383 Z" opacity="0.2"/></g><g transform="translate(-70,-6) scale(1,1)"><path fill="#ffffff" stroke="none" d="M 354 376 L 434.736328125 376 Q 444.736328125 376 444.736328125 386 L 444.736328125 406 Q 444.736328125 416 434.736328125 416 L 354 416 Q 344 416 344 406 L 344 386 Q 344 376 354 376 Z"/></g><g transform="translate(-70,-6) scale(1,1)"><path fill="none" stroke="#000000" d="M 354 376 L 434.736328125 376 Q 444.736328125 376 444.736328125 386 L 444.736328125 406 Q 444.736328125 416 434.736328125 416 L 354 416 Q 344 416 344 406 L 344 386 Q 344 376 354 376 Z" stroke-miterlimit="10"/></g><g transform="translate(-70,-6) scale(1,1)"><g><path fill="none" stroke="none"/><text fill="#000000" stroke="none" font-family="Arial" font-size="13px" font-style="normal" font-weight="bold" text-decoration="none" x="352.095947265625" y="395.5">books the item</text></g></g><g transform="translate(-70,-6) scale(1,1)"><path fill="#C0C0C0" stroke="none" d="M 225 79 L 281.16455078125 79 Q 291.16455078125 79 291.16455078125 89 L 291.16455078125 109 Q 291.16455078125 119 281.16455078125 119 L 225 119 Q 215 119 215 109 L 215 89 Q 215 79 225 79 Z" opacity="0.2"/></g><g transform="translate(-70,-6) scale(1,1)"><path fill="#ffffff" stroke="none" d="M 218 72 L 274.16455078125 72 Q 284.16455078125 72 284.16455078125 82 L 284.16455078125 102 Q 284.16455078125 112 274.16455078125 112 L 218 112 Q 208 112 208 102 L 208 82 Q 208 72 218 72 Z"/></g><g transform="translate(-70,-6) scale(1,1)"><path fill="none" stroke="#000000" d="M 218 72 L 274.16455078125 72 Q 284.16455078125 72 284.16455078125 82 L 284.16455078125 102 Q 284.16455078125 112 274.16455078125 112 L 218 112 Q 208 112 208 102 L 208 82 Q 208 72 218 72 Z" stroke-miterlimit="10"/></g><g transform="translate(-70,-6) scale(1,1)"><g><path fill="none" stroke="none"/><text fill="#000000" stroke="none" font-family="Arial" font-size="13px" font-style="normal" font-weight="bold" text-decoration="none" x="215.004150390625" y="91.5">Connexion</text></g></g><g transform="translate(-70,-6) scale(1,1)"><path fill="#C0C0C0" stroke="none" d="M 497 663 L 575.60986328125 663 Q 585.60986328125 663 585.60986328125 673 L 585.60986328125 693 Q 585.60986328125 703 575.60986328125 703 L 497 703 Q 487 703 487 693 L 487 673 Q 487 663 497 663 Z" opacity="0.2"/></g><g transform="translate(-70,-6) scale(1,1)"><path fill="#ffffff" stroke="none" d="M 490 656 L 568.60986328125 656 Q 578.60986328125 656 578.60986328125 666 L 578.60986328125 686 Q 578.60986328125 696 568.60986328125 696 L 490 696 Q 480 696 480 686 L 480 666 Q 480 656 490 656 Z"/></g><g transform="translate(-70,-6) scale(1,1)"><path fill="none" stroke="#000000" d="M 490 656 L 568.60986328125 656 Q 578.60986328125 656 578.60986328125 666 L 578.60986328125 686 Q 578.60986328125 696 568.60986328125 696 L 490 696 Q 480 696 480 686 L 480 666 Q 480 656 490 656 Z" stroke-miterlimit="10"/></g><g transform="translate(-70,-6) scale(1,1)"><g><path fill="none" stroke="none"/><text fill="#000000" stroke="none" font-family="Arial" font-size="13px" font-style="normal" font-weight="bold" text-decoration="none" x="487.40087890625" y="675.5">error message</text></g></g><g transform="translate(-70,-6) scale(1,1)"><path fill="#C0C0C0" stroke="none" d="M 591 600.5 L 602.5 591 L 613 600.5 L 602.5 609 L 591 600.5" opacity="0.2"/></g><g transform="translate(-70,-6) scale(1,1)"><path fill="#ffffff" stroke="none" d="M 584 593 L 595 584 L 606 593 L 595 602 L 584 593"/></g><g transform="translate(-70,-6) scale(1,1)"><path fill="none" stroke="#000000" d="M 584 593 L 595 584 L 606 593 L 595 602 L 584 593 L 584 593" stroke-miterlimit="10"/></g><g transform="translate(-70,-6) scale(1,1)"><path fill="#C0C0C0" stroke="none" d="M 519 779.5 C 519 772.59644 524.59644 767 531.5 767 C 538.40356 767 544 772.59644 544 779.5 C 544 786.40356 538.40356 792 531.5 792 C 524.59644 792 519 786.40356 519 779.5 Z" opacity="0.2"/></g><g transform="translate(-70,-6) scale(1,1)"><path fill="none" stroke="#000000" d="M 512 772.5 C 512 765.59644 517.59644 760 524.5 760 C 531.40356 760 537 765.59644 537 772.5 C 537 779.40356 531.40356 785 524.5 785 C 517.59644 785 512 779.40356 512 772.5 Z" stroke-miterlimit="10"/></g><g transform="translate(-70,-6) scale(1,1)"><path fill="#000000" stroke="none" d="M 517 772.5 C 517 768.357864 520.357864 765 524.5 765 C 528.642136 765 532 768.357864 532 772.5 C 532 776.642136 528.642136 780 524.5 780 C 520.357864 780 517 776.642136 517 772.5 Z"/></g><g transform="translate(-70,-6) scale(1,1)"><path fill="#C0C0C0" stroke="none" d="M 767 779.5 C 767 772.59644 772.59644 767 779.5 767 C 786.40356 767 792 772.59644 792 779.5 C 792 786.40356 786.40356 792 779.5 792 C 772.59644 792 767 786.40356 767 779.5 Z" opacity="0.2"/></g><g transform="translate(-70,-6) scale(1,1)"><path fill="none" stroke="#000000" d="M 760 772.5 C 760 765.59644 765.59644 760 772.5 760 C 779.40356 760 785 765.59644 785 772.5 C 785 779.40356 779.40356 785 772.5 785 C 765.59644 785 760 779.40356 760 772.5 Z" stroke-miterlimit="10"/></g><g transform="translate(-70,-6) scale(1,1)"><path fill="#000000" stroke="none" d="M 765 772.5 C 765 768.357864 768.357864 765 772.5 765 C 776.642136 765 780 768.357864 780 772.5 C 780 776.642136 776.642136 780 772.5 780 C 768.357864 780 765 776.642136 765 772.5 Z"/></g><g transform="translate(-70,-6) scale(1,1)"><path fill="#C0C0C0" stroke="none" d="M 647 859.5 C 647 852.59644 652.59644 847 659.5 847 C 666.40356 847 672 852.59644 672 859.5 C 672 866.40356 666.40356 872 659.5 872 C 652.59644 872 647 866.40356 647 859.5 Z" opacity="0.2"/></g><g transform="translate(-70,-6) scale(1,1)"><path fill="none" stroke="#000000" d="M 640 852.5 C 640 845.59644 645.59644 840 652.5 840 C 659.40356 840 665 845.59644 665 852.5 C 665 859.40356 659.40356 865 652.5 865 C 645.59644 865 640 859.40356 640 852.5 Z" stroke-miterlimit="10"/></g><g transform="translate(-70,-6) scale(1,1)"><path fill="#000000" stroke="none" d="M 645 852.5 C 645 848.357864 648.357864 845 652.5 845 C 656.642136 845 660 848.357864 660 852.5 C 660 856.642136 656.642136 860 652.5 860 C 648.357864 860 645 856.642136 645 852.5 Z"/></g><g transform="translate(-70,-6) scale(1,1)"><path fill="none" stroke="#000000" d="M 528 697 L 525 759" stroke-miterlimit="10"/></g><g transform="translate(-70,-6) scale(1,1)"><path fill="none" stroke="#000000" d="M 521.2865691827315 748.6457529696573 L 525 759 L 529.6957661768784 749.0526495984063" stroke-miterlimit="10"/></g><g transform="translate(-70,-6) scale(1,1)"><path fill="none" stroke="#000000" d="M 651 793 L 652 839" stroke-miterlimit="10"/></g><g transform="translate(-70,-6) scale(1,1)"><path fill="none" stroke="#000000" d="M 647.570601050423 828.9312153193404 L 652 839 L 655.9876478921751 828.7482360401718" stroke-miterlimit="10"/></g><g transform="translate(-70,-6) scale(1,1)"><path fill="none" stroke="#000000" d="M 770 697 L 772 759" stroke-miterlimit="10"/></g><g transform="translate(-70,-6) scale(1,1)"><path fill="none" stroke="#000000" d="M 767.4650129238797 748.9783288709207 L 772 759 L 775.8796715000755 748.7068882716885" stroke-miterlimit="10"/></g></g></svg>