<svg version="1.1" xmlns="http://www.w3.org/2000/svg" xmlns:xlink="http://www.w3.org/1999/xlink" width="1244" height="876"><defs/><g><g transform="translate(-70,-6) scale(1,1)"><rect fill="#ffffff" stroke="none" x="80" y="16" width="392" height="21"/></g><g transform="translate(-70,-6) scale(1,1)"><path fill="none" stroke="#000000" d="M 80 16 L 472 16 L 472 37 L 80 37 L 80 16 Z Z" stroke-miterlimit="10" stroke-width="2"/></g><g transform="translate(-70,-6) scale(1,1)"><path fill="none" stroke="#000000" d="M 80 872 L 80 16 L 472 16 L 472 872" stroke-miterlimit="10" stroke-width="2"/></g><g transform="translate(-70,-6) scale(1,1)"><g><path fill="none" stroke="none"/><text fill="#000000" stroke="none" font-family="Arial" font-size="13px" font-style="normal" font-weight="normal" text-decoration="none" x="252.161376953125" y="33">member</text></g></g><g transform="translate(-70,-6) scale(1,1)"><rect fill="#ffffff" stroke="none" x="472" y="16" width="832" height="21"/></g><g transform="translate(-70,-6) scale(1,1)"><path fill="none" stroke="#000000" d="M 472 16 L 1304 16 L 1304 37 L 472 37 L 472 16 Z Z" stroke-miterlimit="10" stroke-width="2"/></g><g transform="translate(-70,-6) scale(1,1)"><path fill="none" stroke="#000000" d="M 472 872 L 472 16 L 1304 16 L 1304 872" stroke-miterlimit="10" stroke-width="2"/></g><g transform="translate(-70,-6) scale(1,1)"><g><path fill="none" stroke="none"/><text fill="#000000" stroke="none" font-family="Arial" font-size="13px" font-style="normal" font-weight="normal" text-decoration="none" x="846.457763671875" y="33">library website</text></g></g><g transform="translate(-70,-6) scale(1,1)"><path fill="#C0C0C0" stroke="none" d="M 201 159 L 300.5380859375 159 Q 310.5380859375 159 310.5380859375 169 L 310.5380859375 189 Q 310.5380859375 199 300.5380859375 199 L 201 199 Q 191 199 191 189 L 191 169 Q 191 159 201 159 Z" opacity="0.2"/></g><g transform="translate(-70,-6) scale(1,1)"><path fill="#ffffff" stroke="none" d="M 194 152 L 293.5380859375 152 Q 303.5380859375 152 303.5380859375 162 L 303.5380859375 182 Q 303.5380859375 192 293.5380859375 192 L 194 192 Q 184 192 184 182 L 184 162 Q 184 152 194 152 Z"/></g><g transform="translate(-70,-6) scale(1,1)"><path fill="none" stroke="#000000" d="M 194 152 L 293.5380859375 152 Q 303.5380859375 152 303.5380859375 162 L 303.5380859375 182 Q 303.5380859375 192 293.5380859375 192 L 194 192 Q 184 192 184 182 L 184 162 Q 184 152 194 152 Z" stroke-miterlimit="10"/></g><g transform="translate(-70,-6) scale(1,1)"><g><path fill="none" stroke="none"/><text fill="#000000" stroke="none" font-family="Arial" font-size="13px" font-style="normal" font-weight="bold" text-decoration="none" x="192.464111328125" y="171.5">searching an item</text></g></g><g transform="translate(-70,-6) scale(1,1)"><path fill="#C0C0C0" stroke="none" d="M 545 263 L 597.5654296875 263 Q 607.5654296875 263 607.5654296875 273 L 607.5654296875 293 Q 607.5654296875 303 597.5654296875 303 L 545 303 Q 535 303 535 293 L 535 273 Q 535 263 545 263 Z" opacity="0.2"/></g><g transform="translate(-70,-6) scale(1,1)"><path fill="#ffffff" stroke="none" d="M 538 256 L 590.5654296875 256 Q 600.5654296875 256 600.5654296875 266 L 600.5654296875 286 Q 600.5654296875 296 590.5654296875 296 L 538 296 Q 528 296 528 286 L 528 266 Q 528 256 538 256 Z"/></g><g transform="translate(-70,-6) scale(1,1)"><path fill="none" stroke="#000000" d="M 538 256 L 590.5654296875 256 Q 600.5654296875 256 600.5654296875 266 L 600.5654296875 286 Q 600.5654296875 296 590.5654296875 296 L 538 296 Q 528 296 528 286 L 528 266 Q 528 256 538 256 Z" stroke-miterlimit="10"/></g><g transform="translate(-70,-6) scale(1,1)"><g><path fill="none" stroke="none"/><text fill="#000000" stroke="none" font-family="Arial" font-size="13px" font-style="normal" font-weight="bold" text-decoration="none" x="535.023193359375" y="275.5">show item</text></g></g><g transform="translate(-70,-6) scale(1,1)"><path fill="#C0C0C0" stroke="none" d="M 665 263 L 743.60986328125 263 Q 753.60986328125 263 753.60986328125 273 L 753.60986328125 293 Q 753.60986328125 303 743.60986328125 303 L 665 303 Q 655 303 655 293 L 655 273 Q 655 263 665 263 Z" opacity="0.2"/></g><g transform="translate(-70,-6) scale(1,1)"><path fill="#ffffff" stroke="none" d="M 658 256 L 736.60986328125 256 Q 746.60986328125 256 746.60986328125 266 L 746.60986328125 286 Q 746.60986328125 296 736.60986328125 296 L 658 296 Q 648 296 648 286 L 648 266 Q 648 256 658 256 Z"/></g><g transform="translate(-70,-6) scale(1,1)"><path fill="none" stroke="#000000" d="M 658 256 L 736.60986328125 256 Q 746.60986328125 256 746.60986328125 266 L 746.60986328125 286 Q 746.60986328125 296 736.60986328125 296 L 658 296 Q 648 296 648 286 L 648 266 Q 648 256 658 256 Z" stroke-miterlimit="10"/></g><g transform="translate(-70,-6) scale(1,1)"><g><path fill="none" stroke="none"/><text fill="#000000" stroke="none" font-family="Arial" font-size="13px" font-style="normal" font-weight="bold" text-decoration="none" x="655.40087890625" y="275.5">error message</text></g></g><g transform="translate(-70,-6) scale(1,1)"><path fill="#C0C0C0" stroke="none" d="M 623 224.5 L 634.5 215 L 645 224.5 L 634.5 233 L 623 224.5" opacity="0.2"/></g><g transform="translate(-70,-6) scale(1,1)"><path fill="#ffffff" stroke="none" d="M 616 217 L 627 208 L 638 217 L 627 226 L 616 217"/></g><g transform="translate(-70,-6) scale(1,1)"><path fill="none" stroke="#000000" d="M 616 217 L 627 208 L 638 217 L 627 226 L 616 217 L 616 217" stroke-miterlimit="10"/></g><g transform="translate(-70,-6) scale(1,1)"><path fill="#C0C0C0" stroke="none" d="M 265 263 L 325.51904296875 263 Q 335.51904296875 263 335.51904296875 273 L 335.51904296875 293 Q 335.51904296875 303 325.51904296875 303 L 265 303 Q 255 303 255 293 L 255 273 Q 255 263 265 263 Z" opacity="0.2"/></g><g transform="translate(-70,-6) scale(1,1)"><path fill="#ffffff" stroke="none" d="M 258 256 L 318.51904296875 256 Q 328.51904296875 256 328.51904296875 266 L 328.51904296875 286 Q 328.51904296875 296 318.51904296875 296 L 258 296 Q 248 296 248 286 L 248 266 Q 248 256 258 256 Z"/></g><g transform="translate(-70,-6) scale(1,1)"><path fill="none" stroke="#000000" d="M 258 256 L 318.51904296875 256 Q 328.51904296875 256 328.51904296875 266 L 328.51904296875 286 Q 328.51904296875 296 318.51904296875 296 L 258 296 Q 248 296 248 286 L 248 266 Q 248 256 258 256 Z" stroke-miterlimit="10"/></g><g transform="translate(-70,-6) scale(1,1)"><g><path fill="none" stroke="none"/><text fill="#000000" stroke="none" font-family="Arial" font-size="13px" font-style="normal" font-weight="bold" text-decoration="none" x="255.740478515625" y="275.5">look details</text></g></g><g transform="translate(-70,-6) scale(1,1)"><path fill="#C0C0C0" stroke="none" d="M 287 352.5 L 298.5 343 L 309 352.5 L 298.5 361 L 287 352.5" opacity="0.2"/></g><g transform="translate(-70,-6) scale(1,1)"><path fill="#ffffff" stroke="none" d="M 280 345 L 291 336 L 302 345 L 291 354 L 280 345"/></g><g transform="translate(-70,-6) scale(1,1)"><path fill="none" stroke="#000000" d="M 280 345 L 291 336 L 302 345 L 291 354 L 280 345 L 280 345" stroke-miterlimit="10"/></g><g transform="translate(-70,-6) scale(1,1)"><path fill="#C0C0C0" stroke="none" d="M 153 423 L 253 423 Q 263 423 263 433 L 263 466 Q 263 476 253 476 L 153 476 Q 143 476 143 466 L 143 433 Q 143 423 153 423 Z" opacity="0.2"/></g><g transform="translate(-70,-6) scale(1,1)"><path fill="#ffffff" stroke="none" d="M 146 416 L 246 416 Q 256 416 256 426 L 256 459 Q 256 469 246 469 L 146 469 Q 136 469 136 459 L 136 426 Q 136 416 146 416 Z"/></g><g transform="translate(-70,-6) scale(1,1)"><path fill="none" stroke="#000000" d="M 146 416 L 246 416 Q 256 416 256 426 L 256 459 Q 256 469 246 469 L 146 469 Q 136 469 136 459 L 136 426 Q 136 416 146 416 Z" stroke-miterlimit="10"/></g><g transform="translate(-70,-6) scale(1,1)"><g><path fill="none" stroke="none"/><text fill="#000000" stroke="none" font-family="Arial" font-size="13px" font-style="normal" font-weight="bold" text-decoration="none" x="147.221435546875" y="435.5">leave description</text><text fill="#000000" stroke="none" font-family="Arial" font-size="13px" font-style="normal" font-weight="bold" text-decoration="none" x="181.5400390625" y="448.5">page</text></g></g><g transform="translate(-70,-6) scale(1,1)"><path fill="#C0C0C0" stroke="none" d="M 897 487 L 1021 487 Q 1031 487 1031 497 L 1031 530 Q 1031 540 1021 540 L 897 540 Q 887 540 887 530 L 887 497 Q 887 487 897 487 Z" opacity="0.2"/></g><g transform="translate(-70,-6) scale(1,1)"><path fill="#ffffff" stroke="none" d="M 890 480 L 1014 480 Q 1024 480 1024 490 L 1024 523 Q 1024 533 1014 533 L 890 533 Q 880 533 880 523 L 880 490 Q 880 480 890 480 Z"/></g><g transform="translate(-70,-6) scale(1,1)"><path fill="none" stroke="#000000" d="M 890 480 L 1014 480 Q 1024 480 1024 490 L 1024 523 Q 1024 533 1014 533 L 890 533 Q 880 533 880 523 L 880 490 Q 880 480 890 480 Z" stroke-miterlimit="10"/></g><g transform="translate(-70,-6) scale(1,1)"><g><path fill="none" stroke="none"/><text fill="#000000" stroke="none" font-family="Arial" font-size="13px" font-style="normal" font-weight="bold" text-decoration="none" x="894.042724609375" y="499.5">check user's current</text><text fill="#000000" stroke="none" font-family="Arial" font-size="13px" font-style="normal" font-weight="bold" text-decoration="none" x="897.81005859375" y="512.5">number of borrows</text></g></g><g transform="translate(-70,-6) scale(1,1)"><path fill="#C0C0C0" stroke="none" d="M 705 487 L 789 487 Q 799 487 799 497 L 799 530 Q 799 540 789 540 L 705 540 Q 695 540 695 530 L 695 497 Q 695 487 705 487 Z" opacity="0.2"/></g><g transform="translate(-70,-6) scale(1,1)"><path fill="#ffffff" stroke="none" d="M 698 480 L 782 480 Q 792 480 792 490 L 792 523 Q 792 533 782 533 L 698 533 Q 688 533 688 523 L 688 490 Q 688 480 698 480 Z"/></g><g transform="translate(-70,-6) scale(1,1)"><path fill="none" stroke="#000000" d="M 698 480 L 782 480 Q 792 480 792 490 L 792 523 Q 792 533 782 533 L 698 533 Q 688 533 688 523 L 688 490 Q 688 480 698 480 Z" stroke-miterlimit="10"/></g><g transform="translate(-70,-6) scale(1,1)"><g><path fill="none" stroke="none"/><text fill="#000000" stroke="none" font-family="Arial" font-size="13px" font-style="normal" font-weight="bold" text-decoration="none" x="698.0927734375" y="499.5">checks if there</text><text fill="#000000" stroke="none" font-family="Arial" font-size="13px" font-style="normal" font-weight="bold" text-decoration="none" x="707.135009765625" y="512.5">is still stock</text></g></g><g transform="translate(-70,-6) scale(1,1)"><path fill="#C0C0C0" stroke="none" d="M 826 439 L 889 439 Q 892 439 892 442 L 892 441 Q 892 444 889 444 L 826 444 Q 823 444 823 441 L 823 442 Q 823 439 826 439 Z" opacity="0.2"/></g><g transform="translate(-70,-6) scale(1,1)"><path fill="#000000" stroke="none" d="M 819 432 L 882 432 Q 885 432 885 435 L 885 435 Q 885 438 882 438 L 819 438 Q 816 438 816 435 L 816 435 Q 816 432 819 432 Z"/></g><g transform="translate(-70,-6) scale(1,1)"><path fill="#C0C0C0" stroke="none" d="M 895 592.5 L 906.5 583 L 917 592.5 L 906.5 601 L 895 592.5" opacity="0.2"/></g><g transform="translate(-70,-6) scale(1,1)"><path fill="#ffffff" stroke="none" d="M 888 585 L 899 576 L 910 585 L 899 594 L 888 585"/></g><g transform="translate(-70,-6) scale(1,1)"><path fill="none" stroke="#000000" d="M 888 585 L 899 576 L 910 585 L 899 594 L 888 585 L 888 585" stroke-miterlimit="10"/></g><g transform="translate(-70,-6) scale(1,1)"><path fill="#C0C0C0" stroke="none" d="M 834 679 L 897 679 Q 900 679 900 682 L 900 681 Q 900 684 897 684 L 834 684 Q 831 684 831 681 L 831 682 Q 831 679 834 679 Z" opacity="0.2"/></g><g transform="translate(-70,-6) scale(1,1)"><path fill="#000000" stroke="none" d="M 827 672 L 890 672 Q 893 672 893 675 L 893 675 Q 893 678 890 678 L 827 678 Q 824 678 824 675 L 824 675 Q 824 672 827 672 Z"/></g><g transform="translate(-70,-6) scale(1,1)"><path fill="none" stroke="#000000" d="M 245 113 L 244 151" stroke-miterlimit="10"/></g><g transform="translate(-70,-6) scale(1,1)"><path fill="none" stroke="#000000" d="M 240.0592853332588 140.73010380211508 L 244 151 L 248.4754071800324 140.95158069281965" stroke-miterlimit="10"/></g><g transform="translate(-70,-6) scale(1,1)"><path fill="none" stroke="#000000" d="M 305 173 L 624 176 L 626 207" stroke-miterlimit="10"/></g><g transform="translate(-70,-6) scale(1,1)"><path fill="none" stroke="#000000" d="M 621.1449195348331 197.1294278951646 L 626 207 L 629.546488149394 196.58739121035424" stroke-miterlimit="10"/></g><g transform="translate(-70,-6) scale(1,1)"><path fill="none" stroke="#000000" d="M 639 217 L 704 216 L 699 255" stroke-miterlimit="10"/></g><g transform="translate(-70,-6) scale(1,1)"><path fill="none" stroke="#000000" d="M 696.1169861174897 244.3845286984867 L 699 255 L 704.4676730762133 245.45512959063075" stroke-miterlimit="10"/></g><g transform="translate(-70,-6) scale(1,1)"><g><path fill="none" stroke="none"/><text fill="#000000" stroke="none" font-family="Arial" font-size="13px" font-style="normal" font-weight="normal" text-decoration="none" x="666.75" y="212.5">item doesn't exist</text></g></g><g transform="translate(-70,-6) scale(1,1)"><path fill="none" stroke="#000000" d="M 615 217 L 560 216 L 563 255" stroke-miterlimit="10"/></g><g transform="translate(-70,-6) scale(1,1)"><path fill="none" stroke="#000000" d="M 558.023439858682 245.19011472239126 L 563 255 L 566.4176769795506 244.54440417463212" stroke-miterlimit="10"/></g><g transform="translate(-70,-6) scale(1,1)"><g><path fill="none" stroke="none"/><text fill="#000000" stroke="none" font-family="Arial" font-size="13px" font-style="normal" font-weight="normal" text-decoration="none" x="495.5" y="219.5">item exists</text></g></g><g transform="translate(-70,-6) scale(1,1)"><path fill="none" stroke="#000000" d="M 527 276 L 330 276" stroke-miterlimit="10"/></g><g transform="translate(-70,-6) scale(1,1)"><path fill="none" stroke="#000000" d="M 340.16267485762415 271.790482243984 L 330 276 L 340.16267485762415 280.209517756016" stroke-miterlimit="10"/></g><g transform="translate(-70,-6) scale(1,1)"><path fill="none" stroke="#000000" d="M 289 297 L 291 335" stroke-miterlimit="10"/></g><g transform="translate(-70,-6) scale(1,1)"><path fill="none" stroke="#000000" d="M 286.2621621840279 325.07261903473307 L 291 335 L 294.66956115212656 324.63012435220156" stroke-miterlimit="10"/></g><g transform="translate(-70,-6) scale(1,1)"><path fill="none" stroke="#000000" d="M 303 345 L 392 344 L 393 375" stroke-miterlimit="10"/></g><g transform="translate(-70,-6) scale(1,1)"><path fill="none" stroke="#000000" d="M 388.4650129238797 364.9783288709207 L 393 375 L 396.8796715000754 364.70688827168857" stroke-miterlimit="10"/></g><g transform="translate(-70,-6) scale(1,1)"><g><path fill="none" stroke="none"/><text fill="#000000" stroke="none" font-family="Arial" font-size="13px" font-style="normal" font-weight="normal" text-decoration="none" x="362.5" y="338.5">wants to book</text></g></g><g transform="translate(-70,-6) scale(1,1)"><path fill="none" stroke="#000000" d="M 279 345 L 192 344 L 195 415" stroke-miterlimit="10"/></g><g transform="translate(-70,-6) scale(1,1)"><path fill="none" stroke="#000000" d="M 190.36520898750038 405.0240934111003 L 195 415 L 198.77673904317362 404.6686766481845" stroke-miterlimit="10"/></g><g transform="translate(-70,-6) scale(1,1)"><g><path fill="none" stroke="none"/><text fill="#000000" stroke="none" font-family="Arial" font-size="13px" font-style="normal" font-weight="normal" text-decoration="none" x="134.5" y="340.5">doesn't want to book</text></g></g><g transform="translate(-70,-6) scale(1,1)"><path fill="none" stroke="#000000" d="M 135 441 L 96 440 L 96 168 L 183 170" stroke-miterlimit="10"/></g><g transform="translate(-70,-6) scale(1,1)"><path fill="none" stroke="#000000" d="M 172.7432644569563 173.97484288998498 L 183 170 L 172.9367543830172 165.55803110633624" stroke-miterlimit="10"/></g><g transform="translate(-70,-6) scale(1,1)"><path fill="none" stroke="#000000" d="M 446 396 L 848 392 L 850 431" stroke-miterlimit="10"/></g><g transform="translate(-70,-6) scale(1,1)"><path fill="none" stroke="#000000" d="M 845.2755276756641 421.06625139956805 L 850 431 L 853.6835145799017 420.6350725839661" stroke-miterlimit="10"/></g><g transform="translate(-70,-6) scale(1,1)"><path fill="none" stroke="#000000" d="M 864 438 L 952 464 L 952 479" stroke-miterlimit="10"/></g><g transform="translate(-70,-6) scale(1,1)"><path fill="none" stroke="#000000" d="M 947.790482243984 468.83732514237585 L 952 479 L 956.209517756016 468.83732514237585" stroke-miterlimit="10"/></g><g transform="translate(-70,-6) scale(1,1)"><path fill="none" stroke="#000000" d="M 836 438 L 744 464 L 743 479" stroke-miterlimit="10"/></g><g transform="translate(-70,-6) scale(1,1)"><path fill="none" stroke="#000000" d="M 739.4758167371174 468.5798209070276 L 743 479 L 747.8762054144906 469.13984681885256" stroke-miterlimit="10"/></g><g transform="translate(-70,-6) scale(1,1)"><path fill="none" stroke="#000000" d="M 918 534 L 896 552 L 898 575" stroke-miterlimit="10"/></g><g transform="translate(-70,-6) scale(1,1)"><path fill="none" stroke="#000000" d="M 892.9259189305699 565.2401997304837 L 898 575 L 901.313303821117 564.5108619139144" stroke-miterlimit="10"/></g><g transform="translate(-70,-6) scale(1,1)"><path fill="none" stroke="#000000" d="M 777 534 L 800 552 L 802 575" stroke-miterlimit="10"/></g><g transform="translate(-70,-6) scale(1,1)"><path fill="none" stroke="#000000" d="M 796.9259189305699 565.2401997304837 L 802 575 L 805.313303821117 564.5108619139144" stroke-miterlimit="10"/></g><g transform="translate(-70,-6) scale(1,1)"><path fill="none" stroke="#000000" d="M 815 585 L 832 584 L 857 671" stroke-miterlimit="10"/></g><g transform="translate(-70,-6) scale(1,1)"><path fill="none" stroke="#000000" d="M 850.1474811007236 662.3951766586955 L 857 671 L 858.2390663536613 660.0700084825639" stroke-miterlimit="10"/></g><g transform="translate(-70,-6) scale(1,1)"><g><path fill="none" stroke="none"/><text fill="#000000" stroke="none" font-family="Arial" font-size="13px" font-style="normal" font-weight="normal" text-decoration="none" x="790.5" y="620.5">in stock</text></g></g><g transform="translate(-70,-6) scale(1,1)"><path fill="none" stroke="#000000" d="M 887 585 L 872 584 L 858 671" stroke-miterlimit="10"/></g><g transform="translate(-70,-6) scale(1,1)"><path fill="none" stroke="#000000" d="M 855.4585504439915 660.2976154921315 L 858 671 L 863.7706524452825 661.6351951245232" stroke-miterlimit="10"/></g><g transform="translate(-70,-6) scale(1,1)"><g><path fill="none" stroke="none"/><text fill="#000000" stroke="none" font-family="Arial" font-size="13px" font-style="normal" font-weight="normal" text-decoration="none" x="863.5" y="619.5">borrowNumb ok</text></g></g><g transform="translate(-70,-6) scale(1,1)"><path fill="#C0C0C0" stroke="none" d="M 945 655 L 1023.60986328125 655 Q 1033.60986328125 655 1033.60986328125 665 L 1033.60986328125 685 Q 1033.60986328125 695 1023.60986328125 695 L 945 695 Q 935 695 935 685 L 935 665 Q 935 655 945 655 Z" opacity="0.2"/></g><g transform="translate(-70,-6) scale(1,1)"><path fill="#ffffff" stroke="none" d="M 938 648 L 1016.60986328125 648 Q 1026.60986328125 648 1026.60986328125 658 L 1026.60986328125 678 Q 1026.60986328125 688 1016.60986328125 688 L 938 688 Q 928 688 928 678 L 928 658 Q 928 648 938 648 Z"/></g><g transform="translate(-70,-6) scale(1,1)"><path fill="none" stroke="#000000" d="M 938 648 L 1016.60986328125 648 Q 1026.60986328125 648 1026.60986328125 658 L 1026.60986328125 678 Q 1026.60986328125 688 1016.60986328125 688 L 938 688 Q 928 688 928 678 L 928 658 Q 928 648 938 648 Z" stroke-miterlimit="10"/></g><g transform="translate(-70,-6) scale(1,1)"><g><path fill="none" stroke="none"/><text fill="#000000" stroke="none" font-family="Arial" font-size="13px" font-style="normal" font-weight="bold" text-decoration="none" x="935.40087890625" y="667.5">error message</text></g></g><g transform="translate(-70,-6) scale(1,1)"><path fill="#C0C0C0" stroke="none" d="M 817 751 L 916.58251953125 751 Q 926.58251953125 751 926.58251953125 761 L 926.58251953125 781 Q 926.58251953125 791 916.58251953125 791 L 817 791 Q 807 791 807 781 L 807 761 Q 807 751 817 751 Z" opacity="0.2"/></g><g transform="translate(-70,-6) scale(1,1)"><path fill="#ffffff" stroke="none" d="M 810 744 L 909.58251953125 744 Q 919.58251953125 744 919.58251953125 754 L 919.58251953125 774 Q 919.58251953125 784 909.58251953125 784 L 810 784 Q 800 784 800 774 L 800 754 Q 800 744 810 744 Z"/></g><g transform="translate(-70,-6) scale(1,1)"><path fill="none" stroke="#000000" d="M 810 744 L 909.58251953125 744 Q 919.58251953125 744 919.58251953125 754 L 919.58251953125 774 Q 919.58251953125 784 909.58251953125 784 L 810 784 Q 800 784 800 774 L 800 754 Q 800 744 810 744 Z" stroke-miterlimit="10"/></g><g transform="translate(-70,-6) scale(1,1)"><g><path fill="none" stroke="none"/><text fill="#000000" stroke="none" font-family="Arial" font-size="13px" font-style="normal" font-weight="bold" text-decoration="none" x="808.130859375" y="763.5">success message</text></g></g><g transform="translate(-70,-6) scale(1,1)"><path fill="none" stroke="#000000" d="M 791 585 L 736 584 L 737 647" stroke-miterlimit="10"/></g><g transform="translate(-70,-6) scale(1,1)"><path fill="none" stroke="#000000" d="M 732.6297204617009 636.9054144831438 L 737 647 L 741.0476955750245 636.7717958305514" stroke-miterlimit="10"/></g><g transform="translate(-70,-6) scale(1,1)"><g><path fill="none" stroke="none"/><text fill="#000000" stroke="none" font-family="Arial" font-size="13px" font-style="normal" font-weight="normal" text-decoration="none" x="711.5" y="580.5">not in stock</text></g></g><g transform="translate(-70,-6) scale(1,1)"><path fill="none" stroke="#000000" d="M 911 585 L 976 584 L 977 647" stroke-miterlimit="10"/></g><g transform="translate(-70,-6) scale(1,1)"><path fill="none" stroke="#000000" d="M 972.6297204617009 636.9054144831438 L 977 647 L 981.0476955750245 636.7717958305514" stroke-miterlimit="10"/></g><g transform="translate(-70,-6) scale(1,1)"><g><path fill="none" stroke="none"/><text fill="#000000" stroke="none" font-family="Arial" font-size="13px" font-style="normal" font-weight="normal" text-decoration="none" x="927.5" y="580.5">borrowNumb not ok</text></g></g><g transform="translate(-70,-6) scale(1,1)"><path fill="none" stroke="#000000" d="M 858 678 L 859 743" stroke-miterlimit="10"/></g><g transform="translate(-70,-6) scale(1,1)"><path fill="none" stroke="#000000" d="M 854.6346499789255 732.9032817612105 L 859 743 L 863.0526893322234 732.7737734634675" stroke-miterlimit="10"/></g><g transform="translate(-70,-6) scale(1,1)"><path fill="#C0C0C0" stroke="none" d="M 361 383 L 441.736328125 383 Q 451.736328125 383 451.736328125 393 L 451.736328125 413 Q 451.736328125 423 441.736328125 423 L 361 423 Q 351 423 351 413 L 351 393 Q 351 383 361 383 Z" opacity="0.2"/></g><g transform="translate(-70,-6) scale(1,1)"><path fill="#ffffff" stroke="none" d="M 354 376 L 434.736328125 376 Q 444.736328125 376 444.736328125 386 L 444.736328125 406 Q 444.736328125 416 434.736328125 416 L 354 416 Q 344 416 344 406 L 344 386 Q 344 376 354 376 Z"/></g><g transform="translate(-70,-6) scale(1,1)"><path fill="none" stroke="#000000" d="M 354 376 L 434.736328125 376 Q 444.736328125 376 444.736328125 386 L 444.736328125 406 Q 444.736328125 416 434.736328125 416 L 354 416 Q 344 416 344 406 L 344 386 Q 344 376 354 376 Z" stroke-miterlimit="10"/></g><g transform="translate(-70,-6) scale(1,1)"><g><path fill="none" stroke="none"/><text fill="#000000" stroke="none" font-family="Arial" font-size="13px" font-style="normal" font-weight="bold" text-decoration="none" x="352.095947265625" y="395.5">books the item</text></g></g><g transform="translate(-70,-6) scale(1,1)"><path fill="#C0C0C0" stroke="none" d="M 225 79 L 281.16455078125 79 Q 291.16455078125 79 291.16455078125 89 L 291.16455078125 109 Q 291.16455078125 119 281.16455078125 119 L 225 119 Q 215 119 215 109 L 215 89 Q 215 79 225 79 Z" opacity="0.2"/></g><g transform="translate(-70,-6) scale(1,1)"><path fill="#ffffff" stroke="none" d="M 218 72 L 274.16455078125 72 Q 284.16455078125 72 284.16455078125 82 L 284.16455078125 102 Q 284.16455078125 112 274.16455078125 112 L 218 112 Q 208 112 208 102 L 208 82 Q 208 72 218 72 Z"/></g><g transform="translate(-70,-6) scale(1,1)"><path fill="none" stroke="#000000" d="M 218 72 L 274.16455078125 72 Q 284.16455078125 72 284.16455078125 82 L 284.16455078125 102 Q 284.16455078125 112 274.16455078125 112 L 218 112 Q 208 112 208 102 L 208 82 Q 208 72 218 72 Z" stroke-miterlimit="10"/></g><g transform="translate(-70,-6) scale(1,1)"><g><path fill="none" stroke="none"/><text fill="#000000" stroke="none" font-family="Arial" font-size="13px" font-style="normal" font-weight="bold" text-decoration="none" x="215.004150390625" y="91.5">Connexion</text></g></g><g transform="translate(-70,-6) scale(1,1)"><path fill="#C0C0C0" stroke="none" d="M 705 655 L 783.60986328125 655 Q 793.60986328125 655 793.60986328125 665 L 793.60986328125 685 Q 793.60986328125 695 783.60986328125 695 L 705 695 Q 695 695 695 685 L 695 665 Q 695 655 705 655 Z" opacity="0.2"/></g><g transform="translate(-70,-6) scale(1,1)"><path fill="#ffffff" stroke="none" d="M 698 648 L 776.60986328125 648 Q 786.60986328125 648 786.60986328125 658 L 786.60986328125 678 Q 786.60986328125 688 776.60986328125 688 L 698 688 Q 688 688 688 678 L 688 658 Q 688 648 698 648 Z"/></g><g transform="translate(-70,-6) scale(1,1)"><path fill="none" stroke="#000000" d="M 698 648 L 776.60986328125 648 Q 786.60986328125 648 786.60986328125 658 L 786.60986328125 678 Q 786.60986328125 688 776.60986328125 688 L 698 688 Q 688 688 688 678 L 688 658 Q 688 648 698 648 Z" stroke-miterlimit="10"/></g><g transform="translate(-70,-6) scale(1,1)"><g><path fill="none" stroke="none"/><text fill="#000000" stroke="none" font-family="Arial" font-size="13px" font-style="normal" font-weight="bold" text-decoration="none" x="695.40087890625" y="667.5">error message</text></g></g><g transform="translate(-70,-6) scale(1,1)"><path fill="#C0C0C0" stroke="none" d="M 799 592.5 L 810.5 583 L 821 592.5 L 810.5 601 L 799 592.5" opacity="0.2"/></g><g transform="translate(-70,-6) scale(1,1)"><path fill="#ffffff" stroke="none" d="M 792 585 L 803 576 L 814 585 L 803 594 L 792 585"/></g><g transform="translate(-70,-6) scale(1,1)"><path fill="none" stroke="#000000" d="M 792 585 L 803 576 L 814 585 L 803 594 L 792 585 L 792 585" stroke-miterlimit="10"/></g><g transform="translate(-70,-6) scale(1,1)"><path fill="#C0C0C0" stroke="none" d="M 727 771.5 C 727 764.59644 732.59644 759 739.5 759 C 746.40356 759 752 764.59644 752 771.5 C 752 778.40356 746.40356 784 739.5 784 C 732.59644 784 727 778.40356 727 771.5 Z" opacity="0.2"/></g><g transform="translate(-70,-6) scale(1,1)"><path fill="none" stroke="#000000" d="M 720 764.5 C 720 757.59644 725.59644 752 732.5 752 C 739.40356 752 745 757.59644 745 764.5 C 745 771.40356 739.40356 777 732.5 777 C 725.59644 777 720 771.40356 720 764.5 Z" stroke-miterlimit="10"/></g><g transform="translate(-70,-6) scale(1,1)"><path fill="#000000" stroke="none" d="M 725 764.5 C 725 760.357864 728.357864 757 732.5 757 C 736.642136 757 740 760.357864 740 764.5 C 740 768.642136 736.642136 772 732.5 772 C 728.357864 772 725 768.642136 725 764.5 Z"/></g><g transform="translate(-70,-6) scale(1,1)"><path fill="#C0C0C0" stroke="none" d="M 975 771.5 C 975 764.59644 980.59644 759 987.5 759 C 994.40356 759 1000 764.59644 1000 771.5 C 1000 778.40356 994.40356 784 987.5 784 C 980.59644 784 975 778.40356 975 771.5 Z" opacity="0.2"/></g><g transform="translate(-70,-6) scale(1,1)"><path fill="none" stroke="#000000" d="M 968 764.5 C 968 757.59644 973.59644 752 980.5 752 C 987.40356 752 993 757.59644 993 764.5 C 993 771.40356 987.40356 777 980.5 777 C 973.59644 777 968 771.40356 968 764.5 Z" stroke-miterlimit="10"/></g><g transform="translate(-70,-6) scale(1,1)"><path fill="#000000" stroke="none" d="M 973 764.5 C 973 760.357864 976.357864 757 980.5 757 C 984.642136 757 988 760.357864 988 764.5 C 988 768.642136 984.642136 772 980.5 772 C 976.357864 772 973 768.642136 973 764.5 Z"/></g><g transform="translate(-70,-6) scale(1,1)"><path fill="#C0C0C0" stroke="none" d="M 855 851.5 C 855 844.59644 860.59644 839 867.5 839 C 874.40356 839 880 844.59644 880 851.5 C 880 858.40356 874.40356 864 867.5 864 C 860.59644 864 855 858.40356 855 851.5 Z" opacity="0.2"/></g><g transform="translate(-70,-6) scale(1,1)"><path fill="none" stroke="#000000" d="M 848 844.5 C 848 837.59644 853.59644 832 860.5 832 C 867.40356 832 873 837.59644 873 844.5 C 873 851.40356 867.40356 857 860.5 857 C 853.59644 857 848 851.40356 848 844.5 Z" stroke-miterlimit="10"/></g><g transform="translate(-70,-6) scale(1,1)"><path fill="#000000" stroke="none" d="M 853 844.5 C 853 840.357864 856.357864 837 860.5 837 C 864.642136 837 868 840.357864 868 844.5 C 868 848.642136 864.642136 852 860.5 852 C 856.357864 852 853 848.642136 853 844.5 Z"/></g><g transform="translate(-70,-6) scale(1,1)"><path fill="none" stroke="#000000" d="M 736 689 L 733 751" stroke-miterlimit="10"/></g><g transform="translate(-70,-6) scale(1,1)"><path fill="none" stroke="#000000" d="M 729.2865691827315 740.6457529696573 L 733 751 L 737.6957661768784 741.0526495984063" stroke-miterlimit="10"/></g><g transform="translate(-70,-6) scale(1,1)"><path fill="none" stroke="#000000" d="M 859 785 L 860 831" stroke-miterlimit="10"/></g><g transform="translate(-70,-6) scale(1,1)"><path fill="none" stroke="#000000" d="M 855.570601050423 820.9312153193404 L 860 831 L 863.9876478921751 820.7482360401718" stroke-miterlimit="10"/></g><g transform="translate(-70,-6) scale(1,1)"><path fill="none" stroke="#000000" d="M 978 689 L 980 751" stroke-miterlimit="10"/></g><g transform="translate(-70,-6) scale(1,1)"><path fill="none" stroke="#000000" d="M 975.4650129238797 740.9783288709207 L 980 751 L 983.8796715000755 740.7068882716885" stroke-miterlimit="10"/></g><g transform="translate(-70,-6) scale(1,1)"><path fill="#C0C0C0" stroke="none" d="M 537 487 L 637 487 Q 647 487 647 497 L 647 530 Q 647 540 637 540 L 537 540 Q 527 540 527 530 L 527 497 Q 527 487 537 487 Z" opacity="0.2"/></g><g transform="translate(-70,-6) scale(1,1)"><path fill="#ffffff" stroke="none" d="M 530 480 L 630 480 Q 640 480 640 490 L 640 523 Q 640 533 630 533 L 530 533 Q 520 533 520 523 L 520 490 Q 520 480 530 480 Z"/></g><g transform="translate(-70,-6) scale(1,1)"><path fill="none" stroke="#000000" d="M 530 480 L 630 480 Q 640 480 640 490 L 640 523 Q 640 533 630 533 L 530 533 Q 520 533 520 523 L 520 490 Q 520 480 530 480 Z" stroke-miterlimit="10"/></g><g transform="translate(-70,-6) scale(1,1)"><g><path fill="none" stroke="none"/><text fill="#000000" stroke="none" font-family="Arial" font-size="13px" font-style="normal" font-weight="bold" text-decoration="none" x="537.378662109375" y="499.5">check if item is</text><text fill="#000000" stroke="none" font-family="Arial" font-size="13px" font-style="normal" font-weight="bold" text-decoration="none" x="544.945068359375" y="512.5">bot disabled</text></g></g><g transform="translate(-70,-6) scale(1,1)"><path fill="none" stroke="#000000" d="M 831 438 L 784 448 L 592 464 L 588 479" stroke-miterlimit="10"/></g><g transform="translate(-70,-6) scale(1,1)"><path fill="none" stroke="#000000" d="M 586.5511586058639 468.0958329701606 L 588 479 L 594.6859248753327 470.2651039753523" stroke-miterlimit="10"/></g><g transform="translate(-70,-6) scale(1,1)"><path fill="#C0C0C0" stroke="none" d="M 567 608.5 L 578.5 599 L 589 608.5 L 578.5 617 L 567 608.5" opacity="0.2"/></g><g transform="translate(-70,-6) scale(1,1)"><path fill="#ffffff" stroke="none" d="M 560 601 L 571 592 L 582 601 L 571 610 L 560 601"/></g><g transform="translate(-70,-6) scale(1,1)"><path fill="none" stroke="#000000" d="M 560 601 L 571 592 L 582 601 L 571 610 L 560 601 L 560 601" stroke-miterlimit="10"/></g><g transform="translate(-70,-6) scale(1,1)"><path fill="none" stroke="#000000" d="M 577 534 L 572 591" stroke-miterlimit="10"/></g><g transform="translate(-70,-6) scale(1,1)"><path fill="none" stroke="#000000" d="M 568.6946374273081 580.5083567415277 L 572 591 L 577.0814678044252 581.2440436167134" stroke-miterlimit="10"/></g><g transform="translate(-70,-6) scale(1,1)"><path fill="none" stroke="#000000" d="M 559 601 L 528 600 L 529 663" stroke-miterlimit="10"/></g><g transform="translate(-70,-6) scale(1,1)"><path fill="none" stroke="#000000" d="M 524.6297204617009 652.9054144831438 L 529 663 L 533.0476955750245 652.7717958305514" stroke-miterlimit="10"/></g><g transform="translate(-70,-6) scale(1,1)"><g><path fill="none" stroke="none"/><text fill="#000000" stroke="none" font-family="Arial" font-size="13px" font-style="normal" font-weight="normal" text-decoration="none" x="515.5" y="595.5">disabled</text></g></g><g transform="translate(-70,-6) scale(1,1)"><path fill="#C0C0C0" stroke="none" d="M 527 747.5 C 527 740.59644 532.59644 735 539.5 735 C 546.40356 735 552 740.59644 552 747.5 C 552 754.40356 546.40356 760 539.5 760 C 532.59644 760 527 754.40356 527 747.5 Z" opacity="0.2"/></g><g transform="translate(-70,-6) scale(1,1)"><path fill="none" stroke="#000000" d="M 520 740.5 C 520 733.59644 525.59644 728 532.5 728 C 539.40356 728 545 733.59644 545 740.5 C 545 747.40356 539.40356 753 532.5 753 C 525.59644 753 520 747.40356 520 740.5 Z" stroke-miterlimit="10"/></g><g transform="translate(-70,-6) scale(1,1)"><path fill="#000000" stroke="none" d="M 525 740.5 C 525 736.357864 528.357864 733 532.5 733 C 536.642136 733 540 736.357864 540 740.5 C 540 744.642136 536.642136 748 532.5 748 C 528.357864 748 525 744.642136 525 740.5 Z"/></g><g transform="translate(-70,-6) scale(1,1)"><path fill="none" stroke="#000000" d="M 583 602 L 760 624 L 852 671" stroke-miterlimit="10"/></g><g transform="translate(-70,-6) scale(1,1)"><path fill="none" stroke="#000000" d="M 841.0348360110595 670.125255068238 L 852 671 L 844.8649962596552 662.6279201135402" stroke-miterlimit="10"/></g><g transform="translate(-70,-6) scale(1,1)"><g><path fill="none" stroke="none"/><text fill="#000000" stroke="none" font-family="Arial" font-size="13px" font-style="normal" font-weight="normal" text-decoration="none" x="589.5" y="595.5">enabled</text></g></g><g transform="translate(-70,-6) scale(1,1)"><path fill="none" stroke="#000000" d="M 530 705 L 531 727" stroke-miterlimit="10"/></g><g transform="translate(-70,-6) scale(1,1)"><path fill="none" stroke="#000000" d="M 526.3333608983219 717.0389518877435 L 531 727 L 534.7437125137551 716.656663177951" stroke-miterlimit="10"/></g><g transform="translate(-70,-6) scale(1,1)"><path fill="#C0C0C0" stroke="none" d="M 497 671 L 575.60986328125 671 Q 585.60986328125 671 585.60986328125 681 L 585.60986328125 701 Q 585.60986328125 711 575.60986328125 711 L 497 711 Q 487 711 487 701 L 487 681 Q 487 671 497 671 Z" opacity="0.2"/></g><g transform="translate(-70,-6) scale(1,1)"><path fill="#ffffff" stroke="none" d="M 490 664 L 568.60986328125 664 Q 578.60986328125 664 578.60986328125 674 L 578.60986328125 694 Q 578.60986328125 704 568.60986328125 704 L 490 704 Q 480 704 480 694 L 480 674 Q 480 664 490 664 Z"/></g><g transform="translate(-70,-6) scale(1,1)"><path fill="none" stroke="#000000" d="M 490 664 L 568.60986328125 664 Q 578.60986328125 664 578.60986328125 674 L 578.60986328125 694 Q 578.60986328125 704 568.60986328125 704 L 490 704 Q 480 704 480 694 L 480 674 Q 480 664 490 664 Z" stroke-miterlimit="10"/></g><g transform="translate(-70,-6) scale(1,1)"><g><path fill="none" stroke="none"/><text fill="#000000" stroke="none" font-family="Arial" font-size="13px" font-style="normal" font-weight="bold" text-decoration="none" x="487.40087890625" y="683.5">error message</text></g></g><g transform="translate(-70,-6) scale(1,1)"><path fill="#C0C0C0" stroke="none" d="M 1081 479 L 1189 479 Q 1199 479 1199 489 L 1199 535 Q 1199 545 1189 545 L 1081 545 Q 1071 545 1071 535 L 1071 489 Q 1071 479 1081 479 Z" opacity="0.2"/></g><g transform="translate(-70,-6) scale(1,1)"><path fill="#ffffff" stroke="none" d="M 1074 472 L 1182 472 Q 1192 472 1192 482 L 1192 528 Q 1192 538 1182 538 L 1074 538 Q 1064 538 1064 528 L 1064 482 Q 1064 472 1074 472 Z"/></g><g transform="translate(-70,-6) scale(1,1)"><path fill="none" stroke="#000000" d="M 1074 472 L 1182 472 Q 1192 472 1192 482 L 1192 528 Q 1192 538 1182 538 L 1074 538 Q 1064 538 1064 528 L 1064 482 Q 1064 472 1074 472 Z" stroke-miterlimit="10"/></g><g transform="translate(-70,-6) scale(1,1)"><g><path fill="none" stroke="none"/><text fill="#000000" stroke="none" font-family="Arial" font-size="13px" font-style="normal" font-weight="bold" text-decoration="none" x="1093.67822265625" y="491.5">Check if not</text><text fill="#000000" stroke="none" font-family="Arial" font-size="13px" font-style="normal" font-weight="bold" text-decoration="none" x="1083.550537109375" y="504.5">already booked</text><text fill="#000000" stroke="none" font-family="Arial" font-size="13px" font-style="normal" font-weight="bold" text-decoration="none" x="1103.799560546875" y="517.5">this item</text></g></g><g transform="translate(-70,-6) scale(1,1)"><path fill="none" stroke="#000000" d="M 859 438 L 880 448 L 1112 456 L 1117 471" stroke-miterlimit="10"/></g><g transform="translate(-70,-6) scale(1,1)"><path fill="none" stroke="#000000" d="M 1109.7927808450386 462.6900064950472 L 1117 471 L 1117.7797792209974 460.02767370306094" stroke-miterlimit="10"/></g><g transform="translate(-70,-6) scale(1,1)"><path fill="#C0C0C0" stroke="none" d="M 1135 600.5 L 1146.5 591 L 1157 600.5 L 1146.5 609 L 1135 600.5" opacity="0.2"/></g><g transform="translate(-70,-6) scale(1,1)"><path fill="#ffffff" stroke="none" d="M 1128 593 L 1139 584 L 1150 593 L 1139 602 L 1128 593"/></g><g transform="translate(-70,-6) scale(1,1)"><path fill="none" stroke="#000000" d="M 1128 593 L 1139 584 L 1150 593 L 1139 602 L 1128 593 L 1128 593" stroke-miterlimit="10"/></g><g transform="translate(-70,-6) scale(1,1)"><path fill="#C0C0C0" stroke="none" d="M 1169 655 L 1250.49169921875 655 Q 1260.49169921875 655 1260.49169921875 665 L 1260.49169921875 685 Q 1260.49169921875 695 1250.49169921875 695 L 1169 695 Q 1159 695 1159 685 L 1159 665 Q 1159 655 1169 655 Z" opacity="0.2"/></g><g transform="translate(-70,-6) scale(1,1)"><path fill="#ffffff" stroke="none" d="M 1162 648 L 1243.49169921875 648 Q 1253.49169921875 648 1253.49169921875 658 L 1253.49169921875 678 Q 1253.49169921875 688 1243.49169921875 688 L 1162 688 Q 1152 688 1152 678 L 1152 658 Q 1152 648 1162 648 Z"/></g><g transform="translate(-70,-6) scale(1,1)"><path fill="none" stroke="#000000" d="M 1162 648 L 1243.49169921875 648 Q 1253.49169921875 648 1253.49169921875 658 L 1253.49169921875 678 Q 1253.49169921875 688 1243.49169921875 688 L 1162 688 Q 1152 688 1152 678 L 1152 658 Q 1152 648 1162 648 Z" stroke-miterlimit="10"/></g><g transform="translate(-70,-6) scale(1,1)"><g><path fill="none" stroke="none"/><text fill="#000000" stroke="none" font-family="Arial" font-size="13px" font-style="normal" font-weight="bold" text-decoration="none" x="1160.841796875" y="667.5">error message</text></g></g><g transform="translate(-70,-6) scale(1,1)"><path fill="#C0C0C0" stroke="none" d="M 1191 763.5 C 1191 756.59644 1196.59644 751 1203.5 751 C 1210.40356 751 1216 756.59644 1216 763.5 C 1216 770.40356 1210.40356 776 1203.5 776 C 1196.59644 776 1191 770.40356 1191 763.5 Z" opacity="0.2"/></g><g transform="translate(-70,-6) scale(1,1)"><path fill="none" stroke="#000000" d="M 1184 756.5 C 1184 749.59644 1189.59644 744 1196.5 744 C 1203.40356 744 1209 749.59644 1209 756.5 C 1209 763.40356 1203.40356 769 1196.5 769 C 1189.59644 769 1184 763.40356 1184 756.5 Z" stroke-miterlimit="10"/></g><g transform="translate(-70,-6) scale(1,1)"><path fill="#000000" stroke="none" d="M 1189 756.5 C 1189 752.357864 1192.357864 749 1196.5 749 C 1200.642136 749 1204 752.357864 1204 756.5 C 1204 760.642136 1200.642136 764 1196.5 764 C 1192.357864 764 1189 760.642136 1189 756.5 Z"/></g><g transform="translate(-70,-6) scale(1,1)"><path fill="none" stroke="#000000" d="M 1132 539 L 1138 583" stroke-miterlimit="10"/></g><g transform="translate(-70,-6) scale(1,1)"><path fill="none" stroke="#000000" d="M 1132.4559712457449 573.4992765974378 L 1138 583 L 1140.7978056169025 572.3617537286436" stroke-miterlimit="10"/></g><g transform="translate(-70,-6) scale(1,1)"><path fill="none" stroke="#000000" d="M 1201 689 L 1197 743" stroke-miterlimit="10"/></g><g transform="translate(-70,-6) scale(1,1)"><path fill="none" stroke="#000000" d="M 1193.552717601189 732.5541278936199 L 1197 743 L 1201.9487502409645 733.1760562373071" stroke-miterlimit="10"/></g><g transform="translate(-70,-6) scale(1,1)"><path fill="none" stroke="#000000" d="M 1151 594 L 1200 600 L 1201 647" stroke-miterlimit="10"/></g><g transform="translate(-70,-6) scale(1,1)"><path fill="none" stroke="#000000" d="M 1196.5752565323953 636.9291685921227 L 1201 647 L 1204.9923870697423 636.7500807083493" stroke-miterlimit="10"/></g><g transform="translate(-70,-6) scale(1,1)"><g><path fill="none" stroke="none"/><text fill="#000000" stroke="none" font-family="Arial" font-size="13px" font-style="normal" font-weight="normal" text-decoration="none" x="1198.5" y="608.5">already booked</text></g></g><g transform="translate(-70,-6) scale(1,1)"><path fill="none" stroke="#000000" d="M 1127 593 L 1056 592 L 865 671" stroke-miterlimit="10"/></g><g transform="translate(-70,-6) scale(1,1)"><path fill="none" stroke="#000000" d="M 872.7821644877514 663.2258173493556 L 865 671 L 875.9999985520517 671.0056440111447" stroke-miterlimit="10"/></g><g transform="translate(-70,-6) scale(1,1)"><g><path fill="none" stroke="none"/><text fill="#000000" stroke="none" font-family="Arial" font-size="13px" font-style="normal" font-weight="normal" text-decoration="none" x="1054.5" y="588.5">not booked</text></g></g></g></svg>