<svg version="1.1" xmlns="http://www.w3.org/2000/svg" xmlns:xlink="http://www.w3.org/1999/xlink" width="860" height="909"><defs/><g><g transform="translate(-78,-14) scale(1,1)"><rect fill="#C0C0C0" stroke="none" x="95" y="183" width="176" height="340" opacity="0.2"/></g><g transform="translate(-78,-14) scale(1,1)"><rect fill="#ffffff" stroke="none" x="88" y="176" width="176" height="340"/></g><g transform="translate(-78,-14) scale(1,1)"><path fill="none" stroke="#000000" d="M 88 176 L 264 176 L 264 516 L 88 516 L 88 176 Z Z" stroke-miterlimit="10"/></g><g transform="translate(-78,-14) scale(1,1)"><path fill="none" stroke="#000000" d="M 88 201 L 264 201" stroke-miterlimit="10"/></g><g transform="translate(-78,-14) scale(1,1)"><path fill="none" stroke="#000000" d="M 88 494 L 264 494" stroke-miterlimit="10"/></g><g transform="translate(-78,-14) scale(1,1)"><g><path fill="none" stroke="none"/><text fill="#000000" stroke="none" font-family="Arial" font-size="13px" font-style="normal" font-weight="bold" text-decoration="none" x="152.161376953125" y="195.5">member</text></g></g><g transform="translate(-78,-14) scale(1,1)"><g><path fill="none" stroke="none"/><text fill="#000000" stroke="none" font-family="Arial" font-size="13px" font-style="normal" font-weight="normal" text-decoration="none" x="93" y="218.5">+code</text></g></g><g transform="translate(-78,-14) scale(1,1)"><g><path fill="none" stroke="none"/><text fill="#000000" stroke="none" font-family="Arial" font-size="13px" font-style="normal" font-weight="normal" text-decoration="none" x="93" y="233.5">+name</text></g></g><g transform="translate(-78,-14) scale(1,1)"><g><path fill="none" stroke="none"/><text fill="#000000" stroke="none" font-family="Arial" font-size="13px" font-style="normal" font-weight="normal" text-decoration="none" x="93" y="248.5">+mem_national_id</text></g></g><g transform="translate(-78,-14) scale(1,1)"><g><path fill="none" stroke="none"/><text fill="#000000" stroke="none" font-family="Arial" font-size="13px" font-style="normal" font-weight="normal" text-decoration="none" x="93" y="263.5">+civil_situation</text></g></g><g transform="translate(-78,-14) scale(1,1)"><g><path fill="none" stroke="none"/><text fill="#000000" stroke="none" font-family="Arial" font-size="13px" font-style="normal" font-weight="normal" text-decoration="none" x="93" y="278.5">+gender</text></g></g><g transform="translate(-78,-14) scale(1,1)"><g><path fill="none" stroke="none"/><text fill="#000000" stroke="none" font-family="Arial" font-size="13px" font-style="normal" font-weight="normal" text-decoration="none" x="93" y="293.5">+DoB</text></g></g><g transform="translate(-78,-14) scale(1,1)"><g><path fill="none" stroke="none"/><text fill="#000000" stroke="none" font-family="Arial" font-size="13px" font-style="normal" font-weight="normal" text-decoration="none" x="93" y="308.5">+tel_mobile</text></g></g><g transform="translate(-78,-14) scale(1,1)"><g><path fill="none" stroke="none"/><text fill="#000000" stroke="none" font-family="Arial" font-size="13px" font-style="normal" font-weight="normal" text-decoration="none" x="93" y="323.5">+tel_home</text></g></g><g transform="translate(-78,-14) scale(1,1)"><g><path fill="none" stroke="none"/><text fill="#000000" stroke="none" font-family="Arial" font-size="13px" font-style="normal" font-weight="normal" text-decoration="none" x="93" y="338.5">+mem_tel_ref</text></g></g><g transform="translate(-78,-14) scale(1,1)"><g><path fill="none" stroke="none"/><text fill="#000000" stroke="none" font-family="Arial" font-size="13px" font-style="normal" font-weight="normal" text-decoration="none" x="93" y="353.5">+email</text></g></g><g transform="translate(-78,-14) scale(1,1)"><g><path fill="none" stroke="none"/><text fill="#000000" stroke="none" font-family="Arial" font-size="13px" font-style="normal" font-weight="normal" text-decoration="none" x="93" y="368.5">+mem_entry_date</text></g></g><g transform="translate(-78,-14) scale(1,1)"><g><path fill="none" stroke="none"/><text fill="#000000" stroke="none" font-family="Arial" font-size="13px" font-style="normal" font-weight="normal" text-decoration="none" x="93" y="383.5">+disable</text></g></g><g transform="translate(-78,-14) scale(1,1)"><g><path fill="none" stroke="none"/><text fill="#000000" stroke="none" font-family="Arial" font-size="13px" font-style="normal" font-weight="normal" text-decoration="none" x="93" y="398.5">+mem_disable_reason</text></g></g><g transform="translate(-78,-14) scale(1,1)"><g><path fill="none" stroke="none"/><text fill="#000000" stroke="none" font-family="Arial" font-size="13px" font-style="normal" font-weight="normal" text-decoration="none" x="93" y="413.5">+mem_disable_year</text></g></g><g transform="translate(-78,-14) scale(1,1)"><g><path fill="none" stroke="none"/><text fill="#000000" stroke="none" font-family="Arial" font-size="13px" font-style="normal" font-weight="normal" text-decoration="none" x="93" y="428.5">+password</text></g></g><g transform="translate(-78,-14) scale(1,1)"><g><path fill="none" stroke="none"/><text fill="#000000" stroke="none" font-family="Arial" font-size="13px" font-style="normal" font-weight="normal" text-decoration="none" x="93" y="443.5">+mem_fac_id</text></g></g><g transform="translate(-78,-14) scale(1,1)"><g><path fill="none" stroke="none"/><text fill="#000000" stroke="none" font-family="Arial" font-size="13px" font-style="normal" font-weight="normal" text-decoration="none" x="93" y="458.5">+mem_staff_id</text></g></g><g transform="translate(-78,-14) scale(1,1)"><g><path fill="none" stroke="none"/><text fill="#000000" stroke="none" font-family="Arial" font-size="13px" font-style="normal" font-weight="normal" text-decoration="none" x="93" y="473.5">+mem_student_id</text></g></g><g transform="translate(-78,-14) scale(1,1)"><g><path fill="none" stroke="none"/><text fill="#000000" stroke="none" font-family="Arial" font-size="13px" font-style="normal" font-weight="normal" text-decoration="none" x="93" y="488.5">+address_id</text></g></g><g transform="translate(-78,-14) scale(1,1)"><g><path fill="none" stroke="none"/><text fill="#000000" stroke="none" font-family="Arial" font-size="13px" font-style="normal" font-weight="normal" text-decoration="none" x="93" y="511.5">+disconnect()</text></g></g><g transform="translate(-78,-14) scale(1,1)"><rect fill="#C0C0C0" stroke="none" x="95" y="775" width="176" height="145" opacity="0.2"/></g><g transform="translate(-78,-14) scale(1,1)"><rect fill="#ffffff" stroke="none" x="88" y="768" width="176" height="145"/></g><g transform="translate(-78,-14) scale(1,1)"><path fill="none" stroke="#000000" d="M 88 768 L 264 768 L 264 913 L 88 913 L 88 768 Z Z" stroke-miterlimit="10"/></g><g transform="translate(-78,-14) scale(1,1)"><path fill="none" stroke="#000000" d="M 88 793 L 264 793" stroke-miterlimit="10"/></g><g transform="translate(-78,-14) scale(1,1)"><path fill="none" stroke="#000000" d="M 88 831 L 264 831" stroke-miterlimit="10"/></g><g transform="translate(-78,-14) scale(1,1)"><g><path fill="none" stroke="none"/><text fill="#000000" stroke="none" font-family="Arial" font-size="13px" font-style="normal" font-weight="bold" text-decoration="none" x="152.878662109375" y="787.5">librarian</text></g></g><g transform="translate(-78,-14) scale(1,1)"><g><path fill="none" stroke="none"/><text fill="#000000" stroke="none" font-family="Arial" font-size="13px" font-style="normal" font-weight="normal" text-decoration="none" x="93" y="810.5">+lib_hire_date</text></g></g><g transform="translate(-78,-14) scale(1,1)"><g><path fill="none" stroke="none"/><text fill="#000000" stroke="none" font-family="Arial" font-size="13px" font-style="normal" font-weight="normal" text-decoration="none" x="93" y="825.5">+lib_resign_date</text></g></g><g transform="translate(-78,-14) scale(1,1)"><g><path fill="none" stroke="none"/><text fill="#000000" stroke="none" font-family="Arial" font-size="13px" font-style="normal" font-weight="normal" text-decoration="none" x="93" y="848.5">+disable_member()</text></g></g><g transform="translate(-78,-14) scale(1,1)"><g><path fill="none" stroke="none"/><text fill="#000000" stroke="none" font-family="Arial" font-size="13px" font-style="normal" font-weight="normal" text-decoration="none" x="93" y="863.5">+create_member()</text></g></g><g transform="translate(-78,-14) scale(1,1)"><g><path fill="none" stroke="none"/><text fill="#000000" stroke="none" font-family="Arial" font-size="13px" font-style="normal" font-weight="normal" text-decoration="none" x="93" y="878.5">+check_al_members()</text></g></g><g transform="translate(-78,-14) scale(1,1)"><g><path fill="none" stroke="none"/><text fill="#000000" stroke="none" font-family="Arial" font-size="13px" font-style="normal" font-weight="normal" text-decoration="none" x="93" y="893.5">+disable_item()</text></g></g><g transform="translate(-78,-14) scale(1,1)"><g><path fill="none" stroke="none"/><text fill="#000000" stroke="none" font-family="Arial" font-size="13px" font-style="normal" font-weight="normal" text-decoration="none" x="93" y="908.5">+add_item()</text></g></g><g transform="translate(-78,-14) scale(1,1)"><rect fill="#C0C0C0" stroke="none" x="95" y="31" width="176" height="87" opacity="0.2"/></g><g transform="translate(-78,-14) scale(1,1)"><rect fill="#ffffff" stroke="none" x="88" y="24" width="176" height="87"/></g><g transform="translate(-78,-14) scale(1,1)"><path fill="none" stroke="#000000" d="M 88 24 L 264 24 L 264 111 L 88 111 L 88 24 Z Z" stroke-miterlimit="10"/></g><g transform="translate(-78,-14) scale(1,1)"><path fill="none" stroke="#000000" d="M 88 49 L 264 49" stroke-miterlimit="10"/></g><g transform="translate(-78,-14) scale(1,1)"><path fill="none" stroke="#000000" d="M 88 59 L 264 59" stroke-miterlimit="10"/></g><g transform="translate(-78,-14) scale(1,1)"><g><path fill="none" stroke="none"/><text fill="#000000" stroke="none" font-family="Arial" font-size="13px" font-style="normal" font-weight="bold" text-decoration="none" x="159.0263671875" y="43.5">visitor</text></g></g><g transform="translate(-78,-14) scale(1,1)"><g><path fill="none" stroke="none"/><text fill="#000000" stroke="none" font-family="Arial" font-size="13px" font-style="normal" font-weight="normal" text-decoration="none" x="93" y="76.5">+connect()</text></g></g><g transform="translate(-78,-14) scale(1,1)"><g><path fill="none" stroke="none"/><text fill="#000000" stroke="none" font-family="Arial" font-size="13px" font-style="normal" font-weight="normal" text-decoration="none" x="93" y="91.5">+browse_books()</text></g></g><g transform="translate(-78,-14) scale(1,1)"><g><path fill="none" stroke="none"/><text fill="#000000" stroke="none" font-family="Arial" font-size="13px" font-style="normal" font-weight="normal" text-decoration="none" x="93" y="106.5">+search_book()</text></g></g><g transform="translate(-78,-14) scale(1,1)"><rect fill="#C0C0C0" stroke="none" x="799" y="215" width="136" height="117" opacity="0.2"/></g><g transform="translate(-78,-14) scale(1,1)"><rect fill="#ffffff" stroke="none" x="792" y="208" width="136" height="117"/></g><g transform="translate(-78,-14) scale(1,1)"><path fill="none" stroke="#000000" d="M 792 208 L 928 208 L 928 325 L 792 325 L 792 208 Z Z" stroke-miterlimit="10"/></g><g transform="translate(-78,-14) scale(1,1)"><path fill="none" stroke="#000000" d="M 792 233 L 928 233" stroke-miterlimit="10"/></g><g transform="translate(-78,-14) scale(1,1)"><path fill="none" stroke="#000000" d="M 792 316 L 928 316" stroke-miterlimit="10"/></g><g transform="translate(-78,-14) scale(1,1)"><g><path fill="none" stroke="none"/><text fill="#000000" stroke="none" font-family="Arial" font-size="13px" font-style="normal" font-weight="bold" text-decoration="none" x="828.56640625" y="227.5">suppliment</text></g></g><g transform="translate(-78,-14) scale(1,1)"><g><path fill="none" stroke="none"/><text fill="#000000" stroke="none" font-family="Arial" font-size="13px" font-style="normal" font-weight="normal" text-decoration="none" x="797" y="250.5">+supp_id</text></g></g><g transform="translate(-78,-14) scale(1,1)"><g><path fill="none" stroke="none"/><text fill="#000000" stroke="none" font-family="Arial" font-size="13px" font-style="normal" font-weight="normal" text-decoration="none" x="797" y="265.5">+supp_name</text></g></g><g transform="translate(-78,-14) scale(1,1)"><g><path fill="none" stroke="none"/><text fill="#000000" stroke="none" font-family="Arial" font-size="13px" font-style="normal" font-weight="normal" text-decoration="none" x="797" y="280.5">+supp_amount</text></g></g><g transform="translate(-78,-14) scale(1,1)"><g><path fill="none" stroke="none"/><text fill="#000000" stroke="none" font-family="Arial" font-size="13px" font-style="normal" font-weight="normal" text-decoration="none" x="797" y="295.5">+supp_disable</text></g></g><g transform="translate(-78,-14) scale(1,1)"><g><path fill="none" stroke="none"/><text fill="#000000" stroke="none" font-family="Arial" font-size="13px" font-style="normal" font-weight="normal" text-decoration="none" x="797" y="310.5">+item_code</text></g></g><g transform="translate(-78,-14) scale(1,1)"><rect fill="#C0C0C0" stroke="none" x="799" y="391" width="136" height="87" opacity="0.2"/></g><g transform="translate(-78,-14) scale(1,1)"><rect fill="#ffffff" stroke="none" x="792" y="384" width="136" height="87"/></g><g transform="translate(-78,-14) scale(1,1)"><path fill="none" stroke="#000000" d="M 792 384 L 928 384 L 928 471 L 792 471 L 792 384 Z Z" stroke-miterlimit="10"/></g><g transform="translate(-78,-14) scale(1,1)"><path fill="none" stroke="#000000" d="M 792 409 L 928 409" stroke-miterlimit="10"/></g><g transform="translate(-78,-14) scale(1,1)"><path fill="none" stroke="#000000" d="M 792 462 L 928 462" stroke-miterlimit="10"/></g><g transform="translate(-78,-14) scale(1,1)"><g><path fill="none" stroke="none"/><text fill="#000000" stroke="none" font-family="Arial" font-size="13px" font-style="normal" font-weight="bold" text-decoration="none" x="835.069580078125" y="403.5">category</text></g></g><g transform="translate(-78,-14) scale(1,1)"><g><path fill="none" stroke="none"/><text fill="#000000" stroke="none" font-family="Arial" font-size="13px" font-style="normal" font-weight="normal" text-decoration="none" x="797" y="426.5">+cat_id</text></g></g><g transform="translate(-78,-14) scale(1,1)"><g><path fill="none" stroke="none"/><text fill="#000000" stroke="none" font-family="Arial" font-size="13px" font-style="normal" font-weight="normal" text-decoration="none" x="797" y="441.5">+cat_name</text></g></g><g transform="translate(-78,-14) scale(1,1)"><g><path fill="none" stroke="none"/><text fill="#000000" stroke="none" font-family="Arial" font-size="13px" font-style="normal" font-weight="normal" text-decoration="none" x="797" y="456.5">+cat_disable</text></g></g><g transform="translate(-78,-14) scale(1,1)"><path fill="none" stroke="#000000" d="M 176 767 L 176 517" stroke-miterlimit="10"/></g><g transform="translate(-78,-14) scale(1,1)"><path fill="#FFFFFF" stroke="none" d="M 184.41903551203197 537.3253497152483 L 176 517 L 167.58096448796803 537.3253497152483"/></g><g transform="translate(-78,-14) scale(1,1)"><path fill="none" stroke="#000000" d="M 184.41903551203197 537.3253497152483 L 176 517 L 167.58096448796803 537.3253497152483 L 184.41903551203197 537.3253497152483" stroke-miterlimit="10"/></g><g transform="translate(-78,-14) scale(1,1)"><path fill="none" stroke="#000000" d="M 176 175 L 176 112" stroke-miterlimit="10"/></g><g transform="translate(-78,-14) scale(1,1)"><path fill="#FFFFFF" stroke="none" d="M 184.41903551203197 132.3253497152483 L 176 112 L 167.58096448796803 132.3253497152483"/></g><g transform="translate(-78,-14) scale(1,1)"><path fill="none" stroke="#000000" d="M 184.41903551203197 132.3253497152483 L 176 112 L 167.58096448796803 132.3253497152483 L 184.41903551203197 132.3253497152483" stroke-miterlimit="10"/></g><g transform="translate(-78,-14) scale(1,1)"><rect fill="#C0C0C0" stroke="none" x="535" y="215" width="176" height="267" opacity="0.2"/></g><g transform="translate(-78,-14) scale(1,1)"><rect fill="#ffffff" stroke="none" x="528" y="208" width="176" height="267"/></g><g transform="translate(-78,-14) scale(1,1)"><path fill="none" stroke="#000000" d="M 528 208 L 704 208 L 704 475 L 528 475 L 528 208 Z Z" stroke-miterlimit="10"/></g><g transform="translate(-78,-14) scale(1,1)"><path fill="none" stroke="#000000" d="M 528 233 L 704 233" stroke-miterlimit="10"/></g><g transform="translate(-78,-14) scale(1,1)"><path fill="none" stroke="#000000" d="M 528 466 L 704 466" stroke-miterlimit="10"/></g><g transform="translate(-78,-14) scale(1,1)"><g><path fill="none" stroke="none"/><text fill="#000000" stroke="none" font-family="Arial" font-size="13px" font-style="normal" font-weight="bold" text-decoration="none" x="603.720458984375" y="227.5">item</text></g></g><g transform="translate(-78,-14) scale(1,1)"><g><path fill="none" stroke="none"/><text fill="#000000" stroke="none" font-family="Arial" font-size="13px" font-style="normal" font-weight="normal" text-decoration="none" x="533" y="250.5">+item_code</text></g></g><g transform="translate(-78,-14) scale(1,1)"><g><path fill="none" stroke="none"/><text fill="#000000" stroke="none" font-family="Arial" font-size="13px" font-style="normal" font-weight="normal" text-decoration="none" x="533" y="265.5">+item_title</text></g></g><g transform="translate(-78,-14) scale(1,1)"><g><path fill="none" stroke="none"/><text fill="#000000" stroke="none" font-family="Arial" font-size="13px" font-style="normal" font-weight="normal" text-decoration="none" x="533" y="280.5">+item_short_title</text></g></g><g transform="translate(-78,-14) scale(1,1)"><g><path fill="none" stroke="none"/><text fill="#000000" stroke="none" font-family="Arial" font-size="13px" font-style="normal" font-weight="normal" text-decoration="none" x="533" y="295.5">+item_author</text></g></g><g transform="translate(-78,-14) scale(1,1)"><g><path fill="none" stroke="none"/><text fill="#000000" stroke="none" font-family="Arial" font-size="13px" font-style="normal" font-weight="normal" text-decoration="none" x="533" y="310.5">+item_publisher</text></g></g><g transform="translate(-78,-14) scale(1,1)"><g><path fill="none" stroke="none"/><text fill="#000000" stroke="none" font-family="Arial" font-size="13px" font-style="normal" font-weight="normal" text-decoration="none" x="533" y="325.5">+item_publication_year</text></g></g><g transform="translate(-78,-14) scale(1,1)"><g><path fill="none" stroke="none"/><text fill="#000000" stroke="none" font-family="Arial" font-size="13px" font-style="normal" font-weight="normal" text-decoration="none" x="533" y="340.5">+item_language</text></g></g><g transform="translate(-78,-14) scale(1,1)"><g><path fill="none" stroke="none"/><text fill="#000000" stroke="none" font-family="Arial" font-size="13px" font-style="normal" font-weight="normal" text-decoration="none" x="533" y="355.5">+item_ISBN</text></g></g><g transform="translate(-78,-14) scale(1,1)"><g><path fill="none" stroke="none"/><text fill="#000000" stroke="none" font-family="Arial" font-size="13px" font-style="normal" font-weight="normal" text-decoration="none" x="533" y="370.5">+item_total_unit</text></g></g><g transform="translate(-78,-14) scale(1,1)"><g><path fill="none" stroke="none"/><text fill="#000000" stroke="none" font-family="Arial" font-size="13px" font-style="normal" font-weight="normal" text-decoration="none" x="533" y="385.5">+item_borrowed_unit</text></g></g><g transform="translate(-78,-14) scale(1,1)"><g><path fill="none" stroke="none"/><text fill="#000000" stroke="none" font-family="Arial" font-size="13px" font-style="normal" font-weight="normal" text-decoration="none" x="533" y="400.5">+item_lost_unit</text></g></g><g transform="translate(-78,-14) scale(1,1)"><g><path fill="none" stroke="none"/><text fill="#000000" stroke="none" font-family="Arial" font-size="13px" font-style="normal" font-weight="normal" text-decoration="none" x="533" y="415.5">+item_cost</text></g></g><g transform="translate(-78,-14) scale(1,1)"><g><path fill="none" stroke="none"/><text fill="#000000" stroke="none" font-family="Arial" font-size="13px" font-style="normal" font-weight="normal" text-decoration="none" x="533" y="430.5">+item_disable</text></g></g><g transform="translate(-78,-14) scale(1,1)"><g><path fill="none" stroke="none"/><text fill="#000000" stroke="none" font-family="Arial" font-size="13px" font-style="normal" font-weight="normal" text-decoration="none" x="533" y="445.5">+item_type_id</text></g></g><g transform="translate(-78,-14) scale(1,1)"><g><path fill="none" stroke="none"/><text fill="#000000" stroke="none" font-family="Arial" font-size="13px" font-style="normal" font-weight="normal" text-decoration="none" x="533" y="460.5">+item_category_id</text></g></g><g transform="translate(-78,-14) scale(1,1)"><rect fill="#C0C0C0" stroke="none" x="311" y="567" width="176" height="177" opacity="0.2"/></g><g transform="translate(-78,-14) scale(1,1)"><rect fill="#ffffff" stroke="none" x="304" y="560" width="176" height="177"/></g><g transform="translate(-78,-14) scale(1,1)"><path fill="none" stroke="#000000" d="M 304 560 L 480 560 L 480 737 L 304 737 L 304 560 Z Z" stroke-miterlimit="10"/></g><g transform="translate(-78,-14) scale(1,1)"><path fill="none" stroke="#000000" d="M 304 585 L 480 585" stroke-miterlimit="10"/></g><g transform="translate(-78,-14) scale(1,1)"><path fill="none" stroke="#000000" d="M 304 728 L 480 728" stroke-miterlimit="10"/></g><g transform="translate(-78,-14) scale(1,1)"><g><path fill="none" stroke="none"/><text fill="#000000" stroke="none" font-family="Arial" font-size="13px" font-style="normal" font-weight="bold" text-decoration="none" x="360.20458984375" y="579.5">transaction</text></g></g><g transform="translate(-78,-14) scale(1,1)"><g><path fill="none" stroke="none"/><text fill="#000000" stroke="none" font-family="Arial" font-size="13px" font-style="normal" font-weight="normal" text-decoration="none" x="309" y="602.5">+trans_id</text></g></g><g transform="translate(-78,-14) scale(1,1)"><g><path fill="none" stroke="none"/><text fill="#000000" stroke="none" font-family="Arial" font-size="13px" font-style="normal" font-weight="normal" text-decoration="none" x="309" y="617.5">+member_code</text></g></g><g transform="translate(-78,-14) scale(1,1)"><g><path fill="none" stroke="none"/><text fill="#000000" stroke="none" font-family="Arial" font-size="13px" font-style="normal" font-weight="normal" text-decoration="none" x="309" y="632.5">+item_code</text></g></g><g transform="translate(-78,-14) scale(1,1)"><g><path fill="none" stroke="none"/><text fill="#000000" stroke="none" font-family="Arial" font-size="13px" font-style="normal" font-weight="normal" text-decoration="none" x="309" y="647.5">+lib_for_borrow</text></g></g><g transform="translate(-78,-14) scale(1,1)"><g><path fill="none" stroke="none"/><text fill="#000000" stroke="none" font-family="Arial" font-size="13px" font-style="normal" font-weight="normal" text-decoration="none" x="309" y="662.5">+lib_for_return</text></g></g><g transform="translate(-78,-14) scale(1,1)"><g><path fill="none" stroke="none"/><text fill="#000000" stroke="none" font-family="Arial" font-size="13px" font-style="normal" font-weight="normal" text-decoration="none" x="309" y="677.5">+trans_borrow_date</text></g></g><g transform="translate(-78,-14) scale(1,1)"><g><path fill="none" stroke="none"/><text fill="#000000" stroke="none" font-family="Arial" font-size="13px" font-style="normal" font-weight="normal" text-decoration="none" x="309" y="692.5">+trans_return_date</text></g></g><g transform="translate(-78,-14) scale(1,1)"><g><path fill="none" stroke="none"/><text fill="#000000" stroke="none" font-family="Arial" font-size="13px" font-style="normal" font-weight="normal" text-decoration="none" x="309" y="707.5">+trans_fine_cost_per_day</text></g></g><g transform="translate(-78,-14) scale(1,1)"><g><path fill="none" stroke="none"/><text fill="#000000" stroke="none" font-family="Arial" font-size="13px" font-style="normal" font-weight="normal" text-decoration="none" x="309" y="722.5">+note</text></g></g><g transform="translate(-78,-14) scale(1,1)"><rect fill="#C0C0C0" stroke="none" x="799" y="519" width="135" height="72" opacity="0.2"/></g><g transform="translate(-78,-14) scale(1,1)"><rect fill="#ffffff" stroke="none" x="792" y="512" width="135" height="72"/></g><g transform="translate(-78,-14) scale(1,1)"><path fill="none" stroke="#000000" d="M 792 512 L 927 512 L 927 584 L 792 584 L 792 512 Z Z" stroke-miterlimit="10"/></g><g transform="translate(-78,-14) scale(1,1)"><path fill="none" stroke="#000000" d="M 792 537 L 927 537" stroke-miterlimit="10"/></g><g transform="translate(-78,-14) scale(1,1)"><path fill="none" stroke="#000000" d="M 792 575 L 927 575" stroke-miterlimit="10"/></g><g transform="translate(-78,-14) scale(1,1)"><g><path fill="none" stroke="none"/><text fill="#000000" stroke="none" font-family="Arial" font-size="13px" font-style="normal" font-weight="bold" text-decoration="none" x="840.714111328125" y="531.5">faculty</text></g></g><g transform="translate(-78,-14) scale(1,1)"><g><path fill="none" stroke="none"/><text fill="#000000" stroke="none" font-family="Arial" font-size="13px" font-style="normal" font-weight="normal" text-decoration="none" x="797" y="554.5">+fac_id</text></g></g><g transform="translate(-78,-14) scale(1,1)"><g><path fill="none" stroke="none"/><text fill="#000000" stroke="none" font-family="Arial" font-size="13px" font-style="normal" font-weight="normal" text-decoration="none" x="797" y="569.5">+fac_name</text></g></g><g transform="translate(-78,-14) scale(1,1)"><rect fill="#C0C0C0" stroke="none" x="799" y="615" width="135" height="72" opacity="0.2"/></g><g transform="translate(-78,-14) scale(1,1)"><rect fill="#ffffff" stroke="none" x="792" y="608" width="135" height="72"/></g><g transform="translate(-78,-14) scale(1,1)"><path fill="none" stroke="#000000" d="M 792 608 L 927 608 L 927 680 L 792 680 L 792 608 Z Z" stroke-miterlimit="10"/></g><g transform="translate(-78,-14) scale(1,1)"><path fill="none" stroke="#000000" d="M 792 633 L 927 633" stroke-miterlimit="10"/></g><g transform="translate(-78,-14) scale(1,1)"><path fill="none" stroke="#000000" d="M 792 671 L 927 671" stroke-miterlimit="10"/></g><g transform="translate(-78,-14) scale(1,1)"><g><path fill="none" stroke="none"/><text fill="#000000" stroke="none" font-family="Arial" font-size="13px" font-style="normal" font-weight="bold" text-decoration="none" x="847.214111328125" y="627.5">type</text></g></g><g transform="translate(-78,-14) scale(1,1)"><g><path fill="none" stroke="none"/><text fill="#000000" stroke="none" font-family="Arial" font-size="13px" font-style="normal" font-weight="normal" text-decoration="none" x="797" y="650.5">+type_id</text></g></g><g transform="translate(-78,-14) scale(1,1)"><g><path fill="none" stroke="none"/><text fill="#000000" stroke="none" font-family="Arial" font-size="13px" font-style="normal" font-weight="normal" text-decoration="none" x="797" y="665.5">+type_name</text></g></g><g transform="translate(-78,-14) scale(1,1)"><rect fill="#C0C0C0" stroke="none" x="799" y="703" width="127" height="102" opacity="0.2"/></g><g transform="translate(-78,-14) scale(1,1)"><rect fill="#ffffff" stroke="none" x="792" y="696" width="127" height="102"/></g><g transform="translate(-78,-14) scale(1,1)"><path fill="none" stroke="#000000" d="M 792 696 L 919 696 L 919 798 L 792 798 L 792 696 Z Z" stroke-miterlimit="10"/></g><g transform="translate(-78,-14) scale(1,1)"><path fill="none" stroke="#000000" d="M 792 721 L 919 721" stroke-miterlimit="10"/></g><g transform="translate(-78,-14) scale(1,1)"><path fill="none" stroke="#000000" d="M 792 789 L 919 789" stroke-miterlimit="10"/></g><g transform="translate(-78,-14) scale(1,1)"><g><path fill="none" stroke="none"/><text fill="#000000" stroke="none" font-family="Arial" font-size="13px" font-style="normal" font-weight="bold" text-decoration="none" x="846.825927734375" y="715.5">log</text></g></g><g transform="translate(-78,-14) scale(1,1)"><g><path fill="none" stroke="none"/><text fill="#000000" stroke="none" font-family="Arial" font-size="13px" font-style="normal" font-weight="normal" text-decoration="none" x="797" y="738.5">+log_id</text></g></g><g transform="translate(-78,-14) scale(1,1)"><g><path fill="none" stroke="none"/><text fill="#000000" stroke="none" font-family="Arial" font-size="13px" font-style="normal" font-weight="normal" text-decoration="none" x="797" y="753.5">+lib_code</text></g></g><g transform="translate(-78,-14) scale(1,1)"><g><path fill="none" stroke="none"/><text fill="#000000" stroke="none" font-family="Arial" font-size="13px" font-style="normal" font-weight="normal" text-decoration="none" x="797" y="768.5">+login_date</text></g></g><g transform="translate(-78,-14) scale(1,1)"><g><path fill="none" stroke="none"/><text fill="#000000" stroke="none" font-family="Arial" font-size="13px" font-style="normal" font-weight="normal" text-decoration="none" x="797" y="783.5">+logout_date</text></g></g><g transform="translate(-78,-14) scale(1,1)"><path fill="none" stroke="#000000" d="M 265 345 L 527 342" stroke-miterlimit="10"/></g><g transform="translate(-78,-14) scale(1,1)"><g><path fill="none" stroke="none"/><text fill="#000000" stroke="none" font-family="Arial" font-size="13px" font-style="normal" font-weight="normal" text-decoration="none" x="377.5" y="334.5">+book</text></g></g><g transform="translate(-78,-14) scale(1,1)"><g><path fill="none" stroke="none"/><text fill="#000000" stroke="none" font-family="Arial" font-size="13px" font-style="normal" font-weight="normal" text-decoration="none" x="283.5" y="363.5">*</text></g></g><g transform="translate(-78,-14) scale(1,1)"><g><path fill="none" stroke="none"/><text fill="#000000" stroke="none" font-family="Arial" font-size="13px" font-style="normal" font-weight="normal" text-decoration="none" x="502.5" y="360.5">*</text></g></g><g transform="translate(-78,-14) scale(1,1)"><path fill="none" stroke="#000000" d="M 393 559 L 396 343" stroke-miterlimit="10" stroke-dasharray="3"/></g><g transform="translate(-78,-14) scale(1,1)"><path fill="none" stroke="#000000" d="M 203 517 L 224 648 L 303 648" stroke-miterlimit="10"/></g><g transform="translate(-78,-14) scale(1,1)"><g><path fill="none" stroke="none"/><text fill="#000000" stroke="none" font-family="Arial" font-size="13px" font-style="normal" font-weight="normal" text-decoration="none" x="190.5" y="546.5">1</text></g></g><g transform="translate(-78,-14) scale(1,1)"><g><path fill="none" stroke="none"/><text fill="#000000" stroke="none" font-family="Arial" font-size="13px" font-style="normal" font-weight="normal" text-decoration="none" x="223.5" y="603.5">+check</text></g></g><g transform="translate(-78,-14) scale(1,1)"><g><path fill="none" stroke="none"/><text fill="#000000" stroke="none" font-family="Arial" font-size="13px" font-style="normal" font-weight="normal" text-decoration="none" x="278.5" y="666.5">*</text></g></g><g transform="translate(-78,-14) scale(1,1)"><path fill="none" stroke="#000000" d="M 265 840 L 616 840 L 616 476" stroke-miterlimit="10"/></g><g transform="translate(-78,-14) scale(1,1)"><g><path fill="none" stroke="none"/><text fill="#000000" stroke="none" font-family="Arial" font-size="13px" font-style="normal" font-weight="normal" text-decoration="none" x="563.5" y="852.5">+update_info</text></g></g><g transform="translate(-78,-14) scale(1,1)"><g><path fill="none" stroke="none"/><text fill="#000000" stroke="none" font-family="Arial" font-size="13px" font-style="normal" font-weight="normal" text-decoration="none" x="283.5" y="858.5">*</text></g></g><g transform="translate(-78,-14) scale(1,1)"><g><path fill="none" stroke="none"/><text fill="#000000" stroke="none" font-family="Arial" font-size="13px" font-style="normal" font-weight="normal" text-decoration="none" x="625.5" y="503.5">*</text></g></g><g transform="translate(-78,-14) scale(1,1)"><path fill="none" stroke="#000000" d="M 265 66 L 616 64 L 616 207" stroke-miterlimit="10"/></g><g transform="translate(-78,-14) scale(1,1)"><g><path fill="none" stroke="none"/><text fill="#000000" stroke="none" font-family="Arial" font-size="13px" font-style="normal" font-weight="normal" text-decoration="none" x="575.5" y="60.5">+check_description</text></g></g><g transform="translate(-78,-14) scale(1,1)"><g><path fill="none" stroke="none"/><text fill="#000000" stroke="none" font-family="Arial" font-size="13px" font-style="normal" font-weight="normal" text-decoration="none" x="283.5" y="84.5">*</text></g></g><g transform="translate(-78,-14) scale(1,1)"><g><path fill="none" stroke="none"/><text fill="#000000" stroke="none" font-family="Arial" font-size="13px" font-style="normal" font-weight="normal" text-decoration="none" x="600.5" y="191.5">*</text></g></g></g></svg>