<svg version="1.1" xmlns="http://www.w3.org/2000/svg" xmlns:xlink="http://www.w3.org/1999/xlink" width="378.419921875" height="349"><defs/><g><g transform="translate(-230,-118) scale(1,1)"><path fill="#C0C0C0" stroke="none" d="M 441 199 L 501.5126953125 199 Q 511.5126953125 199 511.5126953125 209 L 511.5126953125 236 Q 511.5126953125 246 501.5126953125 246 L 441 246 Q 431 246 431 236 L 431 209 Q 431 199 441 199 Z" opacity="0.2"/></g><g transform="translate(-230,-118) scale(1,1)"><path fill="#ffffff" stroke="none" d="M 434 192 L 494.5126953125 192 Q 504.5126953125 192 504.5126953125 202 L 504.5126953125 229 Q 504.5126953125 239 494.5126953125 239 L 434 239 Q 424 239 424 229 L 424 202 Q 424 192 434 192 Z"/></g><g transform="translate(-230,-118) scale(1,1)"><path fill="none" stroke="#000000" d="M 434 192 L 494.5126953125 192 Q 504.5126953125 192 504.5126953125 202 L 504.5126953125 229 Q 504.5126953125 239 494.5126953125 239 L 434 239 Q 424 239 424 229 L 424 202 Q 424 192 434 192 Z" stroke-miterlimit="10"/></g><g transform="translate(-230,-118) scale(1,1)"><g><path fill="none" stroke="none"/><text fill="#000000" stroke="none" font-family="Arial" font-size="13px" font-style="normal" font-weight="bold" text-decoration="none" x="431.378662109375" y="211.5">Borrowable</text></g></g><g transform="translate(-230,-118) scale(1,1)"><path fill="#C0C0C0" stroke="none" d="M 449 335 L 498.6708984375 335 Q 508.6708984375 335 508.6708984375 345 L 508.6708984375 364 Q 508.6708984375 374 498.6708984375 374 L 449 374 Q 439 374 439 364 L 439 345 Q 439 335 449 335 Z" opacity="0.2"/></g><g transform="translate(-230,-118) scale(1,1)"><path fill="#ffffff" stroke="none" d="M 442 328 L 491.6708984375 328 Q 501.6708984375 328 501.6708984375 338 L 501.6708984375 357 Q 501.6708984375 367 491.6708984375 367 L 442 367 Q 432 367 432 357 L 432 338 Q 432 328 442 328 Z"/></g><g transform="translate(-230,-118) scale(1,1)"><path fill="none" stroke="#000000" d="M 442 328 L 491.6708984375 328 Q 501.6708984375 328 501.6708984375 338 L 501.6708984375 357 Q 501.6708984375 367 491.6708984375 367 L 442 367 Q 432 367 432 357 L 432 338 Q 432 328 442 328 Z" stroke-miterlimit="10"/></g><g transform="translate(-230,-118) scale(1,1)"><g><path fill="none" stroke="none"/><text fill="#000000" stroke="none" font-family="Arial" font-size="13px" font-style="normal" font-weight="bold" text-decoration="none" x="439.016845703125" y="347.5">Borrowed</text></g></g><g transform="translate(-230,-118) scale(1,1)"><path fill="#C0C0C0" stroke="none" d="M 463 144.5 C 463 139.2532944 467.2532944 135 472.5 135 C 477.7467056 135 482 139.2532944 482 144.5 C 482 149.7467056 477.7467056 154 472.5 154 C 467.2532944 154 463 149.7467056 463 144.5 Z" opacity="0.2"/></g><g transform="translate(-230,-118) scale(1,1)"><path fill="#000000" stroke="none" d="M 456 137.5 C 456 132.2532944 460.2532944 128 465.5 128 C 470.7467056 128 475 132.2532944 475 137.5 C 475 142.7467056 470.7467056 147 465.5 147 C 460.2532944 147 456 142.7467056 456 137.5 Z"/></g><g transform="translate(-230,-118) scale(1,1)"><path fill="#C0C0C0" stroke="none" d="M 463 451.5 C 463 444.59644 468.59644 439 475.5 439 C 482.40356 439 488 444.59644 488 451.5 C 488 458.40356 482.40356 464 475.5 464 C 468.59644 464 463 458.40356 463 451.5 Z" opacity="0.2"/></g><g transform="translate(-230,-118) scale(1,1)"><path fill="none" stroke="#000000" d="M 456 444.5 C 456 437.59644 461.59644 432 468.5 432 C 475.40356 432 481 437.59644 481 444.5 C 481 451.40356 475.40356 457 468.5 457 C 461.59644 457 456 451.40356 456 444.5 Z" stroke-miterlimit="10"/></g><g transform="translate(-230,-118) scale(1,1)"><path fill="#000000" stroke="none" d="M 461 444.5 C 461 440.357864 464.357864 437 468.5 437 C 472.642136 437 476 440.357864 476 444.5 C 476 448.642136 472.642136 452 468.5 452 C 464.357864 452 461 448.642136 461 444.5 Z"/></g><g transform="translate(-230,-118) scale(1,1)"><path fill="#C0C0C0" stroke="none" d="M 247 219.5 C 247 212.59644 252.59644 207 259.5 207 C 266.40356 207 272 212.59644 272 219.5 C 272 226.40356 266.40356 232 259.5 232 C 252.59644 232 247 226.40356 247 219.5 Z" opacity="0.2"/></g><g transform="translate(-230,-118) scale(1,1)"><path fill="none" stroke="#000000" d="M 240 212.5 C 240 205.59644 245.59644 200 252.5 200 C 259.40356 200 265 205.59644 265 212.5 C 265 219.40356 259.40356 225 252.5 225 C 245.59644 225 240 219.40356 240 212.5 Z" stroke-miterlimit="10"/></g><g transform="translate(-230,-118) scale(1,1)"><path fill="#000000" stroke="none" d="M 245 212.5 C 245 208.357864 248.357864 205 252.5 205 C 256.642136 205 260 208.357864 260 212.5 C 260 216.642136 256.642136 220 252.5 220 C 248.357864 220 245 216.642136 245 212.5 Z"/></g><g transform="translate(-230,-118) scale(1,1)"><path fill="none" stroke="#000000" d="M 465 148 L 464 191" stroke-miterlimit="10"/></g><g transform="translate(-230,-118) scale(1,1)"><path fill="none" stroke="#000000" d="M 460.0278974963755 180.7422028826507 L 464 191 L 468.44465728583253 180.9379414824055" stroke-miterlimit="10"/></g><g transform="translate(-230,-118) scale(1,1)"><path fill="none" stroke="#000000" d="M 423 234 L 392 248 L 392 312 L 431 330" stroke-miterlimit="10"/></g><g transform="translate(-230,-118) scale(1,1)"><path fill="none" stroke="#000000" d="M 420.00867115256443 329.5633191468237 L 431 330 L 423.53673683022225 321.91917684523173" stroke-miterlimit="10"/></g><g transform="translate(-230,-118) scale(1,1)"><g><path fill="none" stroke="none"/><text fill="#000000" stroke="none" font-family="Arial" font-size="13px" font-style="normal" font-weight="normal" text-decoration="none" x="261.5" y="291.5">booked by a member</text></g></g><g transform="translate(-230,-118) scale(1,1)"><path fill="none" stroke="#000000" d="M 503 331 L 544 312 L 544 248 L 506 232" stroke-miterlimit="10"/></g><g transform="translate(-230,-118) scale(1,1)"><path fill="none" stroke="#000000" d="M 516.9998134869036 232.0640566415997 L 506 232 L 513.7327478227216 239.82333759403198" stroke-miterlimit="10"/></g><g transform="translate(-230,-118) scale(1,1)"><g><path fill="none" stroke="none"/><text fill="#000000" stroke="none" font-family="Arial" font-size="13px" font-style="normal" font-weight="normal" text-decoration="none" x="550.5" y="291.5">returned</text></g></g><g transform="translate(-230,-118) scale(1,1)"><path fill="none" stroke="#000000" d="M 466 368 L 468 431" stroke-miterlimit="10"/></g><g transform="translate(-230,-118) scale(1,1)"><path fill="none" stroke="#000000" d="M 463.47013969096975 420.976010495782 L 468 431 L 471.88493601063226 420.7088741046816" stroke-miterlimit="10"/></g><g transform="translate(-230,-118) scale(1,1)"><g><path fill="none" stroke="none"/><text fill="#000000" stroke="none" font-family="Arial" font-size="13px" font-style="normal" font-weight="normal" text-decoration="none" x="470.5" y="404.5">lost</text></g></g><g transform="translate(-230,-118) scale(1,1)"><path fill="none" stroke="#000000" d="M 423 214 L 266 212" stroke-miterlimit="10"/></g><g transform="translate(-230,-118) scale(1,1)"><path fill="none" stroke="#000000" d="M 276.2154704462202 207.92027408244115 L 266 212 L 276.10823028722143 216.3386265638447" stroke-miterlimit="10"/></g><g transform="translate(-230,-118) scale(1,1)"><g><path fill="none" stroke="none"/><text fill="#000000" stroke="none" font-family="Arial" font-size="13px" font-style="normal" font-weight="normal" text-decoration="none" x="285.5" y="233.5">not usable anymore</text></g></g></g></svg>