<svg version="1.1" xmlns="http://www.w3.org/2000/svg" xmlns:xlink="http://www.w3.org/1999/xlink" width="1163" height="1374"><defs/><g><g transform="translate(-102,-38) scale(1,1)"><path fill="#ffffff" stroke="none" d="M 176.40935031960228 225.68 C 176.40935031960228 220.886167936 180.29519264454774 217 185.088623046875 217 C 189.88205344920226 217 193.76789577414772 220.886167936 193.76789577414772 225.68 C 193.76789577414772 230.47383206400002 189.88205344920226 234.36 185.088623046875 234.36 C 180.29519264454774 234.36 176.40935031960228 230.47383206400002 176.40935031960228 225.68 Z"/></g><g transform="translate(-102,-38) scale(1,1)"><path fill="none" stroke="#000000" d="M 176.40935031960228 225.68 C 176.40935031960228 220.886167936 180.29519264454774 217 185.088623046875 217 C 189.88205344920226 217 193.76789577414772 220.886167936 193.76789577414772 225.68 C 193.76789577414772 230.47383206400002 189.88205344920226 234.36 185.088623046875 234.36 C 180.29519264454774 234.36 176.40935031960228 230.47383206400002 176.40935031960228 225.68 Z" stroke-miterlimit="10"/></g><g transform="translate(-102,-38) scale(1,1)"><path fill="none" stroke="#000000" d="M 185.088623046875 234.36 L 185.088623046875 251.64" stroke-miterlimit="10"/></g><g transform="translate(-102,-38) scale(1,1)"><path fill="none" stroke="#000000" d="M 175.89880486505683 240.84 L 194.27844122869317 240.84" stroke-miterlimit="10"/></g><g transform="translate(-102,-38) scale(1,1)"><path fill="none" stroke="#000000" d="M 185.088623046875 251.64 L 172.32498668323865 269" stroke-miterlimit="10"/></g><g transform="translate(-102,-38) scale(1,1)"><path fill="none" stroke="#000000" d="M 185.088623046875 251.64 L 197.85225941051135 269" stroke-miterlimit="10"/></g><g transform="translate(-102,-38) scale(1,1)"><g><path fill="none" stroke="none"/><text fill="#000000" stroke="none" font-family="Arial" font-size="13px" font-style="normal" font-weight="bold" text-decoration="none" x="168.114990234375" y="289.5">visitor</text></g></g><g transform="translate(-102,-38) scale(1,1)"><path fill="#ffffff" stroke="none" d="M 173.10978977272728 417.68 C 173.10978977272728 412.886167936 176.99563209767274 409 181.7890625 409 C 186.58249290232726 409 190.46833522727272 412.886167936 190.46833522727272 417.68 C 190.46833522727272 422.473832064 186.58249290232726 426.36 181.7890625 426.36 C 176.99563209767274 426.36 173.10978977272728 422.473832064 173.10978977272728 417.68 Z"/></g><g transform="translate(-102,-38) scale(1,1)"><path fill="none" stroke="#000000" d="M 173.10978977272728 417.68 C 173.10978977272728 412.886167936 176.99563209767274 409 181.7890625 409 C 186.58249290232726 409 190.46833522727272 412.886167936 190.46833522727272 417.68 C 190.46833522727272 422.473832064 186.58249290232726 426.36 181.7890625 426.36 C 176.99563209767274 426.36 173.10978977272728 422.473832064 173.10978977272728 417.68 Z" stroke-miterlimit="10"/></g><g transform="translate(-102,-38) scale(1,1)"><path fill="none" stroke="#000000" d="M 181.7890625 426.36 L 181.7890625 443.64" stroke-miterlimit="10"/></g><g transform="translate(-102,-38) scale(1,1)"><path fill="none" stroke="#000000" d="M 172.59924431818183 432.84 L 190.97888068181817 432.84" stroke-miterlimit="10"/></g><g transform="translate(-102,-38) scale(1,1)"><path fill="none" stroke="#000000" d="M 181.7890625 443.64 L 169.02542613636365 461" stroke-miterlimit="10"/></g><g transform="translate(-102,-38) scale(1,1)"><path fill="none" stroke="#000000" d="M 181.7890625 443.64 L 194.55269886363635 461" stroke-miterlimit="10"/></g><g transform="translate(-102,-38) scale(1,1)"><g><path fill="none" stroke="none"/><text fill="#000000" stroke="none" font-family="Arial" font-size="13px" font-style="normal" font-weight="bold" text-decoration="none" x="157.950439453125" y="481.5">member</text></g></g><g transform="translate(-102,-38) scale(1,1)"><path fill="#ffffff" stroke="none" d="M 173.46843235085228 673.6800000000001 C 173.46843235085228 668.8861679360001 177.35427467579774 665 182.147705078125 665 C 186.94113548045226 665 190.82697780539772 668.8861679360001 190.82697780539772 673.6800000000001 C 190.82697780539772 678.473832064 186.94113548045226 682.36 182.147705078125 682.36 C 177.35427467579774 682.36 173.46843235085228 678.473832064 173.46843235085228 673.6800000000001 Z"/></g><g transform="translate(-102,-38) scale(1,1)"><path fill="none" stroke="#000000" d="M 173.46843235085228 673.6800000000001 C 173.46843235085228 668.8861679360001 177.35427467579774 665 182.147705078125 665 C 186.94113548045226 665 190.82697780539772 668.8861679360001 190.82697780539772 673.6800000000001 C 190.82697780539772 678.473832064 186.94113548045226 682.36 182.147705078125 682.36 C 177.35427467579774 682.36 173.46843235085228 678.473832064 173.46843235085228 673.6800000000001 Z" stroke-miterlimit="10"/></g><g transform="translate(-102,-38) scale(1,1)"><path fill="none" stroke="#000000" d="M 182.147705078125 682.36 L 182.147705078125 699.64" stroke-miterlimit="10"/></g><g transform="translate(-102,-38) scale(1,1)"><path fill="none" stroke="#000000" d="M 172.95788689630683 688.84 L 191.33752325994317 688.84" stroke-miterlimit="10"/></g><g transform="translate(-102,-38) scale(1,1)"><path fill="none" stroke="#000000" d="M 182.147705078125 699.64 L 169.38406871448865 717" stroke-miterlimit="10"/></g><g transform="translate(-102,-38) scale(1,1)"><path fill="none" stroke="#000000" d="M 182.147705078125 699.64 L 194.91134144176135 717" stroke-miterlimit="10"/></g><g transform="translate(-102,-38) scale(1,1)"><g><path fill="none" stroke="none"/><text fill="#000000" stroke="none" font-family="Arial" font-size="13px" font-style="normal" font-weight="bold" text-decoration="none" x="159.0263671875" y="737.5">librarian</text></g></g><g transform="translate(-102,-38) scale(1,1)"><path fill="#C0C0C0" stroke="none" d="M 487 171.5 C 487 146.9233264 517.4446336 127 555 127 C 592.5553664 127 623 146.9233264 623 171.5 C 623 196.0766736 592.5553664 216 555 216 C 517.4446336 216 487 196.0766736 487 171.5 Z" opacity="0.2"/></g><g transform="translate(-102,-38) scale(1,1)"><path fill="#ffffff" stroke="none" d="M 480 164.5 C 480 139.9233264 510.4446336 120 548 120 C 585.5553664 120 616 139.9233264 616 164.5 C 616 189.0766736 585.5553664 209 548 209 C 510.4446336 209 480 189.0766736 480 164.5 Z"/></g><g transform="translate(-102,-38) scale(1,1)"><path fill="none" stroke="#000000" d="M 480 164.5 C 480 139.9233264 510.4446336 120 548 120 C 585.5553664 120 616 139.9233264 616 164.5 C 616 189.0766736 585.5553664 209 548 209 C 510.4446336 209 480 189.0766736 480 164.5 Z" stroke-miterlimit="10"/></g><g transform="translate(-102,-38) scale(1,1)"><g><path fill="none" stroke="none"/><text fill="#000000" stroke="none" font-family="Arial" font-size="13px" font-style="normal" font-weight="bold" text-decoration="none" x="520.543212890625" y="152">clic to get</text><text fill="#000000" stroke="none" font-family="Arial" font-size="13px" font-style="normal" font-weight="bold" text-decoration="none" x="511.869140625" y="165">redirected to</text><text fill="#000000" stroke="none" font-family="Arial" font-size="13px" font-style="normal" font-weight="bold" text-decoration="none" x="513.878173828125" y="178">the school's</text><text fill="#000000" stroke="none" font-family="Arial" font-size="13px" font-style="normal" font-weight="bold" text-decoration="none" x="525.9609375" y="191">website</text></g></g><g transform="translate(-102,-38) scale(1,1)"><path fill="#C0C0C0" stroke="none" d="M 495 256 C 495 246.6111584 526.5639216 239 565.5 239 C 604.4360784 239 636 246.6111584 636 256 C 636 265.3888416 604.4360784 273 565.5 273 C 526.5639216 273 495 265.3888416 495 256 Z" opacity="0.2"/></g><g transform="translate(-102,-38) scale(1,1)"><path fill="#ffffff" stroke="none" d="M 488 249 C 488 239.6111584 519.5639216 232 558.5 232 C 597.4360784 232 629 239.6111584 629 249 C 629 258.3888416 597.4360784 266 558.5 266 C 519.5639216 266 488 258.3888416 488 249 Z"/></g><g transform="translate(-102,-38) scale(1,1)"><path fill="none" stroke="#000000" d="M 488 249 C 488 239.6111584 519.5639216 232 558.5 232 C 597.4360784 232 629 239.6111584 629 249 C 629 258.3888416 597.4360784 266 558.5 266 C 519.5639216 266 488 258.3888416 488 249 Z" stroke-miterlimit="10"/></g><g transform="translate(-102,-38) scale(1,1)"><g><path fill="none" stroke="none"/><text fill="#000000" stroke="none" font-family="Arial" font-size="13px" font-style="normal" font-weight="bold" text-decoration="none" x="515.869140625" y="256">search an item</text></g></g><g transform="translate(-102,-38) scale(1,1)"><path fill="#C0C0C0" stroke="none" d="M 487 338.5 C 487 318.8938896 519.2354944 303 559 303 C 598.7645056 303 631 318.8938896 631 338.5 C 631 358.1061104 598.7645056 374 559 374 C 519.2354944 374 487 358.1061104 487 338.5 Z" opacity="0.2"/></g><g transform="translate(-102,-38) scale(1,1)"><path fill="#ffffff" stroke="none" d="M 480 331.5 C 480 311.8938896 512.2354944 296 552 296 C 591.7645056 296 624 311.8938896 624 331.5 C 624 351.1061104 591.7645056 367 552 367 C 512.2354944 367 480 351.1061104 480 331.5 Z"/></g><g transform="translate(-102,-38) scale(1,1)"><path fill="none" stroke="#000000" d="M 480 331.5 C 480 311.8938896 512.2354944 296 552 296 C 591.7645056 296 624 311.8938896 624 331.5 C 624 351.1061104 591.7645056 367 552 367 C 512.2354944 367 480 351.1061104 480 331.5 Z" stroke-miterlimit="10"/></g><g transform="translate(-102,-38) scale(1,1)"><g><path fill="none" stroke="none"/><text fill="#000000" stroke="none" font-family="Arial" font-size="13px" font-style="normal" font-weight="bold" text-decoration="none" x="531.04638671875" y="332">browse</text><text fill="#000000" stroke="none" font-family="Arial" font-size="13px" font-style="normal" font-weight="bold" text-decoration="none" x="512.476318359375" y="345">library's items</text></g></g><g transform="translate(-102,-38) scale(1,1)"><path fill="#C0C0C0" stroke="none" d="M 735 338.5 C 735 318.8938896 761.862912 303 795 303 C 828.137088 303 855 318.8938896 855 338.5 C 855 358.1061104 828.137088 374 795 374 C 761.862912 374 735 358.1061104 735 338.5 Z" opacity="0.2"/></g><g transform="translate(-102,-38) scale(1,1)"><path fill="#ffffff" stroke="none" d="M 728 331.5 C 728 311.8938896 754.862912 296 788 296 C 821.137088 296 848 311.8938896 848 331.5 C 848 351.1061104 821.137088 367 788 367 C 754.862912 367 728 351.1061104 728 331.5 Z"/></g><g transform="translate(-102,-38) scale(1,1)"><path fill="none" stroke="#000000" d="M 728 331.5 C 728 311.8938896 754.862912 296 788 296 C 821.137088 296 848 311.8938896 848 331.5 C 848 351.1061104 821.137088 367 788 367 C 754.862912 367 728 351.1061104 728 331.5 Z" stroke-miterlimit="10"/></g><g transform="translate(-102,-38) scale(1,1)"><g><path fill="none" stroke="none"/><text fill="#000000" stroke="none" font-family="Arial" font-size="13px" font-style="normal" font-weight="bold" text-decoration="none" x="761.984130859375" y="325.5">check an</text><text fill="#000000" stroke="none" font-family="Arial" font-size="13px" font-style="normal" font-weight="bold" text-decoration="none" x="771.2294921875" y="338.5">item's</text><text fill="#000000" stroke="none" font-family="Arial" font-size="13px" font-style="normal" font-weight="bold" text-decoration="none" x="756.56640625" y="351.5">description</text></g></g><g transform="translate(-102,-38) scale(1,1)"><path fill="none" stroke="#000000" d="M 727 331 L 625 331" stroke-miterlimit="10" stroke-dasharray="3"/></g><g transform="translate(-102,-38) scale(1,1)"><path fill="none" stroke="#000000" d="M 635.1626748576241 326.790482243984 L 625 331 L 635.1626748576241 335.209517756016" stroke-miterlimit="10"/></g><g transform="translate(-102,-38) scale(1,1)"><g><path fill="none" stroke="none"/><text fill="#000000" stroke="none" font-family="Arial" font-size="13px" font-style="normal" font-weight="normal" text-decoration="none" x="648.5" y="367.5">«extend»</text></g></g><g transform="translate(-102,-38) scale(1,1)"><path fill="none" stroke="#000000" d="M 211 248 L 479 181" stroke-miterlimit="10"/></g><g transform="translate(-102,-38) scale(1,1)"><path fill="none" stroke="#000000" d="M 211 255 L 487 250" stroke-miterlimit="10"/></g><g transform="translate(-102,-38) scale(1,1)"><path fill="none" stroke="#000000" d="M 479 316 L 211 260" stroke-miterlimit="10"/></g><g transform="translate(-102,-38) scale(1,1)"><path fill="#C0C0C0" stroke="none" d="M 479 400 C 479 390.6111584 501.6096176 383 529.5 383 C 557.3903824 383 580 390.6111584 580 400 C 580 409.3888416 557.3903824 417 529.5 417 C 501.6096176 417 479 409.3888416 479 400 Z" opacity="0.2"/></g><g transform="translate(-102,-38) scale(1,1)"><path fill="#ffffff" stroke="none" d="M 472 393 C 472 383.6111584 494.6096176 376 522.5 376 C 550.3903824 376 573 383.6111584 573 393 C 573 402.3888416 550.3903824 410 522.5 410 C 494.6096176 410 472 402.3888416 472 393 Z"/></g><g transform="translate(-102,-38) scale(1,1)"><path fill="none" stroke="#000000" d="M 472 393 C 472 383.6111584 494.6096176 376 522.5 376 C 550.3903824 376 573 383.6111584 573 393 C 573 402.3888416 550.3903824 410 522.5 410 C 494.6096176 410 472 402.3888416 472 393 Z" stroke-miterlimit="10"/></g><g transform="translate(-102,-38) scale(1,1)"><g><path fill="none" stroke="none"/><text fill="#000000" stroke="none" font-family="Arial" font-size="13px" font-style="normal" font-weight="bold" text-decoration="none" x="499.734130859375" y="400">connect</text></g></g><g transform="translate(-102,-38) scale(1,1)"><path fill="none" stroke="#000000" d="M 478 375 L 211 266" stroke-miterlimit="10"/></g><g transform="translate(-102,-38) scale(1,1)"><path fill="#C0C0C0" stroke="none" d="M 727 464 C 727 454.6111584 755.2060576 447 790 447 C 824.7939424 447 853 454.6111584 853 464 C 853 473.3888416 824.7939424 481 790 481 C 755.2060576 481 727 473.3888416 727 464 Z" opacity="0.2"/></g><g transform="translate(-102,-38) scale(1,1)"><path fill="#ffffff" stroke="none" d="M 720 457 C 720 447.6111584 748.2060576 440 783 440 C 817.7939424 440 846 447.6111584 846 457 C 846 466.3888416 817.7939424 474 783 474 C 748.2060576 474 720 466.3888416 720 457 Z"/></g><g transform="translate(-102,-38) scale(1,1)"><path fill="none" stroke="#000000" d="M 720 457 C 720 447.6111584 748.2060576 440 783 440 C 817.7939424 440 846 447.6111584 846 457 C 846 466.3888416 817.7939424 474 783 474 C 748.2060576 474 720 466.3888416 720 457 Z" stroke-miterlimit="10"/></g><g transform="translate(-102,-38) scale(1,1)"><g><path fill="none" stroke="none"/><text fill="#000000" stroke="none" font-family="Arial" font-size="13px" font-style="normal" font-weight="bold" text-decoration="none" x="745.78369140625" y="464">book an item</text></g></g><g transform="translate(-102,-38) scale(1,1)"><path fill="#C0C0C0" stroke="none" d="M 263 400 C 263 390.6111584 287.62433599999997 383 318 383 C 348.37566400000003 383 373 390.6111584 373 400 C 373 409.3888416 348.37566400000003 417 318 417 C 287.62433599999997 417 263 409.3888416 263 400 Z" opacity="0.2"/></g><g transform="translate(-102,-38) scale(1,1)"><path fill="#ffffff" stroke="none" d="M 256 393 C 256 383.6111584 280.62433599999997 376 311 376 C 341.37566400000003 376 366 383.6111584 366 393 C 366 402.3888416 341.37566400000003 410 311 410 C 280.62433599999997 410 256 402.3888416 256 393 Z"/></g><g transform="translate(-102,-38) scale(1,1)"><path fill="none" stroke="#000000" d="M 256 393 C 256 383.6111584 280.62433599999997 376 311 376 C 341.37566400000003 376 366 383.6111584 366 393 C 366 402.3888416 341.37566400000003 410 311 410 C 280.62433599999997 410 256 402.3888416 256 393 Z" stroke-miterlimit="10"/></g><g transform="translate(-102,-38) scale(1,1)"><g><path fill="none" stroke="none"/><text fill="#000000" stroke="none" font-family="Arial" font-size="13px" font-style="normal" font-weight="bold" text-decoration="none" x="279.925048828125" y="400">disconnect</text></g></g><g transform="translate(-102,-38) scale(1,1)"><path fill="#C0C0C0" stroke="none" d="M 727 555.5 C 727 530.9233264 753.862912 511 787 511 C 820.137088 511 847 530.9233264 847 555.5 C 847 580.0766736 820.137088 600 787 600 C 753.862912 600 727 580.0766736 727 555.5 Z" opacity="0.2"/></g><g transform="translate(-102,-38) scale(1,1)"><path fill="#ffffff" stroke="none" d="M 720 548.5 C 720 523.9233264 746.862912 504 780 504 C 813.137088 504 840 523.9233264 840 548.5 C 840 573.0766736 813.137088 593 780 593 C 746.862912 593 720 573.0766736 720 548.5 Z"/></g><g transform="translate(-102,-38) scale(1,1)"><path fill="none" stroke="#000000" d="M 720 548.5 C 720 523.9233264 746.862912 504 780 504 C 813.137088 504 840 523.9233264 840 548.5 C 840 573.0766736 813.137088 593 780 593 C 746.862912 593 720 573.0766736 720 548.5 Z" stroke-miterlimit="10"/></g><g transform="translate(-102,-38) scale(1,1)"><g><path fill="none" stroke="none"/><text fill="#000000" stroke="none" font-family="Arial" font-size="13px" font-style="normal" font-weight="bold" text-decoration="none" x="763.02001953125" y="536">check</text><text fill="#000000" stroke="none" font-family="Arial" font-size="13px" font-style="normal" font-weight="bold" text-decoration="none" x="759.77001953125" y="549">current</text><text fill="#000000" stroke="none" font-family="Arial" font-size="13px" font-style="normal" font-weight="bold" text-decoration="none" x="750.004150390625" y="562">books and</text><text fill="#000000" stroke="none" font-family="Arial" font-size="13px" font-style="normal" font-weight="bold" text-decoration="none" x="756.8818359375" y="575">borrows</text></g></g><g transform="translate(-102,-38) scale(1,1)"><path fill="#C0C0C0" stroke="none" d="M 735 666.5 C 735 646.8938896 758.2811904 631 787 631 C 815.7188096 631 839 646.8938896 839 666.5 C 839 686.1061104 815.7188096 702 787 702 C 758.2811904 702 735 686.1061104 735 666.5 Z" opacity="0.2"/></g><g transform="translate(-102,-38) scale(1,1)"><path fill="#ffffff" stroke="none" d="M 728 659.5 C 728 639.8938896 751.2811904 624 780 624 C 808.7188096 624 832 639.8938896 832 659.5 C 832 679.1061104 808.7188096 695 780 695 C 751.2811904 695 728 679.1061104 728 659.5 Z"/></g><g transform="translate(-102,-38) scale(1,1)"><path fill="none" stroke="#000000" d="M 728 659.5 C 728 639.8938896 751.2811904 624 780 624 C 808.7188096 624 832 639.8938896 832 659.5 C 832 679.1061104 808.7188096 695 780 695 C 751.2811904 695 728 679.1061104 728 659.5 Z" stroke-miterlimit="10"/></g><g transform="translate(-102,-38) scale(1,1)"><g><path fill="none" stroke="none"/><text fill="#000000" stroke="none" font-family="Arial" font-size="13px" font-style="normal" font-weight="bold" text-decoration="none" x="763.02001953125" y="653.5">check</text><text fill="#000000" stroke="none" font-family="Arial" font-size="13px" font-style="normal" font-weight="bold" text-decoration="none" x="757.234130859375" y="666.5">account</text><text fill="#000000" stroke="none" font-family="Arial" font-size="13px" font-style="normal" font-weight="bold" text-decoration="none" x="769.52001953125" y="679.5">info</text></g></g><g transform="translate(-102,-38) scale(1,1)"><path fill="#C0C0C0" stroke="none" d="M 919 666.5 C 919 646.8938896 940.4903296 631 967 631 C 993.5096704 631 1015 646.8938896 1015 666.5 C 1015 686.1061104 993.5096704 702 967 702 C 940.4903296 702 919 686.1061104 919 666.5 Z" opacity="0.2"/></g><g transform="translate(-102,-38) scale(1,1)"><path fill="#ffffff" stroke="none" d="M 912 659.5 C 912 639.8938896 933.4903296 624 960 624 C 986.5096704 624 1008 639.8938896 1008 659.5 C 1008 679.1061104 986.5096704 695 960 695 C 933.4903296 695 912 679.1061104 912 659.5 Z"/></g><g transform="translate(-102,-38) scale(1,1)"><path fill="none" stroke="#000000" d="M 912 659.5 C 912 639.8938896 933.4903296 624 960 624 C 986.5096704 624 1008 639.8938896 1008 659.5 C 1008 679.1061104 986.5096704 695 960 695 C 933.4903296 695 912 679.1061104 912 659.5 Z" stroke-miterlimit="10"/></g><g transform="translate(-102,-38) scale(1,1)"><g><path fill="none" stroke="none"/><text fill="#000000" stroke="none" font-family="Arial" font-size="13px" font-style="normal" font-weight="bold" text-decoration="none" x="940.119140625" y="653.5">update</text><text fill="#000000" stroke="none" font-family="Arial" font-size="13px" font-style="normal" font-weight="bold" text-decoration="none" x="937.234130859375" y="666.5">account</text><text fill="#000000" stroke="none" font-family="Arial" font-size="13px" font-style="normal" font-weight="bold" text-decoration="none" x="949.52001953125" y="679.5">info</text></g></g><g transform="translate(-102,-38) scale(1,1)"><path fill="none" stroke="#000000" d="M 213 448 L 719 456" stroke-miterlimit="10"/></g><g transform="translate(-102,-38) scale(1,1)"><path fill="none" stroke="#000000" d="M 268 411 L 213 434" stroke-miterlimit="10"/></g><g transform="translate(-102,-38) scale(1,1)"><path fill="none" stroke="#000000" d="M 727 640 L 213 458" stroke-miterlimit="10"/></g><g transform="translate(-102,-38) scale(1,1)"><path fill="none" stroke="#000000" d="M 719 538 L 213 452" stroke-miterlimit="10"/></g><g transform="translate(-102,-38) scale(1,1)"><path fill="none" stroke="#000000" d="M 911 659 L 833 659" stroke-miterlimit="10" stroke-dasharray="3"/></g><g transform="translate(-102,-38) scale(1,1)"><path fill="none" stroke="#000000" d="M 843.1626748576241 654.790482243984 L 833 659 L 843.1626748576241 663.209517756016" stroke-miterlimit="10"/></g><g transform="translate(-102,-38) scale(1,1)"><g><path fill="none" stroke="none"/><text fill="#000000" stroke="none" font-family="Arial" font-size="13px" font-style="normal" font-weight="normal" text-decoration="none" x="844.5" y="695.5">«extend»</text></g></g><g transform="translate(-102,-38) scale(1,1)"><path fill="none" stroke="#000000" d="M 784 439 L 787 368" stroke-miterlimit="10" stroke-dasharray="3"/></g><g transform="translate(-102,-38) scale(1,1)"><path fill="none" stroke="#000000" d="M 790.7767390431736 378.3313233518155 L 787 368 L 782.3652089875004 377.9759065888997" stroke-miterlimit="10"/></g><g transform="translate(-102,-38) scale(1,1)"><g><path fill="none" stroke="none"/><text fill="#000000" stroke="none" font-family="Arial" font-size="13px" font-style="normal" font-weight="normal" text-decoration="none" x="728.5" y="407.5">«extend»</text></g></g><g transform="translate(-102,-38) scale(1,1)"><path fill="none" stroke="#000000" d="M 561 411 L 624 440 L 719 450" stroke-miterlimit="10" stroke-dasharray="3"/></g><g transform="translate(-102,-38) scale(1,1)"><path fill="none" stroke="#000000" d="M 708.4524919786121 453.12251093493006 L 719 450 L 709.333836897039 444.7497342098753" stroke-miterlimit="10"/></g><g transform="translate(-102,-38) scale(1,1)"><g><path fill="none" stroke="none"/><text fill="#000000" stroke="none" font-family="Arial" font-size="13px" font-style="normal" font-weight="normal" text-decoration="none" x="591.5" y="427.5">«include»</text></g></g><g transform="translate(-102,-38) scale(1,1)"><path fill="none" stroke="#000000" d="M 471 393 L 367 393" stroke-miterlimit="10" stroke-dasharray="3"/></g><g transform="translate(-102,-38) scale(1,1)"><path fill="none" stroke="#000000" d="M 377.16267485762415 388.790482243984 L 367 393 L 377.16267485762415 397.209517756016" stroke-miterlimit="10"/></g><g transform="translate(-102,-38) scale(1,1)"><g><path fill="none" stroke="none"/><text fill="#000000" stroke="none" font-family="Arial" font-size="13px" font-style="normal" font-weight="normal" text-decoration="none" x="390.5" y="429.5">«include»</text></g></g><g transform="translate(-102,-38) scale(1,1)"><path fill="none" stroke="#000000" d="M 538 411 L 616 496 L 719 529" stroke-miterlimit="10" stroke-dasharray="3"/></g><g transform="translate(-102,-38) scale(1,1)"><path fill="none" stroke="#000000" d="M 708.0375437025967 529.9080484169491 L 719 529 L 710.6062856203746 521.8904600069154" stroke-miterlimit="10"/></g><g transform="translate(-102,-38) scale(1,1)"><g><path fill="none" stroke="none"/><text fill="#000000" stroke="none" font-family="Arial" font-size="13px" font-style="normal" font-weight="normal" text-decoration="none" x="599.5" y="484.5">«include»</text></g></g><g transform="translate(-102,-38) scale(1,1)"><path fill="none" stroke="#000000" d="M 528 411 L 576 552 L 727 631" stroke-miterlimit="10" stroke-dasharray="3"/></g><g transform="translate(-102,-38) scale(1,1)"><path fill="none" stroke="#000000" d="M 716.0438493578495 630.0187950741536 L 727 631 L 719.9466482420337 622.5590149284344" stroke-miterlimit="10"/></g><g transform="translate(-102,-38) scale(1,1)"><g><path fill="none" stroke="none"/><text fill="#000000" stroke="none" font-family="Arial" font-size="13px" font-style="normal" font-weight="normal" text-decoration="none" x="575.5" y="556.5">«include»</text></g></g><g transform="translate(-102,-38) scale(1,1)"><path fill="#C0C0C0" stroke="none" d="M 375 704 C 375 694.6111584 414.8466528 687 464 687 C 513.1533472 687 553 694.6111584 553 704 C 553 713.3888416 513.1533472 721 464 721 C 414.8466528 721 375 713.3888416 375 704 Z" opacity="0.2"/></g><g transform="translate(-102,-38) scale(1,1)"><path fill="#ffffff" stroke="none" d="M 368 697 C 368 687.6111584 407.8466528 680 457 680 C 506.1533472 680 546 687.6111584 546 697 C 546 706.3888416 506.1533472 714 457 714 C 407.8466528 714 368 706.3888416 368 697 Z"/></g><g transform="translate(-102,-38) scale(1,1)"><path fill="none" stroke="#000000" d="M 368 697 C 368 687.6111584 407.8466528 680 457 680 C 506.1533472 680 546 687.6111584 546 697 C 546 706.3888416 506.1533472 714 457 714 C 407.8466528 714 368 706.3888416 368 697 Z" stroke-miterlimit="10"/></g><g transform="translate(-102,-38) scale(1,1)"><g><path fill="none" stroke="none"/><text fill="#000000" stroke="none" font-family="Arial" font-size="13px" font-style="normal" font-weight="bold" text-decoration="none" x="402.81640625" y="704">check all members</text></g></g><g transform="translate(-102,-38) scale(1,1)"><path fill="#C0C0C0" stroke="none" d="M 543 760 C 543 750.6111584 567.624336 743 598 743 C 628.375664 743 653 750.6111584 653 760 C 653 769.3888416 628.375664 777 598 777 C 567.624336 777 543 769.3888416 543 760 Z" opacity="0.2"/></g><g transform="translate(-102,-38) scale(1,1)"><path fill="#ffffff" stroke="none" d="M 536 753 C 536 743.6111584 560.624336 736 591 736 C 621.375664 736 646 743.6111584 646 753 C 646 762.3888416 621.375664 770 591 770 C 560.624336 770 536 762.3888416 536 753 Z"/></g><g transform="translate(-102,-38) scale(1,1)"><path fill="none" stroke="#000000" d="M 536 753 C 536 743.6111584 560.624336 736 591 736 C 621.375664 736 646 743.6111584 646 753 C 646 762.3888416 621.375664 770 591 770 C 560.624336 770 536 762.3888416 536 753 Z" stroke-miterlimit="10"/></g><g transform="translate(-102,-38) scale(1,1)"><g><path fill="none" stroke="none"/><text fill="#000000" stroke="none" font-family="Arial" font-size="13px" font-style="normal" font-weight="bold" text-decoration="none" x="566.069580078125" y="760">add item</text></g></g><g transform="translate(-102,-38) scale(1,1)"><path fill="#C0C0C0" stroke="none" d="M 567 816 C 567 806.6111584 622.5166848 799 691 799 C 759.4833152 799 815 806.6111584 815 816 C 815 825.3888416 759.4833152 833 691 833 C 622.5166848 833 567 825.3888416 567 816 Z" opacity="0.2"/></g><g transform="translate(-102,-38) scale(1,1)"><path fill="#ffffff" stroke="none" d="M 560 809 C 560 799.6111584 615.5166848 792 684 792 C 752.4833152 792 808 799.6111584 808 809 C 808 818.3888416 752.4833152 826 684 826 C 615.5166848 826 560 818.3888416 560 809 Z"/></g><g transform="translate(-102,-38) scale(1,1)"><path fill="none" stroke="#000000" d="M 560 809 C 560 799.6111584 615.5166848 792 684 792 C 752.4833152 792 808 799.6111584 808 809 C 808 818.3888416 752.4833152 826 684 826 C 615.5166848 826 560 818.3888416 560 809 Z" stroke-miterlimit="10"/></g><g transform="translate(-102,-38) scale(1,1)"><g><path fill="none" stroke="none"/><text fill="#000000" stroke="none" font-family="Arial" font-size="13px" font-style="normal" font-weight="bold" text-decoration="none" x="606.67919921875" y="816">disable and reactivate item</text></g></g><g transform="translate(-102,-38) scale(1,1)"><path fill="#C0C0C0" stroke="none" d="M 727 888 C 727 878.6111584 763.0410736 871 807.5 871 C 851.9589264 871 888 878.6111584 888 888 C 888 897.3888416 851.9589264 905 807.5 905 C 763.0410736 905 727 897.3888416 727 888 Z" opacity="0.2"/></g><g transform="translate(-102,-38) scale(1,1)"><path fill="#ffffff" stroke="none" d="M 720 881 C 720 871.6111584 756.0410736 864 800.5 864 C 844.9589264 864 881 871.6111584 881 881 C 881 890.3888416 844.9589264 898 800.5 898 C 756.0410736 898 720 890.3888416 720 881 Z"/></g><g transform="translate(-102,-38) scale(1,1)"><path fill="none" stroke="#000000" d="M 720 881 C 720 871.6111584 756.0410736 864 800.5 864 C 844.9589264 864 881 871.6111584 881 881 C 881 890.3888416 844.9589264 898 800.5 898 C 756.0410736 898 720 890.3888416 720 881 Z" stroke-miterlimit="10"/></g><g transform="translate(-102,-38) scale(1,1)"><g><path fill="none" stroke="none"/><text fill="#000000" stroke="none" font-family="Arial" font-size="13px" font-style="normal" font-weight="bold" text-decoration="none" x="754.247802734375" y="888">update item info</text></g></g><g transform="translate(-102,-38) scale(1,1)"><path fill="none" stroke="#000000" d="M 367 699 L 213 702" stroke-miterlimit="10"/></g><g transform="translate(-102,-38) scale(1,1)"><path fill="none" stroke="#000000" d="M 535 746 L 213 707" stroke-miterlimit="10"/></g><g transform="translate(-102,-38) scale(1,1)"><path fill="none" stroke="#000000" d="M 599 791 L 213 710" stroke-miterlimit="10"/></g><g transform="translate(-102,-38) scale(1,1)"><path fill="none" stroke="#000000" d="M 738 863 L 213 712" stroke-miterlimit="10"/></g><g transform="translate(-102,-38) scale(1,1)"><path fill="none" stroke="#000000" d="M 518 411 L 461 679" stroke-miterlimit="10" stroke-dasharray="3"/></g><g transform="translate(-102,-38) scale(1,1)"><path fill="none" stroke="#000000" d="M 458.99675453098706 668.1839467646059 L 461 679 L 467.2315961329016 669.9353869560579" stroke-miterlimit="10"/></g><g transform="translate(-102,-38) scale(1,1)"><g><path fill="none" stroke="none"/><text fill="#000000" stroke="none" font-family="Arial" font-size="13px" font-style="normal" font-weight="normal" text-decoration="none" x="414.5" y="659.5">«include»</text></g></g><g transform="translate(-102,-38) scale(1,1)"><path fill="none" stroke="#000000" d="M 518 411 L 472 616 L 592 664 L 591 735" stroke-miterlimit="10" stroke-dasharray="3"/></g><g transform="translate(-102,-38) scale(1,1)"><path fill="none" stroke="#000000" d="M 586.9340217804229 724.7790498916233 L 591 735 L 595.3522223605827 724.8976160969777" stroke-miterlimit="10"/></g><g transform="translate(-102,-38) scale(1,1)"><g><path fill="none" stroke="none"/><text fill="#000000" stroke="none" font-family="Arial" font-size="13px" font-style="normal" font-weight="normal" text-decoration="none" x="806.5" y="844.5">«include»</text></g></g><g transform="translate(-102,-38) scale(1,1)"><path fill="none" stroke="#000000" d="M 518 411 L 472 616 L 688 696 L 685 791" stroke-miterlimit="10" stroke-dasharray="3"/></g><g transform="translate(-102,-38) scale(1,1)"><path fill="none" stroke="#000000" d="M 681.1133462792156 780.7095227100627 L 685 791 L 689.5281870712703 780.9752545245487" stroke-miterlimit="10"/></g><g transform="translate(-102,-38) scale(1,1)"><g><path fill="none" stroke="none"/><text fill="#000000" stroke="none" font-family="Arial" font-size="13px" font-style="normal" font-weight="normal" text-decoration="none" x="655.5" y="763.5">«include»</text></g></g><g transform="translate(-102,-38) scale(1,1)"><path fill="none" stroke="#000000" d="M 518 411 L 472 616 L 800 736 L 800 863" stroke-miterlimit="10" stroke-dasharray="3"/></g><g transform="translate(-102,-38) scale(1,1)"><path fill="none" stroke="#000000" d="M 795.790482243984 852.8373251423759 L 800 863 L 804.209517756016 852.8373251423759" stroke-miterlimit="10"/></g><g transform="translate(-102,-38) scale(1,1)"><g><path fill="none" stroke="none"/><text fill="#000000" stroke="none" font-family="Arial" font-size="13px" font-style="normal" font-weight="normal" text-decoration="none" x="551.5" y="716.5">«include»</text></g></g><g transform="translate(-102,-38) scale(1,1)"><path fill="none" stroke="#000000" d="M 849 330 L 1048 328 L 1048 832 L 882 865" stroke-miterlimit="10" stroke-dasharray="3"/></g><g transform="translate(-102,-38) scale(1,1)"><path fill="none" stroke="#000000" d="M 891.1468545950555 858.8897585140265 L 882 865 L 892.7883961001103 867.1472097212719" stroke-miterlimit="10"/></g><g transform="translate(-102,-38) scale(1,1)"><g><path fill="none" stroke="none"/><text fill="#000000" stroke="none" font-family="Arial" font-size="13px" font-style="normal" font-weight="normal" text-decoration="none" x="1051.5" y="585.5">«extend»</text></g></g><g transform="translate(-102,-38) scale(1,1)"><path fill="#C0C0C0" stroke="none" d="M 511 920 C 511 910.6111584 543.0116368 903 582.5 903 C 621.9883632 903 654 910.6111584 654 920 C 654 929.3888416 621.9883632 937 582.5 937 C 543.0116368 937 511 929.3888416 511 920 Z" opacity="0.2"/></g><g transform="translate(-102,-38) scale(1,1)"><path fill="#ffffff" stroke="none" d="M 504 913 C 504 903.6111584 536.0116368 896 575.5 896 C 614.9883632 896 647 903.6111584 647 913 C 647 922.3888416 614.9883632 930 575.5 930 C 536.0116368 930 504 922.3888416 504 913 Z"/></g><g transform="translate(-102,-38) scale(1,1)"><path fill="none" stroke="#000000" d="M 504 913 C 504 903.6111584 536.0116368 896 575.5 896 C 614.9883632 896 647 903.6111584 647 913 C 647 922.3888416 614.9883632 930 575.5 930 C 536.0116368 930 504 922.3888416 504 913 Z" stroke-miterlimit="10"/></g><g transform="translate(-102,-38) scale(1,1)"><g><path fill="none" stroke="none"/><text fill="#000000" stroke="none" font-family="Arial" font-size="13px" font-style="normal" font-weight="bold" text-decoration="none" x="531.7900390625" y="920">create member</text></g></g><g transform="translate(-102,-38) scale(1,1)"><path fill="#C0C0C0" stroke="none" d="M 879 984 C 879 974.6111584 941.9039855999999 967 1019.5 967 C 1097.0960144 967 1160 974.6111584 1160 984 C 1160 993.3888416 1097.0960144 1001 1019.5 1001 C 941.9039855999999 1001 879 993.3888416 879 984 Z" opacity="0.2"/></g><g transform="translate(-102,-38) scale(1,1)"><path fill="#ffffff" stroke="none" d="M 872 977 C 872 967.6111584 934.9039855999999 960 1012.5 960 C 1090.0960144 960 1153 967.6111584 1153 977 C 1153 986.3888416 1090.0960144 994 1012.5 994 C 934.9039855999999 994 872 986.3888416 872 977 Z"/></g><g transform="translate(-102,-38) scale(1,1)"><path fill="none" stroke="#000000" d="M 872 977 C 872 967.6111584 934.9039855999999 960 1012.5 960 C 1090.0960144 960 1153 967.6111584 1153 977 C 1153 986.3888416 1090.0960144 994 1012.5 994 C 934.9039855999999 994 872 986.3888416 872 977 Z" stroke-miterlimit="10"/></g><g transform="translate(-102,-38) scale(1,1)"><g><path fill="none" stroke="none"/><text fill="#000000" stroke="none" font-family="Arial" font-size="13px" font-style="normal" font-weight="bold" text-decoration="none" x="923.6201171875" y="984">disable and reactivate member</text></g></g><g transform="translate(-102,-38) scale(1,1)"><path fill="#C0C0C0" stroke="none" d="M 527 1056 C 527 1046.6111584 559.2354944 1039 599 1039 C 638.7645056 1039 671 1046.6111584 671 1056 C 671 1065.3888416 638.7645056 1073 599 1073 C 559.2354944 1073 527 1065.3888416 527 1056 Z" opacity="0.2"/></g><g transform="translate(-102,-38) scale(1,1)"><path fill="#ffffff" stroke="none" d="M 520 1049 C 520 1039.6111584 552.2354944 1032 592 1032 C 631.7645056 1032 664 1039.6111584 664 1049 C 664 1058.3888416 631.7645056 1066 592 1066 C 552.2354944 1066 520 1058.3888416 520 1049 Z"/></g><g transform="translate(-102,-38) scale(1,1)"><path fill="none" stroke="#000000" d="M 520 1049 C 520 1039.6111584 552.2354944 1032 592 1032 C 631.7645056 1032 664 1039.6111584 664 1049 C 664 1058.3888416 631.7645056 1066 592 1066 C 552.2354944 1066 520 1058.3888416 520 1049 Z" stroke-miterlimit="10"/></g><g transform="translate(-102,-38) scale(1,1)"><g><path fill="none" stroke="none"/><text fill="#000000" stroke="none" font-family="Arial" font-size="13px" font-style="normal" font-weight="bold" text-decoration="none" x="549.00732421875" y="1056">create librarian</text></g></g><g transform="translate(-102,-38) scale(1,1)"><path fill="none" stroke="#000000" d="M 503 912 L 456 912 L 457 715" stroke-miterlimit="10" stroke-dasharray="3"/></g><g transform="translate(-102,-38) scale(1,1)"><path fill="none" stroke="#000000" d="M 461.1578770058791 725.1839117633639 L 457 715 L 452.73894995931664 725.1411760930768" stroke-miterlimit="10"/></g><g transform="translate(-102,-38) scale(1,1)"><g><path fill="none" stroke="none"/><text fill="#000000" stroke="none" font-family="Arial" font-size="13px" font-style="normal" font-weight="normal" text-decoration="none" x="399.5" y="851.5">«extend»</text></g></g><g transform="translate(-102,-38) scale(1,1)"><path fill="none" stroke="#000000" d="M 1011 959 L 1008 896 L 816 696" stroke-miterlimit="10" stroke-dasharray="3"/></g><g transform="translate(-102,-38) scale(1,1)"><path fill="none" stroke="#000000" d="M 826.0746685352926 700.4159997626792 L 816 696 L 820.0012830616035 706.2464498174209" stroke-miterlimit="10"/></g><g transform="translate(-102,-38) scale(1,1)"><g><path fill="none" stroke="none"/><text fill="#000000" stroke="none" font-family="Arial" font-size="13px" font-style="normal" font-weight="normal" text-decoration="none" x="1015.5" y="939.5">«extend»</text></g></g><g transform="translate(-102,-38) scale(1,1)"><path fill="none" stroke="#000000" d="M 182 663 L 181 488" stroke-miterlimit="10"/></g><g transform="translate(-102,-38) scale(1,1)"><path fill="#FFFFFF" stroke="none" d="M 189.5350410210767 508.2769098920062 L 181 488 L 172.6972448975625 508.37312586985485"/></g><g transform="translate(-102,-38) scale(1,1)"><path fill="none" stroke="#000000" d="M 189.5350410210767 508.2769098920062 L 181 488 L 172.6972448975625 508.37312586985485 L 189.5350410210767 508.2769098920062" stroke-miterlimit="10"/></g><g transform="translate(-102,-38) scale(1,1)"><path fill="none" stroke="#000000" d="M 182 407 L 184 296" stroke-miterlimit="10"/></g><g transform="translate(-102,-38) scale(1,1)"><path fill="#FFFFFF" stroke="none" d="M 192.05150614409683 316.473720932248 L 184 296 L 175.21616768594248 316.1703815005696"/></g><g transform="translate(-102,-38) scale(1,1)"><path fill="none" stroke="#000000" d="M 192.05150614409683 316.473720932248 L 184 296 L 175.21616768594248 316.1703815005696 L 192.05150614409683 316.473720932248" stroke-miterlimit="10"/></g><g transform="translate(-102,-38) scale(1,1)"><path fill="#C0C0C0" stroke="none" d="M 263 1056 C 263 1046.6111584 302.8466528 1039 352 1039 C 401.1533472 1039 441 1046.6111584 441 1056 C 441 1065.3888416 401.1533472 1073 352 1073 C 302.8466528 1073 263 1065.3888416 263 1056 Z" opacity="0.2"/></g><g transform="translate(-102,-38) scale(1,1)"><path fill="#ffffff" stroke="none" d="M 256 1049 C 256 1039.6111584 295.8466528 1032 345 1032 C 394.1533472 1032 434 1039.6111584 434 1049 C 434 1058.3888416 394.1533472 1066 345 1066 C 295.8466528 1066 256 1058.3888416 256 1049 Z"/></g><g transform="translate(-102,-38) scale(1,1)"><path fill="none" stroke="#000000" d="M 256 1049 C 256 1039.6111584 295.8466528 1032 345 1032 C 394.1533472 1032 434 1039.6111584 434 1049 C 434 1058.3888416 394.1533472 1066 345 1066 C 295.8466528 1066 256 1058.3888416 256 1049 Z" stroke-miterlimit="10"/></g><g transform="translate(-102,-38) scale(1,1)"><g><path fill="none" stroke="none"/><text fill="#000000" stroke="none" font-family="Arial" font-size="13px" font-style="normal" font-weight="bold" text-decoration="none" x="291.53369140625" y="1056">check all librarians</text></g></g><g transform="translate(-102,-38) scale(1,1)"><path fill="none" stroke="#000000" d="M 507 411 L 344 608 L 345 1031" stroke-miterlimit="10" stroke-dasharray="3"/></g><g transform="translate(-102,-38) scale(1,1)"><path fill="none" stroke="#000000" d="M 340.76646883809593 1020.8473050916919 L 345 1031 L 349.1854808240359 1020.8274019900701" stroke-miterlimit="10"/></g><g transform="translate(-102,-38) scale(1,1)"><g><path fill="none" stroke="none"/><text fill="#000000" stroke="none" font-family="Arial" font-size="13px" font-style="normal" font-weight="normal" text-decoration="none" x="279.5" y="1012.5">«include»</text></g></g><g transform="translate(-102,-38) scale(1,1)"><path fill="none" stroke="#000000" d="M 519 1049 L 435 1049" stroke-miterlimit="10" stroke-dasharray="3"/></g><g transform="translate(-102,-38) scale(1,1)"><path fill="none" stroke="#000000" d="M 445.16267485762415 1044.7904822439841 L 435 1049 L 445.16267485762415 1053.2095177560159" stroke-miterlimit="10"/></g><g transform="translate(-102,-38) scale(1,1)"><g><path fill="none" stroke="none"/><text fill="#000000" stroke="none" font-family="Arial" font-size="13px" font-style="normal" font-weight="normal" text-decoration="none" x="463.5" y="1044.5">«extend»</text></g></g><g transform="translate(-102,-38) scale(1,1)"><path fill="none" stroke="#000000" d="M 200 744 L 224 800 L 224 1048 L 255 1048" stroke-miterlimit="10"/></g><g transform="translate(-102,-38) scale(1,1)"><path fill="#C0C0C0" stroke="none" d="M 863 1104 C 863 1094.6111584 926.1278432 1087 1004 1087 C 1081.8721568 1087 1145 1094.6111584 1145 1104 C 1145 1113.3888416 1081.8721568 1121 1004 1121 C 926.1278432 1121 863 1113.3888416 863 1104 Z" opacity="0.2"/></g><g transform="translate(-102,-38) scale(1,1)"><path fill="#ffffff" stroke="none" d="M 856 1097 C 856 1087.6111584 919.1278432 1080 997 1080 C 1074.8721568 1080 1138 1087.6111584 1138 1097 C 1138 1106.3888416 1074.8721568 1114 997 1114 C 919.1278432 1114 856 1106.3888416 856 1097 Z"/></g><g transform="translate(-102,-38) scale(1,1)"><path fill="none" stroke="#000000" d="M 856 1097 C 856 1087.6111584 919.1278432 1080 997 1080 C 1074.8721568 1080 1138 1087.6111584 1138 1097 C 1138 1106.3888416 1074.8721568 1114 997 1114 C 919.1278432 1114 856 1106.3888416 856 1097 Z" stroke-miterlimit="10"/></g><g transform="translate(-102,-38) scale(1,1)"><g><path fill="none" stroke="none"/><text fill="#000000" stroke="none" font-family="Arial" font-size="13px" font-style="normal" font-weight="bold" text-decoration="none" x="908.83740234375" y="1104">disable and reactivate librarian</text></g></g><g transform="translate(-102,-38) scale(1,1)"><path fill="none" stroke="#000000" d="M 855 1097 L 757 1097" stroke-miterlimit="10" stroke-dasharray="3"/></g><g transform="translate(-102,-38) scale(1,1)"><path fill="none" stroke="#000000" d="M 767.1626748576241 1092.7904822439841 L 757 1097 L 767.1626748576241 1101.2095177560159" stroke-miterlimit="10"/></g><g transform="translate(-102,-38) scale(1,1)"><g><path fill="none" stroke="none"/><text fill="#000000" stroke="none" font-family="Arial" font-size="13px" font-style="normal" font-weight="normal" text-decoration="none" x="775.5" y="1092.5">«extend»</text></g></g><g transform="translate(-102,-38) scale(1,1)"><path fill="#C0C0C0" stroke="none" d="M 871 552 C 871 542.6111584 907.4887888 535 952.5 535 C 997.5112112 535 1034 542.6111584 1034 552 C 1034 561.3888416 997.5112112 569 952.5 569 C 907.4887888 569 871 561.3888416 871 552 Z" opacity="0.2"/></g><g transform="translate(-102,-38) scale(1,1)"><path fill="#ffffff" stroke="none" d="M 864 545 C 864 535.6111584 900.4887888 528 945.5 528 C 990.5112112 528 1027 535.6111584 1027 545 C 1027 554.3888416 990.5112112 562 945.5 562 C 900.4887888 562 864 554.3888416 864 545 Z"/></g><g transform="translate(-102,-38) scale(1,1)"><path fill="none" stroke="#000000" d="M 864 545 C 864 535.6111584 900.4887888 528 945.5 528 C 990.5112112 528 1027 535.6111584 1027 545 C 1027 554.3888416 990.5112112 562 945.5 562 C 900.4887888 562 864 554.3888416 864 545 Z" stroke-miterlimit="10"/></g><g transform="translate(-102,-38) scale(1,1)"><g><path fill="none" stroke="none"/><text fill="#000000" stroke="none" font-family="Arial" font-size="13px" font-style="normal" font-weight="bold" text-decoration="none" x="896.721435546875" y="552">Change profil pic</text></g></g><g transform="translate(-102,-38) scale(1,1)"><path fill="none" stroke="#000000" d="M 919 563 L 832 623" stroke-miterlimit="10" stroke-dasharray="3"/></g><g transform="translate(-102,-38) scale(1,1)"><path fill="none" stroke="#000000" d="M 837.9761619237653 613.7649857249196 L 832 623 L 842.7559258400272 620.6956434034994" stroke-miterlimit="10"/></g><g transform="translate(-102,-38) scale(1,1)"><g><path fill="none" stroke="none"/><text fill="#000000" stroke="none" font-family="Arial" font-size="13px" font-style="normal" font-weight="normal" text-decoration="none" x="865.5" y="623.5">«extend»</text></g></g><g transform="translate(-102,-38) scale(1,1)"><path fill="#C0C0C0" stroke="none" d="M 263 1168 C 263 1158.6111584 305.3090864 1151 357.5 1151 C 409.6909136 1151 452 1158.6111584 452 1168 C 452 1177.3888416 409.6909136 1185 357.5 1185 C 305.3090864 1185 263 1177.3888416 263 1168 Z" opacity="0.2"/></g><g transform="translate(-102,-38) scale(1,1)"><path fill="#ffffff" stroke="none" d="M 256 1161 C 256 1151.6111584 298.3090864 1144 350.5 1144 C 402.6909136 1144 445 1151.6111584 445 1161 C 445 1170.3888416 402.6909136 1178 350.5 1178 C 298.3090864 1178 256 1170.3888416 256 1161 Z"/></g><g transform="translate(-102,-38) scale(1,1)"><path fill="none" stroke="#000000" d="M 256 1161 C 256 1151.6111584 298.3090864 1144 350.5 1144 C 402.6909136 1144 445 1151.6111584 445 1161 C 445 1170.3888416 402.6909136 1178 350.5 1178 C 298.3090864 1178 256 1170.3888416 256 1161 Z" stroke-miterlimit="10"/></g><g transform="translate(-102,-38) scale(1,1)"><g><path fill="none" stroke="none"/><text fill="#000000" stroke="none" font-family="Arial" font-size="13px" font-style="normal" font-weight="bold" text-decoration="none" x="293.050537109375" y="1168">Add units to an item</text></g></g><g transform="translate(-102,-38) scale(1,1)"><path fill="none" stroke="#000000" d="M 200 744 L 224 800 L 224 1160 L 255 1160" stroke-miterlimit="10"/></g><g transform="translate(-102,-38) scale(1,1)"><path fill="none" stroke="#000000" d="M 507 411 L 344 608 L 344 944 L 176 948 L 176 1120 L 352 1120 L 351 1143" stroke-miterlimit="10" stroke-dasharray="3"/></g><g transform="translate(-102,-38) scale(1,1)"><path fill="none" stroke="#000000" d="M 347.23589374918504 1132.6640673312672 L 351 1143 L 355.6469830248906 1133.0297668649937" stroke-miterlimit="10"/></g><g transform="translate(-102,-38) scale(1,1)"><g><path fill="none" stroke="none"/><text fill="#000000" stroke="none" font-family="Arial" font-size="13px" font-style="normal" font-weight="normal" text-decoration="none" x="262.5" y="1196.5">«include»</text></g></g><g transform="translate(-102,-38) scale(1,1)"><path fill="none" stroke="#000000" d="M 727 658 L 504 656 L 478 679" stroke-miterlimit="10" stroke-dasharray="3"/></g><g transform="translate(-102,-38) scale(1,1)"><path fill="none" stroke="#000000" d="M 482.8226920122618 669.1135627370187 L 478 679 L 488.400925055874 675.419391395015" stroke-miterlimit="10"/></g><g transform="translate(-102,-38) scale(1,1)"><g><path fill="none" stroke="none"/><text fill="#000000" stroke="none" font-family="Arial" font-size="13px" font-style="normal" font-weight="normal" text-decoration="none" x="663.5" y="652.5">«extend»</text></g></g><g transform="translate(-102,-38) scale(1,1)"><path fill="#C0C0C0" stroke="none" d="M 287 1240 C 287 1230.6111584 319.0116368 1223 358.5 1223 C 397.9883632 1223 430 1230.6111584 430 1240 C 430 1249.3888416 397.9883632 1257 358.5 1257 C 319.0116368 1257 287 1249.3888416 287 1240 Z" opacity="0.2"/></g><g transform="translate(-102,-38) scale(1,1)"><path fill="#ffffff" stroke="none" d="M 280 1233 C 280 1223.6111584 312.0116368 1216 351.5 1216 C 390.9883632 1216 423 1223.6111584 423 1233 C 423 1242.3888416 390.9883632 1250 351.5 1250 C 312.0116368 1250 280 1242.3888416 280 1233 Z"/></g><g transform="translate(-102,-38) scale(1,1)"><path fill="none" stroke="#000000" d="M 280 1233 C 280 1223.6111584 312.0116368 1216 351.5 1216 C 390.9883632 1216 423 1223.6111584 423 1233 C 423 1242.3888416 390.9883632 1250 351.5 1250 C 312.0116368 1250 280 1242.3888416 280 1233 Z" stroke-miterlimit="10"/></g><g transform="translate(-102,-38) scale(1,1)"><g><path fill="none" stroke="none"/><text fill="#000000" stroke="none" font-family="Arial" font-size="13px" font-style="normal" font-weight="bold" text-decoration="none" x="308.504150390625" y="1240">Check the logs</text></g></g><g transform="translate(-102,-38) scale(1,1)"><path fill="none" stroke="#000000" d="M 200 744 L 224 800 L 224 1232 L 279 1232" stroke-miterlimit="10"/></g><g transform="translate(-102,-38) scale(1,1)"><path fill="none" stroke="#000000" d="M 507 411 L 344 608 L 344 944 L 176 944 L 176 1200 L 352 1200 L 352 1215" stroke-miterlimit="10" stroke-dasharray="3"/></g><g transform="translate(-102,-38) scale(1,1)"><path fill="none" stroke="#000000" d="M 347.790482243984 1204.837325142376 L 352 1215 L 356.209517756016 1204.837325142376" stroke-miterlimit="10"/></g><g transform="translate(-102,-38) scale(1,1)"><g><path fill="none" stroke="none"/><text fill="#000000" stroke="none" font-family="Arial" font-size="13px" font-style="normal" font-weight="normal" text-decoration="none" x="262.5" y="1276.5">«include»</text></g></g><g transform="translate(-102,-38) scale(1,1)"><path fill="#C0C0C0" stroke="none" d="M 303 1328 C 303 1318.6111584 343.294368 1311 393 1311 C 442.705632 1311 483 1318.6111584 483 1328 C 483 1337.3888416 442.705632 1345 393 1345 C 343.294368 1345 303 1337.3888416 303 1328 Z" opacity="0.2"/></g><g transform="translate(-102,-38) scale(1,1)"><path fill="#ffffff" stroke="none" d="M 296 1321 C 296 1311.6111584 336.294368 1304 386 1304 C 435.705632 1304 476 1311.6111584 476 1321 C 476 1330.3888416 435.705632 1338 386 1338 C 336.294368 1338 296 1330.3888416 296 1321 Z"/></g><g transform="translate(-102,-38) scale(1,1)"><path fill="none" stroke="#000000" d="M 296 1321 C 296 1311.6111584 336.294368 1304 386 1304 C 435.705632 1304 476 1311.6111584 476 1321 C 476 1330.3888416 435.705632 1338 386 1338 C 336.294368 1338 296 1330.3888416 296 1321 Z" stroke-miterlimit="10"/></g><g transform="translate(-102,-38) scale(1,1)"><g><path fill="none" stroke="none"/><text fill="#000000" stroke="none" font-family="Arial" font-size="13px" font-style="normal" font-weight="bold" text-decoration="none" x="331.44189453125" y="1328">Check all bookings</text></g></g><g transform="translate(-102,-38) scale(1,1)"><path fill="none" stroke="#000000" d="M 200 744 L 224 800 L 224 1320 L 295 1320" stroke-miterlimit="10"/></g><g transform="translate(-102,-38) scale(1,1)"><path fill="#C0C0C0" stroke="none" d="M 583 1328 C 583 1318.6111584 656.873008 1311 748 1311 C 839.126992 1311 913 1318.6111584 913 1328 C 913 1337.3888416 839.126992 1345 748 1345 C 656.873008 1345 583 1337.3888416 583 1328 Z" opacity="0.2"/></g><g transform="translate(-102,-38) scale(1,1)"><path fill="#ffffff" stroke="none" d="M 576 1321 C 576 1311.6111584 649.873008 1304 741 1304 C 832.126992 1304 906 1311.6111584 906 1321 C 906 1330.3888416 832.126992 1338 741 1338 C 649.873008 1338 576 1330.3888416 576 1321 Z"/></g><g transform="translate(-102,-38) scale(1,1)"><path fill="none" stroke="#000000" d="M 576 1321 C 576 1311.6111584 649.873008 1304 741 1304 C 832.126992 1304 906 1311.6111584 906 1321 C 906 1330.3888416 832.126992 1338 741 1338 C 649.873008 1338 576 1330.3888416 576 1321 Z" stroke-miterlimit="10"/></g><g transform="translate(-102,-38) scale(1,1)"><g><path fill="none" stroke="none"/><text fill="#000000" stroke="none" font-family="Arial" font-size="13px" font-style="normal" font-weight="bold" text-decoration="none" x="637.15869140625" y="1328">Check a member's current bookings</text></g></g><g transform="translate(-102,-38) scale(1,1)"><path fill="none" stroke="#000000" d="M 575 1321 L 477 1321" stroke-miterlimit="10" stroke-dasharray="3"/></g><g transform="translate(-102,-38) scale(1,1)"><path fill="none" stroke="#000000" d="M 487.16267485762415 1316.7904822439841 L 477 1321 L 487.16267485762415 1325.2095177560159" stroke-miterlimit="10"/></g><g transform="translate(-102,-38) scale(1,1)"><g><path fill="none" stroke="none"/><text fill="#000000" stroke="none" font-family="Arial" font-size="13px" font-style="normal" font-weight="normal" text-decoration="none" x="503.5" y="1316.5">«extend»</text></g></g><g transform="translate(-102,-38) scale(1,1)"><path fill="none" stroke="#000000" d="M 719 566 L 552 616 L 478 679" stroke-miterlimit="10" stroke-dasharray="3"/></g><g transform="translate(-102,-38) scale(1,1)"><path fill="none" stroke="#000000" d="M 483.0093776605128 669.2068322053406 L 478 679 L 488.4669802701744 675.6173495563717" stroke-miterlimit="10"/></g><g transform="translate(-102,-38) scale(1,1)"><g><path fill="none" stroke="none"/><text fill="#000000" stroke="none" font-family="Arial" font-size="13px" font-style="normal" font-weight="normal" text-decoration="none" x="559.5" y="620.5">«extend»</text></g></g><g transform="translate(-102,-38) scale(1,1)"><path fill="none" stroke="#000000" d="M 507 411 L 344 608 L 344 944 L 176 944 L 176 1280 L 384 1280 L 385 1303" stroke-miterlimit="10" stroke-dasharray="3"/></g><g transform="translate(-102,-38) scale(1,1)"><path fill="none" stroke="#000000" d="M 380.3530169751094 1293.0297668649937 L 385 1303 L 388.7641062508149 1292.6640673312672" stroke-miterlimit="10"/></g><g transform="translate(-102,-38) scale(1,1)"><g><path fill="none" stroke="none"/><text fill="#000000" stroke="none" font-family="Arial" font-size="13px" font-style="normal" font-weight="normal" text-decoration="none" x="263.5" y="1115.5">«include»</text></g></g><g transform="translate(-102,-38) scale(1,1)"><path fill="#C0C0C0" stroke="none" d="M 527 1104 C 527 1094.6111584 579.8303936 1087 645 1087 C 710.1696064 1087 763 1094.6111584 763 1104 C 763 1113.3888416 710.1696064 1121 645 1121 C 579.8303936 1121 527 1113.3888416 527 1104 Z" opacity="0.2"/></g><g transform="translate(-102,-38) scale(1,1)"><path fill="#ffffff" stroke="none" d="M 520 1097 C 520 1087.6111584 572.8303936 1080 638 1080 C 703.1696064 1080 756 1087.6111584 756 1097 C 756 1106.3888416 703.1696064 1114 638 1114 C 572.8303936 1114 520 1106.3888416 520 1097 Z"/></g><g transform="translate(-102,-38) scale(1,1)"><path fill="none" stroke="#000000" d="M 520 1097 C 520 1087.6111584 572.8303936 1080 638 1080 C 703.1696064 1080 756 1087.6111584 756 1097 C 756 1106.3888416 703.1696064 1114 638 1114 C 572.8303936 1114 520 1106.3888416 520 1097 Z" stroke-miterlimit="10"/></g><g transform="translate(-102,-38) scale(1,1)"><g><path fill="none" stroke="none"/><text fill="#000000" stroke="none" font-family="Arial" font-size="13px" font-style="normal" font-weight="bold" text-decoration="none" x="565.5859375" y="1104">Check librarian's account</text></g></g><g transform="translate(-102,-38) scale(1,1)"><path fill="none" stroke="#000000" d="M 519 1096 L 464 1096 L 464 1048 L 435 1048" stroke-miterlimit="10" stroke-dasharray="3"/></g><g transform="translate(-102,-38) scale(1,1)"><path fill="none" stroke="#000000" d="M 445.16267485762415 1043.7904822439841 L 435 1048 L 445.16267485762415 1052.2095177560159" stroke-miterlimit="10"/></g><g transform="translate(-102,-38) scale(1,1)"><g><path fill="none" stroke="none"/><text fill="#000000" stroke="none" font-family="Arial" font-size="13px" font-style="normal" font-weight="normal" text-decoration="none" x="463.5" y="1091.5">«extend»</text></g></g><g transform="translate(-102,-38) scale(1,1)"><path fill="none" stroke="#000000" d="M 200 744 L 224 800 L 224 976 L 871 977" stroke-miterlimit="10"/></g><g transform="translate(-102,-38) scale(1,1)"><path fill="#C0C0C0" stroke="none" d="M 1015 1328 C 1015 1318.6111584 1070.2928272 1311 1138.5 1311 C 1206.7071728 1311 1262 1318.6111584 1262 1328 C 1262 1337.3888416 1206.7071728 1345 1138.5 1345 C 1070.2928272 1345 1015 1337.3888416 1015 1328 Z" opacity="0.2"/></g><g transform="translate(-102,-38) scale(1,1)"><path fill="#ffffff" stroke="none" d="M 1008 1321 C 1008 1311.6111584 1063.2928272 1304 1131.5 1304 C 1199.7071728 1304 1255 1311.6111584 1255 1321 C 1255 1330.3888416 1199.7071728 1338 1131.5 1338 C 1063.2928272 1338 1008 1330.3888416 1008 1321 Z"/></g><g transform="translate(-102,-38) scale(1,1)"><path fill="none" stroke="#000000" d="M 1008 1321 C 1008 1311.6111584 1063.2928272 1304 1131.5 1304 C 1199.7071728 1304 1255 1311.6111584 1255 1321 C 1255 1330.3888416 1199.7071728 1338 1131.5 1338 C 1063.2928272 1338 1008 1330.3888416 1008 1321 Z" stroke-miterlimit="10"/></g><g transform="translate(-102,-38) scale(1,1)"><g><path fill="none" stroke="none"/><text fill="#000000" stroke="none" font-family="Arial" font-size="13px" font-style="normal" font-weight="bold" text-decoration="none" x="1054.734619140625" y="1328">Update the booking's state</text></g></g><g transform="translate(-102,-38) scale(1,1)"><path fill="none" stroke="#000000" d="M 1007 1321 L 907 1321" stroke-miterlimit="10" stroke-dasharray="3"/></g><g transform="translate(-102,-38) scale(1,1)"><path fill="none" stroke="#000000" d="M 917.1626748576241 1316.7904822439841 L 907 1321 L 917.1626748576241 1325.2095177560159" stroke-miterlimit="10"/></g><g transform="translate(-102,-38) scale(1,1)"><g><path fill="none" stroke="none"/><text fill="#000000" stroke="none" font-family="Arial" font-size="13px" font-style="normal" font-weight="normal" text-decoration="none" x="929.5" y="1315.5">«extend»</text></g></g><g transform="translate(-102,-38) scale(1,1)"><path fill="#C0C0C0" stroke="none" d="M 311 1392 C 311 1382.6111584 401.4384704 1375 513 1375 C 624.5615296 1375 715 1382.6111584 715 1392 C 715 1401.3888416 624.5615296 1409 513 1409 C 401.4384704 1409 311 1401.3888416 311 1392 Z" opacity="0.2"/></g><g transform="translate(-102,-38) scale(1,1)"><path fill="#ffffff" stroke="none" d="M 304 1385 C 304 1375.6111584 394.4384704 1368 506 1368 C 617.5615296 1368 708 1375.6111584 708 1385 C 708 1394.3888416 617.5615296 1402 506 1402 C 394.4384704 1402 304 1394.3888416 304 1385 Z"/></g><g transform="translate(-102,-38) scale(1,1)"><path fill="none" stroke="#000000" d="M 304 1385 C 304 1375.6111584 394.4384704 1368 506 1368 C 617.5615296 1368 708 1375.6111584 708 1385 C 708 1394.3888416 617.5615296 1402 506 1402 C 394.4384704 1402 304 1394.3888416 304 1385 Z" stroke-miterlimit="10"/></g><g transform="translate(-102,-38) scale(1,1)"><g><path fill="none" stroke="none"/><text fill="#000000" stroke="none" font-family="Arial" font-size="13px" font-style="normal" font-weight="bold" text-decoration="none" x="378.459716796875" y="1392">Check general informations about the library</text></g></g><g transform="translate(-102,-38) scale(1,1)"><path fill="none" stroke="#000000" d="M 200 744 L 224 800 L 224 1384 L 303 1384" stroke-miterlimit="10"/></g><g transform="translate(-102,-38) scale(1,1)"><path fill="none" stroke="#000000" d="M 507 411 L 344 608 L 344 944 L 176 944 L 176 1344 L 504 1344 L 505 1367" stroke-miterlimit="10" stroke-dasharray="3"/></g><g transform="translate(-102,-38) scale(1,1)"><path fill="none" stroke="#000000" d="M 500.3530169751094 1357.0297668649937 L 505 1367 L 508.7641062508149 1356.6640673312672" stroke-miterlimit="10"/></g><g transform="translate(-102,-38) scale(1,1)"><g><path fill="none" stroke="none"/><text fill="#000000" stroke="none" font-family="Arial" font-size="13px" font-style="normal" font-weight="normal" text-decoration="none" x="262.5" y="1364.5">«include»</text></g></g><g transform="translate(-102,-38) scale(1,1)"><path fill="#C0C0C0" stroke="none" d="M 863 176 C 863 166.6111584 885.6096176 159 913.5 159 C 941.3903824 159 964 166.6111584 964 176 C 964 185.3888416 941.3903824 193 913.5 193 C 885.6096176 193 863 185.3888416 863 176 Z" opacity="0.2"/></g><g transform="translate(-102,-38) scale(1,1)"><path fill="#ffffff" stroke="none" d="M 856 169 C 856 159.6111584 878.6096176 152 906.5 152 C 934.3903824 152 957 159.6111584 957 169 C 957 178.3888416 934.3903824 186 906.5 186 C 878.6096176 186 856 178.3888416 856 169 Z"/></g><g transform="translate(-102,-38) scale(1,1)"><path fill="none" stroke="#000000" d="M 856 169 C 856 159.6111584 878.6096176 152 906.5 152 C 934.3903824 152 957 159.6111584 957 169 C 957 178.3888416 934.3903824 186 906.5 186 C 878.6096176 186 856 178.3888416 856 169 Z" stroke-miterlimit="10"/></g><g transform="translate(-102,-38) scale(1,1)"><g><path fill="none" stroke="none"/><text fill="#000000" stroke="none" font-family="Arial" font-size="13px" font-style="normal" font-weight="bold" text-decoration="none" x="878.6845703125" y="176">Note item</text></g></g><g transform="translate(-102,-38) scale(1,1)"><path fill="none" stroke="#000000" d="M 855 172 L 792 176 L 789 295" stroke-miterlimit="10" stroke-dasharray="3"/></g><g transform="translate(-102,-38) scale(1,1)"><path fill="none" stroke="#000000" d="M 785.0479397943197 284.73446444988485 L 789 295 L 793.464301228904 284.94664162890797" stroke-miterlimit="10"/></g><g transform="translate(-102,-38) scale(1,1)"><g><path fill="none" stroke="none"/><text fill="#000000" stroke="none" font-family="Arial" font-size="13px" font-style="normal" font-weight="normal" text-decoration="none" x="798.5" y="197.5">«extend»</text></g></g><g transform="translate(-102,-38) scale(1,1)"><path fill="#C0C0C0" stroke="none" d="M 855 224 C 855 214.6111584 907.8303936 207 973 207 C 1038.1696064 207 1091 214.6111584 1091 224 C 1091 233.3888416 1038.1696064 241 973 241 C 907.8303936 241 855 233.3888416 855 224 Z" opacity="0.2"/></g><g transform="translate(-102,-38) scale(1,1)"><path fill="#ffffff" stroke="none" d="M 848 217 C 848 207.6111584 900.8303936 200 966 200 C 1031.1696064 200 1084 207.6111584 1084 217 C 1084 226.3888416 1031.1696064 234 966 234 C 900.8303936 234 848 226.3888416 848 217 Z"/></g><g transform="translate(-102,-38) scale(1,1)"><path fill="none" stroke="#000000" d="M 848 217 C 848 207.6111584 900.8303936 200 966 200 C 1031.1696064 200 1084 207.6111584 1084 217 C 1084 226.3888416 1031.1696064 234 966 234 C 900.8303936 234 848 226.3888416 848 217 Z" stroke-miterlimit="10"/></g><g transform="translate(-102,-38) scale(1,1)"><g><path fill="none" stroke="none"/><text fill="#000000" stroke="none" font-family="Arial" font-size="13px" font-style="normal" font-weight="bold" text-decoration="none" x="892.300537109375" y="224">Post comment on an item</text></g></g><g transform="translate(-102,-38) scale(1,1)"><path fill="none" stroke="#000000" d="M 847 222 L 792 224 L 789 295" stroke-miterlimit="10" stroke-dasharray="3"/></g><g transform="translate(-102,-38) scale(1,1)"><path fill="none" stroke="#000000" d="M 785.2232609568264 284.6686766481845 L 789 295 L 793.6347910124996 285.0240934111003" stroke-miterlimit="10"/></g><g transform="translate(-102,-38) scale(1,1)"><g><path fill="none" stroke="none"/><text fill="#000000" stroke="none" font-family="Arial" font-size="13px" font-style="normal" font-weight="normal" text-decoration="none" x="797.5" y="254.5">«extend»</text></g></g><g transform="translate(-102,-38) scale(1,1)"><path fill="#C0C0C0" stroke="none" d="M 871 72 C 871 62.6111584 893.6096176 55 921.5 55 C 949.3903824 55 972 62.6111584 972 72 C 972 81.3888416 949.3903824 89 921.5 89 C 893.6096176 89 871 81.3888416 871 72 Z" opacity="0.2"/></g><g transform="translate(-102,-38) scale(1,1)"><path fill="#ffffff" stroke="none" d="M 864 65 C 864 55.6111584 886.6096176 48 914.5 48 C 942.3903824 48 965 55.6111584 965 65 C 965 74.3888416 942.3903824 82 914.5 82 C 886.6096176 82 864 74.3888416 864 65 Z"/></g><g transform="translate(-102,-38) scale(1,1)"><path fill="none" stroke="#000000" d="M 864 65 C 864 55.6111584 886.6096176 48 914.5 48 C 942.3903824 48 965 55.6111584 965 65 C 965 74.3888416 942.3903824 82 914.5 82 C 886.6096176 82 864 74.3888416 864 65 Z" stroke-miterlimit="10"/></g><g transform="translate(-102,-38) scale(1,1)"><g><path fill="none" stroke="none"/><text fill="#000000" stroke="none" font-family="Arial" font-size="13px" font-style="normal" font-weight="bold" text-decoration="none" x="885.595947265625" y="72">Send mail</text></g></g><g transform="translate(-102,-38) scale(1,1)"><path fill="#C0C0C0" stroke="none" d="M 1063 72 C 1063 62.6111584 1086.505048 55 1115.5 55 C 1144.494952 55 1168 62.6111584 1168 72 C 1168 81.3888416 1144.494952 89 1115.5 89 C 1086.505048 89 1063 81.3888416 1063 72 Z" opacity="0.2"/></g><g transform="translate(-102,-38) scale(1,1)"><path fill="#ffffff" stroke="none" d="M 1056 65 C 1056 55.6111584 1079.505048 48 1108.5 48 C 1137.494952 48 1161 55.6111584 1161 65 C 1161 74.3888416 1137.494952 82 1108.5 82 C 1079.505048 82 1056 74.3888416 1056 65 Z"/></g><g transform="translate(-102,-38) scale(1,1)"><path fill="none" stroke="#000000" d="M 1056 65 C 1056 55.6111584 1079.505048 48 1108.5 48 C 1137.494952 48 1161 55.6111584 1161 65 C 1161 74.3888416 1137.494952 82 1108.5 82 C 1079.505048 82 1056 74.3888416 1056 65 Z" stroke-miterlimit="10"/></g><g transform="translate(-102,-38) scale(1,1)"><g><path fill="none" stroke="none"/><text fill="#000000" stroke="none" font-family="Arial" font-size="13px" font-style="normal" font-weight="bold" text-decoration="none" x="1078.155029296875" y="72">To admins</text></g></g><g transform="translate(-102,-38) scale(1,1)"><path fill="#C0C0C0" stroke="none" d="M 1063 120 C 1063 110.6111584 1090.3106272 103 1124 103 C 1157.6893728 103 1185 110.6111584 1185 120 C 1185 129.3888416 1157.6893728 137 1124 137 C 1090.3106272 137 1063 129.3888416 1063 120 Z" opacity="0.2"/></g><g transform="translate(-102,-38) scale(1,1)"><path fill="#ffffff" stroke="none" d="M 1056 113 C 1056 103.6111584 1083.3106272 96 1117 96 C 1150.6893728 96 1178 103.6111584 1178 113 C 1178 122.3888416 1150.6893728 130 1117 130 C 1083.3106272 130 1056 122.3888416 1056 113 Z"/></g><g transform="translate(-102,-38) scale(1,1)"><path fill="none" stroke="#000000" d="M 1056 113 C 1056 103.6111584 1083.3106272 96 1117 96 C 1150.6893728 96 1178 103.6111584 1178 113 C 1178 122.3888416 1150.6893728 130 1117 130 C 1083.3106272 130 1056 122.3888416 1056 113 Z" stroke-miterlimit="10"/></g><g transform="translate(-102,-38) scale(1,1)"><g><path fill="none" stroke="none"/><text fill="#000000" stroke="none" font-family="Arial" font-size="13px" font-style="normal" font-weight="bold" text-decoration="none" x="1080.52001953125" y="120">To members</text></g></g><g transform="translate(-102,-38) scale(1,1)"><path fill="none" stroke="#000000" d="M 151 447 L 112 448 L 112 64 L 863 65" stroke-miterlimit="10"/></g><g transform="translate(-102,-38) scale(1,1)"><path fill="none" stroke="#000000" d="M 574 393 L 704 392 L 704 112 L 863 76" stroke-miterlimit="10" stroke-dasharray="3"/></g><g transform="translate(-102,-38) scale(1,1)"><path fill="none" stroke="#000000" d="M 854.0177775638089 82.34977795728194 L 863 76 L 852.1586385526203 74.13858065786619" stroke-miterlimit="10"/></g><g transform="translate(-102,-38) scale(1,1)"><g><path fill="none" stroke="none"/><text fill="#000000" stroke="none" font-family="Arial" font-size="13px" font-style="normal" font-weight="normal" text-decoration="none" x="686.5" y="91.5">«include»</text></g></g><g transform="translate(-102,-38) scale(1,1)"><path fill="none" stroke="#000000" d="M 1055 65 L 966 65" stroke-miterlimit="10"/></g><g transform="translate(-102,-38) scale(1,1)"><path fill="#FFFFFF" stroke="none" d="M 986.3253497152483 56.580964487968025 L 966 65 L 986.3253497152483 73.41903551203197"/></g><g transform="translate(-102,-38) scale(1,1)"><path fill="none" stroke="#000000" d="M 986.3253497152483 56.580964487968025 L 966 65 L 986.3253497152483 73.41903551203197 L 986.3253497152483 56.580964487968025" stroke-miterlimit="10"/></g><g transform="translate(-102,-38) scale(1,1)"><path fill="none" stroke="#000000" d="M 1083 95 L 1024 64 L 966 65" stroke-miterlimit="10"/></g><g transform="translate(-102,-38) scale(1,1)"><path fill="#FFFFFF" stroke="none" d="M 986.1771951648188 56.23183056272241 L 966 65 L 986.4674635940595 73.06739945867625"/></g><g transform="translate(-102,-38) scale(1,1)"><path fill="none" stroke="#000000" d="M 986.1771951648188 56.23183056272241 L 966 65 L 986.4674635940595 73.06739945867625 L 986.1771951648188 56.23183056272241" stroke-miterlimit="10"/></g></g></svg>