<svg version="1.1" xmlns="http://www.w3.org/2000/svg" xmlns:xlink="http://www.w3.org/1999/xlink" width="972.49169921875" height="1022"><defs/><g><g transform="translate(-142,-46) scale(1,1)"><path fill="#ffffff" stroke="none" d="M 176.40935031960228 225.68 C 176.40935031960228 220.886167936 180.29519264454774 217 185.088623046875 217 C 189.88205344920226 217 193.76789577414772 220.886167936 193.76789577414772 225.68 C 193.76789577414772 230.47383206400002 189.88205344920226 234.36 185.088623046875 234.36 C 180.29519264454774 234.36 176.40935031960228 230.47383206400002 176.40935031960228 225.68 Z"/></g><g transform="translate(-142,-46) scale(1,1)"><path fill="none" stroke="#000000" d="M 176.40935031960228 225.68 C 176.40935031960228 220.886167936 180.29519264454774 217 185.088623046875 217 C 189.88205344920226 217 193.76789577414772 220.886167936 193.76789577414772 225.68 C 193.76789577414772 230.47383206400002 189.88205344920226 234.36 185.088623046875 234.36 C 180.29519264454774 234.36 176.40935031960228 230.47383206400002 176.40935031960228 225.68 Z" stroke-miterlimit="10"/></g><g transform="translate(-142,-46) scale(1,1)"><path fill="none" stroke="#000000" d="M 185.088623046875 234.36 L 185.088623046875 251.64" stroke-miterlimit="10"/></g><g transform="translate(-142,-46) scale(1,1)"><path fill="none" stroke="#000000" d="M 175.89880486505683 240.84 L 194.27844122869317 240.84" stroke-miterlimit="10"/></g><g transform="translate(-142,-46) scale(1,1)"><path fill="none" stroke="#000000" d="M 185.088623046875 251.64 L 172.32498668323865 269" stroke-miterlimit="10"/></g><g transform="translate(-142,-46) scale(1,1)"><path fill="none" stroke="#000000" d="M 185.088623046875 251.64 L 197.85225941051135 269" stroke-miterlimit="10"/></g><g transform="translate(-142,-46) scale(1,1)"><g><path fill="none" stroke="none"/><text fill="#000000" stroke="none" font-family="Arial" font-size="13px" font-style="normal" font-weight="bold" text-decoration="none" x="168.114990234375" y="289.5">visitor</text></g></g><g transform="translate(-142,-46) scale(1,1)"><path fill="#ffffff" stroke="none" d="M 173.10978977272728 417.68 C 173.10978977272728 412.886167936 176.99563209767274 409 181.7890625 409 C 186.58249290232726 409 190.46833522727272 412.886167936 190.46833522727272 417.68 C 190.46833522727272 422.473832064 186.58249290232726 426.36 181.7890625 426.36 C 176.99563209767274 426.36 173.10978977272728 422.473832064 173.10978977272728 417.68 Z"/></g><g transform="translate(-142,-46) scale(1,1)"><path fill="none" stroke="#000000" d="M 173.10978977272728 417.68 C 173.10978977272728 412.886167936 176.99563209767274 409 181.7890625 409 C 186.58249290232726 409 190.46833522727272 412.886167936 190.46833522727272 417.68 C 190.46833522727272 422.473832064 186.58249290232726 426.36 181.7890625 426.36 C 176.99563209767274 426.36 173.10978977272728 422.473832064 173.10978977272728 417.68 Z" stroke-miterlimit="10"/></g><g transform="translate(-142,-46) scale(1,1)"><path fill="none" stroke="#000000" d="M 181.7890625 426.36 L 181.7890625 443.64" stroke-miterlimit="10"/></g><g transform="translate(-142,-46) scale(1,1)"><path fill="none" stroke="#000000" d="M 172.59924431818183 432.84 L 190.97888068181817 432.84" stroke-miterlimit="10"/></g><g transform="translate(-142,-46) scale(1,1)"><path fill="none" stroke="#000000" d="M 181.7890625 443.64 L 169.02542613636365 461" stroke-miterlimit="10"/></g><g transform="translate(-142,-46) scale(1,1)"><path fill="none" stroke="#000000" d="M 181.7890625 443.64 L 194.55269886363635 461" stroke-miterlimit="10"/></g><g transform="translate(-142,-46) scale(1,1)"><g><path fill="none" stroke="none"/><text fill="#000000" stroke="none" font-family="Arial" font-size="13px" font-style="normal" font-weight="bold" text-decoration="none" x="157.950439453125" y="481.5">member</text></g></g><g transform="translate(-142,-46) scale(1,1)"><path fill="#ffffff" stroke="none" d="M 173.46843235085228 673.6800000000001 C 173.46843235085228 668.8861679360001 177.35427467579774 665 182.147705078125 665 C 186.94113548045226 665 190.82697780539772 668.8861679360001 190.82697780539772 673.6800000000001 C 190.82697780539772 678.473832064 186.94113548045226 682.36 182.147705078125 682.36 C 177.35427467579774 682.36 173.46843235085228 678.473832064 173.46843235085228 673.6800000000001 Z"/></g><g transform="translate(-142,-46) scale(1,1)"><path fill="none" stroke="#000000" d="M 173.46843235085228 673.6800000000001 C 173.46843235085228 668.8861679360001 177.35427467579774 665 182.147705078125 665 C 186.94113548045226 665 190.82697780539772 668.8861679360001 190.82697780539772 673.6800000000001 C 190.82697780539772 678.473832064 186.94113548045226 682.36 182.147705078125 682.36 C 177.35427467579774 682.36 173.46843235085228 678.473832064 173.46843235085228 673.6800000000001 Z" stroke-miterlimit="10"/></g><g transform="translate(-142,-46) scale(1,1)"><path fill="none" stroke="#000000" d="M 182.147705078125 682.36 L 182.147705078125 699.64" stroke-miterlimit="10"/></g><g transform="translate(-142,-46) scale(1,1)"><path fill="none" stroke="#000000" d="M 172.95788689630683 688.84 L 191.33752325994317 688.84" stroke-miterlimit="10"/></g><g transform="translate(-142,-46) scale(1,1)"><path fill="none" stroke="#000000" d="M 182.147705078125 699.64 L 169.38406871448865 717" stroke-miterlimit="10"/></g><g transform="translate(-142,-46) scale(1,1)"><path fill="none" stroke="#000000" d="M 182.147705078125 699.64 L 194.91134144176135 717" stroke-miterlimit="10"/></g><g transform="translate(-142,-46) scale(1,1)"><g><path fill="none" stroke="none"/><text fill="#000000" stroke="none" font-family="Arial" font-size="13px" font-style="normal" font-weight="bold" text-decoration="none" x="159.0263671875" y="737.5">librarian</text></g></g><g transform="translate(-142,-46) scale(1,1)"><path fill="#C0C0C0" stroke="none" d="M 487 80 C 487 70.6111584 518.7877792 63 558 63 C 597.2122208 63 629 70.6111584 629 80 C 629 89.3888416 597.2122208 97 558 97 C 518.7877792 97 487 89.3888416 487 80 Z" opacity="0.2"/></g><g transform="translate(-142,-46) scale(1,1)"><path fill="#ffffff" stroke="none" d="M 480 73 C 480 63.6111584 511.7877792 56 551 56 C 590.2122208 56 622 63.6111584 622 73 C 622 82.3888416 590.2122208 90 551 90 C 511.7877792 90 480 82.3888416 480 73 Z"/></g><g transform="translate(-142,-46) scale(1,1)"><path fill="none" stroke="#000000" d="M 480 73 C 480 63.6111584 511.7877792 56 551 56 C 590.2122208 56 622 63.6111584 622 73 C 622 82.3888416 590.2122208 90 551 90 C 511.7877792 90 480 82.3888416 480 73 Z" stroke-miterlimit="10"/></g><g transform="translate(-142,-46) scale(1,1)"><g><path fill="none" stroke="none"/><text fill="#000000" stroke="none" font-family="Arial" font-size="13px" font-style="normal" font-weight="bold" text-decoration="none" x="508.36279296875" y="80">create account</text></g></g><g transform="translate(-142,-46) scale(1,1)"><path fill="#C0C0C0" stroke="none" d="M 487 171.5 C 487 146.9233264 517.4446336 127 555 127 C 592.5553664 127 623 146.9233264 623 171.5 C 623 196.0766736 592.5553664 216 555 216 C 517.4446336 216 487 196.0766736 487 171.5 Z" opacity="0.2"/></g><g transform="translate(-142,-46) scale(1,1)"><path fill="#ffffff" stroke="none" d="M 480 164.5 C 480 139.9233264 510.4446336 120 548 120 C 585.5553664 120 616 139.9233264 616 164.5 C 616 189.0766736 585.5553664 209 548 209 C 510.4446336 209 480 189.0766736 480 164.5 Z"/></g><g transform="translate(-142,-46) scale(1,1)"><path fill="none" stroke="#000000" d="M 480 164.5 C 480 139.9233264 510.4446336 120 548 120 C 585.5553664 120 616 139.9233264 616 164.5 C 616 189.0766736 585.5553664 209 548 209 C 510.4446336 209 480 189.0766736 480 164.5 Z" stroke-miterlimit="10"/></g><g transform="translate(-142,-46) scale(1,1)"><g><path fill="none" stroke="none"/><text fill="#000000" stroke="none" font-family="Arial" font-size="13px" font-style="normal" font-weight="bold" text-decoration="none" x="520.543212890625" y="152">clic to get</text><text fill="#000000" stroke="none" font-family="Arial" font-size="13px" font-style="normal" font-weight="bold" text-decoration="none" x="511.869140625" y="165">redirected to</text><text fill="#000000" stroke="none" font-family="Arial" font-size="13px" font-style="normal" font-weight="bold" text-decoration="none" x="513.878173828125" y="178">the school's</text><text fill="#000000" stroke="none" font-family="Arial" font-size="13px" font-style="normal" font-weight="bold" text-decoration="none" x="525.9609375" y="191">website</text></g></g><g transform="translate(-142,-46) scale(1,1)"><path fill="#C0C0C0" stroke="none" d="M 495 256 C 495 246.6111584 526.5639216 239 565.5 239 C 604.4360784 239 636 246.6111584 636 256 C 636 265.3888416 604.4360784 273 565.5 273 C 526.5639216 273 495 265.3888416 495 256 Z" opacity="0.2"/></g><g transform="translate(-142,-46) scale(1,1)"><path fill="#ffffff" stroke="none" d="M 488 249 C 488 239.6111584 519.5639216 232 558.5 232 C 597.4360784 232 629 239.6111584 629 249 C 629 258.3888416 597.4360784 266 558.5 266 C 519.5639216 266 488 258.3888416 488 249 Z"/></g><g transform="translate(-142,-46) scale(1,1)"><path fill="none" stroke="#000000" d="M 488 249 C 488 239.6111584 519.5639216 232 558.5 232 C 597.4360784 232 629 239.6111584 629 249 C 629 258.3888416 597.4360784 266 558.5 266 C 519.5639216 266 488 258.3888416 488 249 Z" stroke-miterlimit="10"/></g><g transform="translate(-142,-46) scale(1,1)"><g><path fill="none" stroke="none"/><text fill="#000000" stroke="none" font-family="Arial" font-size="13px" font-style="normal" font-weight="bold" text-decoration="none" x="515.869140625" y="256">search an item</text></g></g><g transform="translate(-142,-46) scale(1,1)"><path fill="#C0C0C0" stroke="none" d="M 487 338.5 C 487 318.8938896 519.2354944 303 559 303 C 598.7645056 303 631 318.8938896 631 338.5 C 631 358.1061104 598.7645056 374 559 374 C 519.2354944 374 487 358.1061104 487 338.5 Z" opacity="0.2"/></g><g transform="translate(-142,-46) scale(1,1)"><path fill="#ffffff" stroke="none" d="M 480 331.5 C 480 311.8938896 512.2354944 296 552 296 C 591.7645056 296 624 311.8938896 624 331.5 C 624 351.1061104 591.7645056 367 552 367 C 512.2354944 367 480 351.1061104 480 331.5 Z"/></g><g transform="translate(-142,-46) scale(1,1)"><path fill="none" stroke="#000000" d="M 480 331.5 C 480 311.8938896 512.2354944 296 552 296 C 591.7645056 296 624 311.8938896 624 331.5 C 624 351.1061104 591.7645056 367 552 367 C 512.2354944 367 480 351.1061104 480 331.5 Z" stroke-miterlimit="10"/></g><g transform="translate(-142,-46) scale(1,1)"><g><path fill="none" stroke="none"/><text fill="#000000" stroke="none" font-family="Arial" font-size="13px" font-style="normal" font-weight="bold" text-decoration="none" x="531.04638671875" y="332">browse</text><text fill="#000000" stroke="none" font-family="Arial" font-size="13px" font-style="normal" font-weight="bold" text-decoration="none" x="512.476318359375" y="345">library's items</text></g></g><g transform="translate(-142,-46) scale(1,1)"><path fill="#C0C0C0" stroke="none" d="M 735 338.5 C 735 318.8938896 761.862912 303 795 303 C 828.137088 303 855 318.8938896 855 338.5 C 855 358.1061104 828.137088 374 795 374 C 761.862912 374 735 358.1061104 735 338.5 Z" opacity="0.2"/></g><g transform="translate(-142,-46) scale(1,1)"><path fill="#ffffff" stroke="none" d="M 728 331.5 C 728 311.8938896 754.862912 296 788 296 C 821.137088 296 848 311.8938896 848 331.5 C 848 351.1061104 821.137088 367 788 367 C 754.862912 367 728 351.1061104 728 331.5 Z"/></g><g transform="translate(-142,-46) scale(1,1)"><path fill="none" stroke="#000000" d="M 728 331.5 C 728 311.8938896 754.862912 296 788 296 C 821.137088 296 848 311.8938896 848 331.5 C 848 351.1061104 821.137088 367 788 367 C 754.862912 367 728 351.1061104 728 331.5 Z" stroke-miterlimit="10"/></g><g transform="translate(-142,-46) scale(1,1)"><g><path fill="none" stroke="none"/><text fill="#000000" stroke="none" font-family="Arial" font-size="13px" font-style="normal" font-weight="bold" text-decoration="none" x="760.17822265625" y="325.5">check the</text><text fill="#000000" stroke="none" font-family="Arial" font-size="13px" font-style="normal" font-weight="bold" text-decoration="none" x="771.2294921875" y="338.5">item's</text><text fill="#000000" stroke="none" font-family="Arial" font-size="13px" font-style="normal" font-weight="bold" text-decoration="none" x="756.56640625" y="351.5">description</text></g></g><g transform="translate(-142,-46) scale(1,1)"><path fill="none" stroke="#000000" d="M 727 331 L 625 331" stroke-miterlimit="10" stroke-dasharray="3"/></g><g transform="translate(-142,-46) scale(1,1)"><path fill="none" stroke="#000000" d="M 635.1626748576241 326.790482243984 L 625 331 L 635.1626748576241 335.209517756016" stroke-miterlimit="10"/></g><g transform="translate(-142,-46) scale(1,1)"><g><path fill="none" stroke="none"/><text fill="#000000" stroke="none" font-family="Arial" font-size="13px" font-style="normal" font-weight="normal" text-decoration="none" x="648.5" y="367.5">«extend»</text></g></g><g transform="translate(-142,-46) scale(1,1)"><path fill="none" stroke="#000000" d="M 211 242 L 515 91" stroke-miterlimit="10"/></g><g transform="translate(-142,-46) scale(1,1)"><path fill="none" stroke="#000000" d="M 211 248 L 479 181" stroke-miterlimit="10"/></g><g transform="translate(-142,-46) scale(1,1)"><path fill="none" stroke="#000000" d="M 211 255 L 487 250" stroke-miterlimit="10"/></g><g transform="translate(-142,-46) scale(1,1)"><path fill="none" stroke="#000000" d="M 479 316 L 211 260" stroke-miterlimit="10"/></g><g transform="translate(-142,-46) scale(1,1)"><path fill="#C0C0C0" stroke="none" d="M 479 400 C 479 390.6111584 501.6096176 383 529.5 383 C 557.3903824 383 580 390.6111584 580 400 C 580 409.3888416 557.3903824 417 529.5 417 C 501.6096176 417 479 409.3888416 479 400 Z" opacity="0.2"/></g><g transform="translate(-142,-46) scale(1,1)"><path fill="#ffffff" stroke="none" d="M 472 393 C 472 383.6111584 494.6096176 376 522.5 376 C 550.3903824 376 573 383.6111584 573 393 C 573 402.3888416 550.3903824 410 522.5 410 C 494.6096176 410 472 402.3888416 472 393 Z"/></g><g transform="translate(-142,-46) scale(1,1)"><path fill="none" stroke="#000000" d="M 472 393 C 472 383.6111584 494.6096176 376 522.5 376 C 550.3903824 376 573 383.6111584 573 393 C 573 402.3888416 550.3903824 410 522.5 410 C 494.6096176 410 472 402.3888416 472 393 Z" stroke-miterlimit="10"/></g><g transform="translate(-142,-46) scale(1,1)"><g><path fill="none" stroke="none"/><text fill="#000000" stroke="none" font-family="Arial" font-size="13px" font-style="normal" font-weight="bold" text-decoration="none" x="499.734130859375" y="400">connect</text></g></g><g transform="translate(-142,-46) scale(1,1)"><path fill="none" stroke="#000000" d="M 478 375 L 211 266" stroke-miterlimit="10"/></g><g transform="translate(-142,-46) scale(1,1)"><path fill="#C0C0C0" stroke="none" d="M 735 464 C 735 454.6111584 763.2060576 447 798 447 C 832.7939424 447 861 454.6111584 861 464 C 861 473.3888416 832.7939424 481 798 481 C 763.2060576 481 735 473.3888416 735 464 Z" opacity="0.2"/></g><g transform="translate(-142,-46) scale(1,1)"><path fill="#ffffff" stroke="none" d="M 728 457 C 728 447.6111584 756.2060576 440 791 440 C 825.7939424 440 854 447.6111584 854 457 C 854 466.3888416 825.7939424 474 791 474 C 756.2060576 474 728 466.3888416 728 457 Z"/></g><g transform="translate(-142,-46) scale(1,1)"><path fill="none" stroke="#000000" d="M 728 457 C 728 447.6111584 756.2060576 440 791 440 C 825.7939424 440 854 447.6111584 854 457 C 854 466.3888416 825.7939424 474 791 474 C 756.2060576 474 728 466.3888416 728 457 Z" stroke-miterlimit="10"/></g><g transform="translate(-142,-46) scale(1,1)"><g><path fill="none" stroke="none"/><text fill="#000000" stroke="none" font-family="Arial" font-size="13px" font-style="normal" font-weight="bold" text-decoration="none" x="753.78369140625" y="464">book an item</text></g></g><g transform="translate(-142,-46) scale(1,1)"><path fill="#C0C0C0" stroke="none" d="M 263 400 C 263 390.6111584 287.62433599999997 383 318 383 C 348.37566400000003 383 373 390.6111584 373 400 C 373 409.3888416 348.37566400000003 417 318 417 C 287.62433599999997 417 263 409.3888416 263 400 Z" opacity="0.2"/></g><g transform="translate(-142,-46) scale(1,1)"><path fill="#ffffff" stroke="none" d="M 256 393 C 256 383.6111584 280.62433599999997 376 311 376 C 341.37566400000003 376 366 383.6111584 366 393 C 366 402.3888416 341.37566400000003 410 311 410 C 280.62433599999997 410 256 402.3888416 256 393 Z"/></g><g transform="translate(-142,-46) scale(1,1)"><path fill="none" stroke="#000000" d="M 256 393 C 256 383.6111584 280.62433599999997 376 311 376 C 341.37566400000003 376 366 383.6111584 366 393 C 366 402.3888416 341.37566400000003 410 311 410 C 280.62433599999997 410 256 402.3888416 256 393 Z" stroke-miterlimit="10"/></g><g transform="translate(-142,-46) scale(1,1)"><g><path fill="none" stroke="none"/><text fill="#000000" stroke="none" font-family="Arial" font-size="13px" font-style="normal" font-weight="bold" text-decoration="none" x="279.925048828125" y="400">disconnect</text></g></g><g transform="translate(-142,-46) scale(1,1)"><path fill="#C0C0C0" stroke="none" d="M 727 555.5 C 727 530.9233264 753.862912 511 787 511 C 820.137088 511 847 530.9233264 847 555.5 C 847 580.0766736 820.137088 600 787 600 C 753.862912 600 727 580.0766736 727 555.5 Z" opacity="0.2"/></g><g transform="translate(-142,-46) scale(1,1)"><path fill="#ffffff" stroke="none" d="M 720 548.5 C 720 523.9233264 746.862912 504 780 504 C 813.137088 504 840 523.9233264 840 548.5 C 840 573.0766736 813.137088 593 780 593 C 746.862912 593 720 573.0766736 720 548.5 Z"/></g><g transform="translate(-142,-46) scale(1,1)"><path fill="none" stroke="#000000" d="M 720 548.5 C 720 523.9233264 746.862912 504 780 504 C 813.137088 504 840 523.9233264 840 548.5 C 840 573.0766736 813.137088 593 780 593 C 746.862912 593 720 573.0766736 720 548.5 Z" stroke-miterlimit="10"/></g><g transform="translate(-142,-46) scale(1,1)"><g><path fill="none" stroke="none"/><text fill="#000000" stroke="none" font-family="Arial" font-size="13px" font-style="normal" font-weight="bold" text-decoration="none" x="763.02001953125" y="536">check</text><text fill="#000000" stroke="none" font-family="Arial" font-size="13px" font-style="normal" font-weight="bold" text-decoration="none" x="759.77001953125" y="549">current</text><text fill="#000000" stroke="none" font-family="Arial" font-size="13px" font-style="normal" font-weight="bold" text-decoration="none" x="752.90185546875" y="562">borrowed</text><text fill="#000000" stroke="none" font-family="Arial" font-size="13px" font-style="normal" font-weight="bold" text-decoration="none" x="764.470458984375" y="575">items</text></g></g><g transform="translate(-142,-46) scale(1,1)"><path fill="#C0C0C0" stroke="none" d="M 735 666.5 C 735 646.8938896 758.2811904 631 787 631 C 815.7188096 631 839 646.8938896 839 666.5 C 839 686.1061104 815.7188096 702 787 702 C 758.2811904 702 735 686.1061104 735 666.5 Z" opacity="0.2"/></g><g transform="translate(-142,-46) scale(1,1)"><path fill="#ffffff" stroke="none" d="M 728 659.5 C 728 639.8938896 751.2811904 624 780 624 C 808.7188096 624 832 639.8938896 832 659.5 C 832 679.1061104 808.7188096 695 780 695 C 751.2811904 695 728 679.1061104 728 659.5 Z"/></g><g transform="translate(-142,-46) scale(1,1)"><path fill="none" stroke="#000000" d="M 728 659.5 C 728 639.8938896 751.2811904 624 780 624 C 808.7188096 624 832 639.8938896 832 659.5 C 832 679.1061104 808.7188096 695 780 695 C 751.2811904 695 728 679.1061104 728 659.5 Z" stroke-miterlimit="10"/></g><g transform="translate(-142,-46) scale(1,1)"><g><path fill="none" stroke="none"/><text fill="#000000" stroke="none" font-family="Arial" font-size="13px" font-style="normal" font-weight="bold" text-decoration="none" x="763.02001953125" y="653.5">check</text><text fill="#000000" stroke="none" font-family="Arial" font-size="13px" font-style="normal" font-weight="bold" text-decoration="none" x="757.234130859375" y="666.5">account</text><text fill="#000000" stroke="none" font-family="Arial" font-size="13px" font-style="normal" font-weight="bold" text-decoration="none" x="769.52001953125" y="679.5">info</text></g></g><g transform="translate(-142,-46) scale(1,1)"><path fill="#C0C0C0" stroke="none" d="M 919 666.5 C 919 646.8938896 940.4903296 631 967 631 C 993.5096704 631 1015 646.8938896 1015 666.5 C 1015 686.1061104 993.5096704 702 967 702 C 940.4903296 702 919 686.1061104 919 666.5 Z" opacity="0.2"/></g><g transform="translate(-142,-46) scale(1,1)"><path fill="#ffffff" stroke="none" d="M 912 659.5 C 912 639.8938896 933.4903296 624 960 624 C 986.5096704 624 1008 639.8938896 1008 659.5 C 1008 679.1061104 986.5096704 695 960 695 C 933.4903296 695 912 679.1061104 912 659.5 Z"/></g><g transform="translate(-142,-46) scale(1,1)"><path fill="none" stroke="#000000" d="M 912 659.5 C 912 639.8938896 933.4903296 624 960 624 C 986.5096704 624 1008 639.8938896 1008 659.5 C 1008 679.1061104 986.5096704 695 960 695 C 933.4903296 695 912 679.1061104 912 659.5 Z" stroke-miterlimit="10"/></g><g transform="translate(-142,-46) scale(1,1)"><g><path fill="none" stroke="none"/><text fill="#000000" stroke="none" font-family="Arial" font-size="13px" font-style="normal" font-weight="bold" text-decoration="none" x="940.119140625" y="653.5">update</text><text fill="#000000" stroke="none" font-family="Arial" font-size="13px" font-style="normal" font-weight="bold" text-decoration="none" x="937.234130859375" y="666.5">account</text><text fill="#000000" stroke="none" font-family="Arial" font-size="13px" font-style="normal" font-weight="bold" text-decoration="none" x="949.52001953125" y="679.5">info</text></g></g><g transform="translate(-142,-46) scale(1,1)"><path fill="none" stroke="#000000" d="M 213 448 L 727 456" stroke-miterlimit="10"/></g><g transform="translate(-142,-46) scale(1,1)"><path fill="none" stroke="#000000" d="M 268 411 L 213 434" stroke-miterlimit="10"/></g><g transform="translate(-142,-46) scale(1,1)"><path fill="none" stroke="#000000" d="M 727 640 L 213 458" stroke-miterlimit="10"/></g><g transform="translate(-142,-46) scale(1,1)"><path fill="none" stroke="#000000" d="M 719 538 L 213 452" stroke-miterlimit="10"/></g><g transform="translate(-142,-46) scale(1,1)"><path fill="none" stroke="#000000" d="M 911 659 L 833 659" stroke-miterlimit="10" stroke-dasharray="3"/></g><g transform="translate(-142,-46) scale(1,1)"><path fill="none" stroke="#000000" d="M 843.1626748576241 654.790482243984 L 833 659 L 843.1626748576241 663.209517756016" stroke-miterlimit="10"/></g><g transform="translate(-142,-46) scale(1,1)"><g><path fill="none" stroke="none"/><text fill="#000000" stroke="none" font-family="Arial" font-size="13px" font-style="normal" font-weight="normal" text-decoration="none" x="844.5" y="695.5">«extend»</text></g></g><g transform="translate(-142,-46) scale(1,1)"><path fill="none" stroke="#000000" d="M 791 439 L 789 368" stroke-miterlimit="10" stroke-dasharray="3"/></g><g transform="translate(-142,-46) scale(1,1)"><path fill="none" stroke="#000000" d="M 793.4940076581668 378.04011430056147 L 789 368 L 785.0783103839789 378.277176195609" stroke-miterlimit="10"/></g><g transform="translate(-142,-46) scale(1,1)"><g><path fill="none" stroke="none"/><text fill="#000000" stroke="none" font-family="Arial" font-size="13px" font-style="normal" font-weight="normal" text-decoration="none" x="733.5" y="409.5">«extend»</text></g></g><g transform="translate(-142,-46) scale(1,1)"><path fill="none" stroke="#000000" d="M 561 411 L 624 440 L 727 450" stroke-miterlimit="10" stroke-dasharray="3"/></g><g transform="translate(-142,-46) scale(1,1)"><path fill="none" stroke="#000000" d="M 716.4781072538507 453.2077676098074 L 727 450 L 717.2916640589149 444.8281325176456" stroke-miterlimit="10"/></g><g transform="translate(-142,-46) scale(1,1)"><g><path fill="none" stroke="none"/><text fill="#000000" stroke="none" font-family="Arial" font-size="13px" font-style="normal" font-weight="normal" text-decoration="none" x="590.5" y="428.5">«include»</text></g></g><g transform="translate(-142,-46) scale(1,1)"><path fill="none" stroke="#000000" d="M 471 393 L 367 393" stroke-miterlimit="10" stroke-dasharray="3"/></g><g transform="translate(-142,-46) scale(1,1)"><path fill="none" stroke="#000000" d="M 377.16267485762415 388.790482243984 L 367 393 L 377.16267485762415 397.209517756016" stroke-miterlimit="10"/></g><g transform="translate(-142,-46) scale(1,1)"><g><path fill="none" stroke="none"/><text fill="#000000" stroke="none" font-family="Arial" font-size="13px" font-style="normal" font-weight="normal" text-decoration="none" x="390.5" y="429.5">«include»</text></g></g><g transform="translate(-142,-46) scale(1,1)"><path fill="none" stroke="#000000" d="M 538 411 L 616 496 L 719 529" stroke-miterlimit="10" stroke-dasharray="3"/></g><g transform="translate(-142,-46) scale(1,1)"><path fill="none" stroke="#000000" d="M 708.0375437025967 529.9080484169491 L 719 529 L 710.6062856203746 521.8904600069154" stroke-miterlimit="10"/></g><g transform="translate(-142,-46) scale(1,1)"><g><path fill="none" stroke="none"/><text fill="#000000" stroke="none" font-family="Arial" font-size="13px" font-style="normal" font-weight="normal" text-decoration="none" x="599.5" y="484.5">«include»</text></g></g><g transform="translate(-142,-46) scale(1,1)"><path fill="none" stroke="#000000" d="M 528 411 L 576 552 L 727 631" stroke-miterlimit="10" stroke-dasharray="3"/></g><g transform="translate(-142,-46) scale(1,1)"><path fill="none" stroke="#000000" d="M 716.0438493578495 630.0187950741536 L 727 631 L 719.9466482420337 622.5590149284344" stroke-miterlimit="10"/></g><g transform="translate(-142,-46) scale(1,1)"><g><path fill="none" stroke="none"/><text fill="#000000" stroke="none" font-family="Arial" font-size="13px" font-style="normal" font-weight="normal" text-decoration="none" x="575.5" y="556.5">«include»</text></g></g><g transform="translate(-142,-46) scale(1,1)"><path fill="#C0C0C0" stroke="none" d="M 375 704 C 375 694.6111584 414.6227952 687 463.5 687 C 512.3772048 687 552 694.6111584 552 704 C 552 713.3888416 512.3772048 721 463.5 721 C 414.6227952 721 375 713.3888416 375 704 Z" opacity="0.2"/></g><g transform="translate(-142,-46) scale(1,1)"><path fill="#ffffff" stroke="none" d="M 368 697 C 368 687.6111584 407.6227952 680 456.5 680 C 505.3772048 680 545 687.6111584 545 697 C 545 706.3888416 505.3772048 714 456.5 714 C 407.6227952 714 368 706.3888416 368 697 Z"/></g><g transform="translate(-142,-46) scale(1,1)"><path fill="none" stroke="#000000" d="M 368 697 C 368 687.6111584 407.6227952 680 456.5 680 C 505.3772048 680 545 687.6111584 545 697 C 545 706.3888416 505.3772048 714 456.5 714 C 407.6227952 714 368 706.3888416 368 697 Z" stroke-miterlimit="10"/></g><g transform="translate(-142,-46) scale(1,1)"><g><path fill="none" stroke="none"/><text fill="#000000" stroke="none" font-family="Arial" font-size="13px" font-style="normal" font-weight="bold" text-decoration="none" x="402.31640625" y="704">check all members</text></g></g><g transform="translate(-142,-46) scale(1,1)"><path fill="#C0C0C0" stroke="none" d="M 543 760 C 543 750.6111584 567.624336 743 598 743 C 628.375664 743 653 750.6111584 653 760 C 653 769.3888416 628.375664 777 598 777 C 567.624336 777 543 769.3888416 543 760 Z" opacity="0.2"/></g><g transform="translate(-142,-46) scale(1,1)"><path fill="#ffffff" stroke="none" d="M 536 753 C 536 743.6111584 560.624336 736 591 736 C 621.375664 736 646 743.6111584 646 753 C 646 762.3888416 621.375664 770 591 770 C 560.624336 770 536 762.3888416 536 753 Z"/></g><g transform="translate(-142,-46) scale(1,1)"><path fill="none" stroke="#000000" d="M 536 753 C 536 743.6111584 560.624336 736 591 736 C 621.375664 736 646 743.6111584 646 753 C 646 762.3888416 621.375664 770 591 770 C 560.624336 770 536 762.3888416 536 753 Z" stroke-miterlimit="10"/></g><g transform="translate(-142,-46) scale(1,1)"><g><path fill="none" stroke="none"/><text fill="#000000" stroke="none" font-family="Arial" font-size="13px" font-style="normal" font-weight="bold" text-decoration="none" x="560.648681640625" y="760">add a item</text></g></g><g transform="translate(-142,-46) scale(1,1)"><path fill="#C0C0C0" stroke="none" d="M 631 816 C 631 806.6111584 658.9822 799 693.5 799 C 728.0178 799 756 806.6111584 756 816 C 756 825.3888416 728.0178 833 693.5 833 C 658.9822 833 631 825.3888416 631 816 Z" opacity="0.2"/></g><g transform="translate(-142,-46) scale(1,1)"><path fill="#ffffff" stroke="none" d="M 624 809 C 624 799.6111584 651.9822 792 686.5 792 C 721.0178 792 749 799.6111584 749 809 C 749 818.3888416 721.0178 826 686.5 826 C 651.9822 826 624 818.3888416 624 809 Z"/></g><g transform="translate(-142,-46) scale(1,1)"><path fill="none" stroke="#000000" d="M 624 809 C 624 799.6111584 651.9822 792 686.5 792 C 721.0178 792 749 799.6111584 749 809 C 749 818.3888416 721.0178 826 686.5 826 C 651.9822 826 624 818.3888416 624 809 Z" stroke-miterlimit="10"/></g><g transform="translate(-142,-46) scale(1,1)"><g><path fill="none" stroke="none"/><text fill="#000000" stroke="none" font-family="Arial" font-size="13px" font-style="normal" font-weight="bold" text-decoration="none" x="651.81640625" y="816">disable item</text></g></g><g transform="translate(-142,-46) scale(1,1)"><path fill="#C0C0C0" stroke="none" d="M 727 888 C 727 878.6111584 763.0410736 871 807.5 871 C 851.9589264 871 888 878.6111584 888 888 C 888 897.3888416 851.9589264 905 807.5 905 C 763.0410736 905 727 897.3888416 727 888 Z" opacity="0.2"/></g><g transform="translate(-142,-46) scale(1,1)"><path fill="#ffffff" stroke="none" d="M 720 881 C 720 871.6111584 756.0410736 864 800.5 864 C 844.9589264 864 881 871.6111584 881 881 C 881 890.3888416 844.9589264 898 800.5 898 C 756.0410736 898 720 890.3888416 720 881 Z"/></g><g transform="translate(-142,-46) scale(1,1)"><path fill="none" stroke="#000000" d="M 720 881 C 720 871.6111584 756.0410736 864 800.5 864 C 844.9589264 864 881 871.6111584 881 881 C 881 890.3888416 844.9589264 898 800.5 898 C 756.0410736 898 720 890.3888416 720 881 Z" stroke-miterlimit="10"/></g><g transform="translate(-142,-46) scale(1,1)"><g><path fill="none" stroke="none"/><text fill="#000000" stroke="none" font-family="Arial" font-size="13px" font-style="normal" font-weight="bold" text-decoration="none" x="754.247802734375" y="888">update item info</text></g></g><g transform="translate(-142,-46) scale(1,1)"><path fill="none" stroke="#000000" d="M 367 699 L 213 702" stroke-miterlimit="10"/></g><g transform="translate(-142,-46) scale(1,1)"><path fill="none" stroke="#000000" d="M 535 746 L 213 707" stroke-miterlimit="10"/></g><g transform="translate(-142,-46) scale(1,1)"><path fill="none" stroke="#000000" d="M 623 796 L 213 710" stroke-miterlimit="10"/></g><g transform="translate(-142,-46) scale(1,1)"><path fill="none" stroke="#000000" d="M 738 863 L 213 712" stroke-miterlimit="10"/></g><g transform="translate(-142,-46) scale(1,1)"><path fill="none" stroke="#000000" d="M 518 411 L 460 679" stroke-miterlimit="10" stroke-dasharray="3"/></g><g transform="translate(-142,-46) scale(1,1)"><path fill="none" stroke="#000000" d="M 458.03534951785474 668.1768697465563 L 460 679 L 466.26389111728895 669.9576735255384" stroke-miterlimit="10"/></g><g transform="translate(-142,-46) scale(1,1)"><g><path fill="none" stroke="none"/><text fill="#000000" stroke="none" font-family="Arial" font-size="13px" font-style="normal" font-weight="normal" text-decoration="none" x="479.5" y="611.5">«include»</text></g></g><g transform="translate(-142,-46) scale(1,1)"><path fill="none" stroke="#000000" d="M 518 411 L 472 616 L 592 664 L 591 735" stroke-miterlimit="10" stroke-dasharray="3"/></g><g transform="translate(-142,-46) scale(1,1)"><path fill="none" stroke="#000000" d="M 586.9340217804229 724.7790498916233 L 591 735 L 595.3522223605827 724.8976160969777" stroke-miterlimit="10"/></g><g transform="translate(-142,-46) scale(1,1)"><g><path fill="none" stroke="none"/><text fill="#000000" stroke="none" font-family="Arial" font-size="13px" font-style="normal" font-weight="normal" text-decoration="none" x="479.5" y="611.5">«include»</text></g></g><g transform="translate(-142,-46) scale(1,1)"><path fill="none" stroke="#000000" d="M 518 411 L 472 616 L 688 696 L 686 791" stroke-miterlimit="10" stroke-dasharray="3"/></g><g transform="translate(-142,-46) scale(1,1)"><path fill="none" stroke="#000000" d="M 682.0053184435419 780.7509747164672 L 686 791 L 690.422488861286 780.9281783042093" stroke-miterlimit="10"/></g><g transform="translate(-142,-46) scale(1,1)"><g><path fill="none" stroke="none"/><text fill="#000000" stroke="none" font-family="Arial" font-size="13px" font-style="normal" font-weight="normal" text-decoration="none" x="479.5" y="611.5">«include»</text></g></g><g transform="translate(-142,-46) scale(1,1)"><path fill="none" stroke="#000000" d="M 518 411 L 472 616 L 800 736 L 800 863" stroke-miterlimit="10" stroke-dasharray="3"/></g><g transform="translate(-142,-46) scale(1,1)"><path fill="none" stroke="#000000" d="M 795.790482243984 852.8373251423759 L 800 863 L 804.209517756016 852.8373251423759" stroke-miterlimit="10"/></g><g transform="translate(-142,-46) scale(1,1)"><g><path fill="none" stroke="none"/><text fill="#000000" stroke="none" font-family="Arial" font-size="13px" font-style="normal" font-weight="normal" text-decoration="none" x="479.5" y="611.5">«include»</text></g></g><g transform="translate(-142,-46) scale(1,1)"><path fill="none" stroke="#000000" d="M 849 330 L 1048 328 L 1048 832 L 882 865" stroke-miterlimit="10" stroke-dasharray="3"/></g><g transform="translate(-142,-46) scale(1,1)"><path fill="none" stroke="#000000" d="M 891.1468545950555 858.8897585140265 L 882 865 L 892.7883961001103 867.1472097212719" stroke-miterlimit="10"/></g><g transform="translate(-142,-46) scale(1,1)"><g><path fill="none" stroke="none"/><text fill="#000000" stroke="none" font-family="Arial" font-size="13px" font-style="normal" font-weight="normal" text-decoration="none" x="1051.5" y="585.5">«extend»</text></g></g><g transform="translate(-142,-46) scale(1,1)"><path fill="#C0C0C0" stroke="none" d="M 511 920 C 511 910.6111584 543.0116368 903 582.5 903 C 621.9883632 903 654 910.6111584 654 920 C 654 929.3888416 621.9883632 937 582.5 937 C 543.0116368 937 511 929.3888416 511 920 Z" opacity="0.2"/></g><g transform="translate(-142,-46) scale(1,1)"><path fill="#ffffff" stroke="none" d="M 504 913 C 504 903.6111584 536.0116368 896 575.5 896 C 614.9883632 896 647 903.6111584 647 913 C 647 922.3888416 614.9883632 930 575.5 930 C 536.0116368 930 504 922.3888416 504 913 Z"/></g><g transform="translate(-142,-46) scale(1,1)"><path fill="none" stroke="#000000" d="M 504 913 C 504 903.6111584 536.0116368 896 575.5 896 C 614.9883632 896 647 903.6111584 647 913 C 647 922.3888416 614.9883632 930 575.5 930 C 536.0116368 930 504 922.3888416 504 913 Z" stroke-miterlimit="10"/></g><g transform="translate(-142,-46) scale(1,1)"><g><path fill="none" stroke="none"/><text fill="#000000" stroke="none" font-family="Arial" font-size="13px" font-style="normal" font-weight="bold" text-decoration="none" x="531.7900390625" y="920">create member</text></g></g><g transform="translate(-142,-46) scale(1,1)"><path fill="#C0C0C0" stroke="none" d="M 511 984 C 511 974.6111584 545.2502128 967 587.5 967 C 629.7497872 967 664 974.6111584 664 984 C 664 993.3888416 629.7497872 1001 587.5 1001 C 545.2502128 1001 511 993.3888416 511 984 Z" opacity="0.2"/></g><g transform="translate(-142,-46) scale(1,1)"><path fill="#ffffff" stroke="none" d="M 504 977 C 504 967.6111584 538.2502128 960 580.5 960 C 622.7497872 960 657 967.6111584 657 977 C 657 986.3888416 622.7497872 994 580.5 994 C 538.2502128 994 504 986.3888416 504 977 Z"/></g><g transform="translate(-142,-46) scale(1,1)"><path fill="none" stroke="#000000" d="M 504 977 C 504 967.6111584 538.2502128 960 580.5 960 C 622.7497872 960 657 967.6111584 657 977 C 657 986.3888416 622.7497872 994 580.5 994 C 538.2502128 994 504 986.3888416 504 977 Z" stroke-miterlimit="10"/></g><g transform="translate(-142,-46) scale(1,1)"><g><path fill="none" stroke="none"/><text fill="#000000" stroke="none" font-family="Arial" font-size="13px" font-style="normal" font-weight="bold" text-decoration="none" x="534.25732421875" y="984">disable member</text></g></g><g transform="translate(-142,-46) scale(1,1)"><path fill="#C0C0C0" stroke="none" d="M 511 1048 C 511 1038.6111584 543.2354944 1031 583 1031 C 622.7645056 1031 655 1038.6111584 655 1048 C 655 1057.3888416 622.7645056 1065 583 1065 C 543.2354944 1065 511 1057.3888416 511 1048 Z" opacity="0.2"/></g><g transform="translate(-142,-46) scale(1,1)"><path fill="#ffffff" stroke="none" d="M 504 1041 C 504 1031.6111584 536.2354944 1024 576 1024 C 615.7645056 1024 648 1031.6111584 648 1041 C 648 1050.3888416 615.7645056 1058 576 1058 C 536.2354944 1058 504 1050.3888416 504 1041 Z"/></g><g transform="translate(-142,-46) scale(1,1)"><path fill="none" stroke="#000000" d="M 504 1041 C 504 1031.6111584 536.2354944 1024 576 1024 C 615.7645056 1024 648 1031.6111584 648 1041 C 648 1050.3888416 615.7645056 1058 576 1058 C 536.2354944 1058 504 1050.3888416 504 1041 Z" stroke-miterlimit="10"/></g><g transform="translate(-142,-46) scale(1,1)"><g><path fill="none" stroke="none"/><text fill="#000000" stroke="none" font-family="Arial" font-size="13px" font-style="normal" font-weight="bold" text-decoration="none" x="533.00732421875" y="1048">create librarian</text></g></g><g transform="translate(-142,-46) scale(1,1)"><path fill="none" stroke="#000000" d="M 503 912 L 456 912 L 456 715" stroke-miterlimit="10" stroke-dasharray="3"/></g><g transform="translate(-142,-46) scale(1,1)"><path fill="none" stroke="#000000" d="M 460.209517756016 725.1626748576241 L 456 715 L 451.790482243984 725.1626748576241" stroke-miterlimit="10"/></g><g transform="translate(-142,-46) scale(1,1)"><g><path fill="none" stroke="none"/><text fill="#000000" stroke="none" font-family="Arial" font-size="13px" font-style="normal" font-weight="normal" text-decoration="none" x="399.5" y="851.5">«extend»</text></g></g><g transform="translate(-142,-46) scale(1,1)"><path fill="none" stroke="#000000" d="M 503 976 L 456 976 L 456 715" stroke-miterlimit="10" stroke-dasharray="3"/></g><g transform="translate(-142,-46) scale(1,1)"><path fill="none" stroke="#000000" d="M 460.209517756016 725.1626748576241 L 456 715 L 451.790482243984 725.1626748576241" stroke-miterlimit="10"/></g><g transform="translate(-142,-46) scale(1,1)"><g><path fill="none" stroke="none"/><text fill="#000000" stroke="none" font-family="Arial" font-size="13px" font-style="normal" font-weight="normal" text-decoration="none" x="399.5" y="851.5">«extend»</text></g></g><g transform="translate(-142,-46) scale(1,1)"><path fill="none" stroke="#000000" d="M 503 1040 L 456 1040 L 456 715" stroke-miterlimit="10" stroke-dasharray="3"/></g><g transform="translate(-142,-46) scale(1,1)"><path fill="none" stroke="#000000" d="M 460.209517756016 725.1626748576241 L 456 715 L 451.790482243984 725.1626748576241" stroke-miterlimit="10"/></g><g transform="translate(-142,-46) scale(1,1)"><g><path fill="none" stroke="none"/><text fill="#000000" stroke="none" font-family="Arial" font-size="13px" font-style="normal" font-weight="normal" text-decoration="none" x="399.5" y="851.5">«extend»</text></g></g><g transform="translate(-142,-46) scale(1,1)"><path fill="none" stroke="#000000" d="M 182 663 L 181 488" stroke-miterlimit="10"/></g><g transform="translate(-142,-46) scale(1,1)"><path fill="#FFFFFF" stroke="none" d="M 189.5350410210767 508.2769098920062 L 181 488 L 172.6972448975625 508.37312586985485"/></g><g transform="translate(-142,-46) scale(1,1)"><path fill="none" stroke="#000000" d="M 189.5350410210767 508.2769098920062 L 181 488 L 172.6972448975625 508.37312586985485 L 189.5350410210767 508.2769098920062" stroke-miterlimit="10"/></g><g transform="translate(-142,-46) scale(1,1)"><path fill="none" stroke="#000000" d="M 182 407 L 184 296" stroke-miterlimit="10"/></g><g transform="translate(-142,-46) scale(1,1)"><path fill="#FFFFFF" stroke="none" d="M 192.05150614409683 316.473720932248 L 184 296 L 175.21616768594248 316.1703815005696"/></g><g transform="translate(-142,-46) scale(1,1)"><path fill="none" stroke="#000000" d="M 192.05150614409683 316.473720932248 L 184 296 L 175.21616768594248 316.1703815005696 L 192.05150614409683 316.473720932248" stroke-miterlimit="10"/></g></g></svg>